<svg width="860" height="382" viewBox="0 0 860 382" fill="none" xmlns="http://www.w3.org/2000/svg">
<mask id="mask0_1_509" style="mask-type:alpha" maskUnits="userSpaceOnUse" x="0" y="0" width="860" height="382">
<rect width="860" height="382" fill="#D9D9D9"/>
</mask>
<g mask="url(#mask0_1_509)">
<path d="M982.969 -220.865C1011.95 -246.178 1058.94 -246.179 1087.92 -220.867C1116.9 -195.555 1116.9 -154.516 1087.92 -129.202L732.333 181.368C703.351 206.681 656.363 206.682 627.383 181.37C598.402 156.059 598.404 115.019 627.386 89.7056L982.969 -220.865Z" fill="url(#paint0_radial_1_509)"/>
<path d="M417.878 -66.164C446.86 -91.4773 493.848 -91.4784 522.828 -66.1666C551.809 -40.8547 551.807 0.184989 522.825 25.4982L167.242 336.068C138.26 361.382 91.2723 361.383 62.2919 336.071C33.3115 310.759 33.3127 269.719 62.2948 244.406L417.878 -66.164Z" fill="url(#paint1_radial_1_509)"/>
<path d="M564.085 -56.835C602.662 -90.5294 665.21 -90.5294 703.787 -56.835C742.365 -23.1406 742.365 31.4888 703.787 65.1831L230.453 478.599C191.875 512.293 129.328 512.293 90.7503 478.599C52.1724 444.904 52.1724 390.275 90.7503 356.58L564.085 -56.835Z" fill="url(#paint2_radial_1_509)"/>
<path d="M424.6 -92.8034L424.606 -92.7982C449.391 -71.1505 449.391 -36.0526 424.606 -14.4049L120.473 251.229C95.6875 272.876 55.5026 272.876 30.7174 251.229L30.7115 251.223C5.92622 229.576 5.92618 194.478 30.7114 172.83L334.845 -92.8034C359.63 -114.451 399.815 -114.451 424.6 -92.8034Z" fill="url(#paint3_radial_1_509)"/>
</g>
<defs>
<radialGradient id="paint0_radial_1_509" cx="0" cy="0" r="1" gradientUnits="userSpaceOnUse" gradientTransform="translate(583.29 183.281) scale(360.933 315.243)">
<stop stop-color="white" stop-opacity="0.4"/>
<stop offset="1" stop-color="#E6E7E8" stop-opacity="0"/>
</radialGradient>
<radialGradient id="paint1_radial_1_509" cx="0" cy="0" r="1" gradientUnits="userSpaceOnUse" gradientTransform="translate(18.2018 337.985) scale(360.933 315.243)">
<stop stop-color="white" stop-opacity="0.4"/>
<stop offset="1" stop-color="#E6E7E8" stop-opacity="0"/>
</radialGradient>
<radialGradient id="paint2_radial_1_509" cx="0" cy="0" r="1" gradientUnits="userSpaceOnUse" gradientTransform="translate(713.551 -54.3526) scale(568.611 496.631)">
<stop stop-color="white" stop-opacity="0.4"/>
<stop offset="1" stop-color="#E6E7E8" stop-opacity="0"/>
</radialGradient>
<radialGradient id="paint3_radial_1_509" cx="0" cy="0" r="1" gradientUnits="userSpaceOnUse" gradientTransform="translate(430.87 -91.2041) scale(365.348 319.099)">
<stop stop-color="white" stop-opacity="0.4"/>
<stop offset="1" stop-color="#E6E7E8" stop-opacity="0"/>
</radialGradient>
</defs>
</svg>
