<svg width="353" height="30" viewBox="0 0 353 30" fill="none" xmlns="http://www.w3.org/2000/svg">
<g clip-path="url(#clip0_1_519)">
<path d="M78.1166 1.86938H82.3696L94.2653 29.453H88.6473L86.0748 23.1405H74.1002L71.6024 29.453H66.1048L78.1166 1.86938ZM84.357 18.9335L80.1041 7.71354L75.7765 18.9335H84.357Z" fill="#DE133F"/>
<path d="M97.9663 1.86938H102.879V29.453H97.9663V1.86938Z" fill="#DE133F"/>
<path d="M115.206 1.86938H125.969C127.011 1.86938 128.035 1.99373 129.052 2.23827C130.064 2.48696 130.969 2.889 131.761 3.44441C132.554 4.00395 133.197 4.72515 133.691 5.60799C134.185 6.49083 134.433 7.55604 134.433 8.80362C134.433 10.3621 133.99 11.6469 133.106 12.6624C132.222 13.6738 131.064 14.4032 129.633 14.8426V14.9213C131.376 15.1534 132.807 15.829 133.923 16.9481C135.039 18.0631 135.599 19.5594 135.599 21.4287C135.599 22.9332 135.301 24.2015 134.703 25.2253C134.106 26.2532 133.317 27.078 132.342 27.6997C131.367 28.3214 130.251 28.7691 128.99 29.0426C127.728 29.3162 126.446 29.453 125.148 29.453H115.202V1.86938H115.206ZM120.119 13.0893H124.488C126.127 13.0893 127.376 12.766 128.23 12.1153C129.089 11.4646 129.517 10.5444 129.517 9.35073C129.517 8.15703 129.073 7.22031 128.189 6.70221C127.305 6.18411 125.928 5.92299 124.056 5.92299H120.119V13.0935V13.0893ZM120.119 25.3248H124.525C125.148 25.3248 125.824 25.2792 126.554 25.188C127.28 25.0968 127.952 24.9103 128.562 24.6243C129.172 24.3383 129.679 23.9238 130.085 23.3767C130.492 22.8296 130.691 22.1043 130.691 21.1965C130.691 19.7417 130.197 18.7304 129.21 18.1584C128.222 17.5864 126.724 17.3004 124.724 17.3004H120.123V25.3248H120.119Z" fill="#DE133F"/>
<path d="M139.62 10.7517H144.105V13.8686H144.184C144.703 12.7785 145.433 11.8957 146.367 11.2201C147.304 10.5445 148.396 10.2087 149.644 10.2087C149.827 10.2087 150.022 10.217 150.229 10.2295C150.437 10.2419 150.619 10.2751 150.777 10.3289V14.6147C150.466 14.5359 150.196 14.4862 149.976 14.4572C149.756 14.4323 149.541 14.4198 149.333 14.4198C148.267 14.4198 147.408 14.6147 146.761 15.0043C146.109 15.3939 145.603 15.8622 145.238 16.4052C144.873 16.9523 144.628 17.5077 144.495 18.0797C144.367 18.6517 144.3 19.1076 144.3 19.4433V29.4572H139.62V10.7517Z" fill="#DE133F"/>
<path d="M165.909 27.078H165.793C165.324 27.9111 164.569 28.5909 163.532 29.1256C162.49 29.6561 161.308 29.9255 159.984 29.9255C159.229 29.9255 158.445 29.8302 157.623 29.6312C156.806 29.4364 156.051 29.1131 155.362 28.6572C154.673 28.2013 154.101 27.6044 153.644 26.8666C153.188 26.1247 152.964 25.2087 152.964 24.1187C152.964 22.7177 153.362 21.5986 154.155 20.7697C154.947 19.9407 155.968 19.3024 157.217 18.8589C158.466 18.4196 159.847 18.1253 161.37 17.9802C162.893 17.8393 164.378 17.7647 165.835 17.7647V17.2963C165.835 16.1275 165.411 15.2654 164.569 14.7058C163.723 14.1463 162.718 13.8686 161.544 13.8686C160.557 13.8686 159.607 14.0758 158.698 14.4903C157.789 14.9048 157.034 15.4146 156.437 16.0114L154.018 13.1681C155.084 12.1817 156.312 11.4397 157.702 10.9465C159.092 10.4533 160.503 10.2046 161.934 10.2046C163.598 10.2046 164.971 10.4367 166.05 10.9051C167.129 11.3734 167.98 11.9827 168.606 12.7371C169.229 13.4914 169.664 14.3328 169.913 15.2695C170.158 16.2062 170.282 17.1388 170.282 18.0755V29.453H165.913V27.078H165.909ZM165.83 20.923H164.776C164.021 20.923 163.229 20.9562 162.399 21.0183C161.565 21.0847 160.802 21.2256 160.096 21.4453C159.395 21.6649 158.81 21.9799 158.341 22.382C157.872 22.784 157.64 23.3353 157.64 24.0399C157.64 24.4834 157.735 24.8523 157.934 25.1507C158.129 25.4491 158.383 25.6895 158.694 25.8719C159.005 26.0543 159.358 26.1828 159.748 26.2615C160.138 26.3403 160.528 26.3776 160.918 26.3776C162.528 26.3776 163.752 25.9507 164.586 25.0927C165.415 24.2347 165.835 23.0659 165.835 21.5862V20.923H165.83Z" fill="#DE133F"/>
<path d="M174.369 10.7517H178.817V13.7525H178.896C179.311 12.8158 180.033 11.9951 181.062 11.2781C182.087 10.5652 183.307 10.2087 184.709 10.2087C185.933 10.2087 186.979 10.4243 187.85 10.8512C188.721 11.2781 189.435 11.8459 189.995 12.5464C190.555 13.2469 190.962 14.0551 191.223 14.9628C191.481 15.8705 191.613 16.8072 191.613 17.7688V29.4572H186.933V19.0952C186.933 18.5481 186.896 17.9802 186.817 17.3792C186.738 16.7824 186.568 16.2436 186.311 15.7628C186.049 15.282 185.693 14.8882 185.236 14.5732C184.78 14.2623 184.178 14.1048 183.423 14.1048C182.668 14.1048 182.02 14.2541 181.473 14.5525C180.925 14.8509 180.477 15.2364 180.128 15.7006C179.78 16.1648 179.51 16.7078 179.328 17.3171C179.145 17.9263 179.054 18.5439 179.054 19.1656V29.453H174.374V10.7517H174.369Z" fill="#DE133F"/>
<path d="M215.517 29.4529H211.069V26.6469H210.99C210.339 27.7369 209.434 28.57 208.281 29.142C207.123 29.714 205.882 30 204.555 30C203.123 30 201.845 29.7347 200.713 29.2001C199.58 28.6654 198.621 27.9525 197.825 27.0572C197.032 26.1619 196.422 25.1091 195.991 23.903C195.559 22.6969 195.348 21.4037 195.348 20.0276C195.348 18.6516 195.568 17.3667 196.012 16.1688C196.455 14.9751 197.078 13.9348 197.883 13.0519C198.688 12.1691 199.65 11.4728 200.771 10.9671C201.891 10.4615 203.111 10.2086 204.439 10.2086C205.297 10.2086 206.065 10.304 206.741 10.5029C207.418 10.6977 208.007 10.9381 208.517 11.2241C209.023 11.5101 209.459 11.8209 209.824 12.1608C210.189 12.4965 210.488 12.824 210.72 13.1348H210.837V0H215.517V29.4529ZM200.111 20.0276C200.111 20.7571 200.223 21.4825 200.443 22.2078C200.663 22.9331 200.995 23.5839 201.439 24.1558C201.878 24.7278 202.439 25.1962 203.115 25.5568C203.791 25.9215 204.584 26.1039 205.492 26.1039C206.351 26.1039 207.119 25.9298 207.795 25.5775C208.472 25.2252 209.048 24.7651 209.53 24.1931C210.011 23.6212 210.376 22.9787 210.621 22.2658C210.866 21.5529 210.99 20.8317 210.99 20.1022C210.99 19.3728 210.866 18.6474 210.621 17.9221C210.372 17.1967 210.011 16.546 209.53 15.974C209.048 15.402 208.472 14.9337 207.795 14.5731C207.119 14.2083 206.351 14.026 205.492 14.026C204.584 14.026 203.791 14.2001 203.115 14.5524C202.439 14.9047 201.878 15.3647 201.439 15.9367C200.995 16.5087 200.663 17.1511 200.443 17.8641C200.223 18.577 200.111 19.2981 200.111 20.0276Z" fill="#DE133F"/>
<path d="M227.686 1.86938H237.279C238.578 1.86938 239.839 2.00616 241.063 2.27972C242.287 2.55328 243.37 3.00091 244.32 3.62263C245.271 4.24435 246.03 5.06502 246.603 6.07635C247.175 7.08768 247.461 8.32282 247.461 9.77765C247.461 11.7796 246.897 13.4085 245.764 14.6685C244.632 15.9285 243.092 16.7782 241.142 17.2217L248.515 29.4571H242.586L236.188 17.7688H232.599V29.4571H227.686V1.86938ZM236.62 13.7525C237.321 13.7525 238.022 13.7028 238.727 13.595C239.429 13.4914 240.059 13.2966 240.619 13.0106C241.18 12.7246 241.64 12.3143 242.005 11.7837C242.37 11.2532 242.553 10.5693 242.553 9.7362C242.553 8.98185 242.383 8.36842 242.047 7.88762C241.711 7.40683 241.279 7.02551 240.76 6.73951C240.242 6.45352 239.648 6.25872 238.985 6.1551C238.321 6.05148 237.678 5.9976 237.055 5.9976H232.607V13.7525H236.624H236.62Z" fill="#DE133F"/>
<path d="M268.796 20.3386V20.9603C268.796 21.1676 268.784 21.3748 268.759 21.582H254.523C254.573 22.2576 254.751 22.8752 255.05 23.4306C255.349 23.9902 255.747 24.471 256.241 24.873C256.735 25.275 257.295 25.5942 257.917 25.8263C258.54 26.0584 259.191 26.1786 259.867 26.1786C261.038 26.1786 262.025 25.9631 262.83 25.5362C263.635 25.1093 264.299 24.5165 264.817 23.7622L267.938 26.2574C266.091 28.7525 263.415 29.996 259.905 29.996C258.448 29.996 257.108 29.768 255.888 29.3121C254.664 28.8561 253.606 28.2137 252.71 27.3847C251.814 26.5558 251.113 25.5362 250.602 24.3259C250.096 23.1198 249.843 21.7478 249.843 20.2143C249.843 18.6807 250.096 17.3378 250.602 16.1026C251.109 14.8675 251.806 13.8188 252.689 12.9484C253.573 12.078 254.619 11.4024 255.83 10.9216C257.038 10.4408 258.345 10.2004 259.751 10.2004C261.05 10.2004 262.253 10.416 263.357 10.8429C264.461 11.2698 265.419 11.9081 266.224 12.7536C267.029 13.5992 267.66 14.6519 268.116 15.9078C268.572 17.1678 268.801 18.6434 268.801 20.3303L268.796 20.3386ZM264.116 18.233C264.116 17.6362 264.033 17.0642 263.863 16.5171C263.693 15.97 263.427 15.4933 263.062 15.0747C262.697 14.6602 262.237 14.3287 261.676 14.08C261.116 13.8354 260.461 13.7111 259.706 13.7111C258.303 13.7111 257.112 14.1338 256.137 14.9794C255.162 15.8249 254.623 16.9067 254.519 18.233H264.112H264.116Z" fill="#DE133F"/>
<path d="M269.925 10.7517H275.033L279.945 24.3881H280.024L284.978 10.7517H289.932L282.485 29.453H277.493L269.925 10.7517Z" fill="#DE133F"/>
<path d="M292.351 4.40173C292.351 3.64738 292.629 2.9925 293.19 2.43295C293.75 1.8734 294.455 1.5957 295.314 1.5957C296.173 1.5957 296.895 1.86097 297.48 2.39565C298.065 2.93033 298.359 3.59764 298.359 4.40173C298.359 5.20582 298.065 5.87727 297.48 6.40781C296.895 6.94248 296.173 7.20775 295.314 7.20775C294.455 7.20775 293.746 6.93005 293.19 6.3705C292.629 5.81096 292.351 5.15608 292.351 4.40173ZM293.015 10.7515H297.696V29.4529H293.015V10.7515Z" fill="#DE133F"/>
<path d="M320.665 20.3386V20.9603C320.665 21.1676 320.653 21.3748 320.628 21.582H306.392C306.442 22.2576 306.62 22.8752 306.919 23.4306C307.218 23.9902 307.616 24.471 308.11 24.873C308.604 25.275 309.164 25.5942 309.786 25.8263C310.409 26.0584 311.06 26.1786 311.736 26.1786C312.906 26.1786 313.894 25.9631 314.699 25.5362C315.504 25.1093 316.168 24.5165 316.686 23.7622L319.807 26.2574C317.96 28.7525 315.284 29.996 311.774 29.996C310.317 29.996 308.977 29.768 307.757 29.3121C306.533 28.8561 305.475 28.2137 304.579 27.3847C303.683 26.5558 302.982 25.5362 302.471 24.3259C301.965 23.1198 301.712 21.7478 301.712 20.2143C301.712 18.6807 301.965 17.3378 302.471 16.1026C302.977 14.8675 303.674 13.8188 304.558 12.9484C305.442 12.078 306.488 11.4024 307.699 10.9216C308.907 10.4408 310.214 10.2004 311.62 10.2004C312.919 10.2004 314.122 10.416 315.226 10.8429C316.329 11.2698 317.288 11.9081 318.093 12.7536C318.898 13.5992 319.529 14.6519 319.985 15.9078C320.441 17.1678 320.67 18.6434 320.67 20.3303L320.665 20.3386ZM315.985 18.233C315.985 17.6362 315.902 17.0642 315.732 16.5171C315.562 15.97 315.296 15.4933 314.931 15.0747C314.566 14.6602 314.106 14.3287 313.545 14.08C312.985 13.8354 312.33 13.7111 311.575 13.7111C310.172 13.7111 308.981 14.1338 308.006 14.9794C307.031 15.8249 306.492 16.9067 306.388 18.233H315.981H315.985Z" fill="#DE133F"/>
<path d="M321.952 10.7517H327.022L330.922 24.156H331.001L335.017 10.7517H340.009L344.067 24.156H344.146L348.125 10.7517H353L346.527 29.453H341.768L337.515 16.3638H337.436L333.225 29.453H328.466L321.952 10.7517Z" fill="#DE133F"/>
<path d="M24.9656 22.9124C22.3848 25.4905 18.1859 25.4905 15.6092 22.9124L2.7924 10.1133L0 12.9027L12.8127 25.7018C16.9328 29.8176 23.6379 29.8176 27.758 25.7018L36.0522 17.4164L33.2598 14.627L24.9656 22.9124Z" fill="#DE133F"/>
<path d="M28.9281 11.1412C31.5089 8.56311 35.7079 8.56311 38.2845 11.1412L51.0972 23.9403L53.8896 21.1508L41.0769 8.35173C36.9568 4.23595 30.2517 4.23595 26.1316 8.35173L17.8373 16.6372L20.6297 19.4266L28.924 11.1412H28.9281Z" fill="#FF9B2F"/>
</g>
<defs>
<clipPath id="clip0_1_519">
<rect width="353" height="30" fill="white"/>
</clipPath>
</defs>
</svg>
