<svg width="282" height="24" viewBox="0 0 282 24" fill="none" xmlns="http://www.w3.org/2000/svg">
<g clip-path="url(#clip0_1_4)">
<path d="M62.4048 1.49544H65.8023L75.3054 23.5623H70.8174L68.7623 18.5123H59.1962L57.2008 23.5623H52.8089L62.4048 1.49544ZM67.39 15.1467L63.9925 6.17077L60.5353 15.1467H67.39Z" fill="#DE133F"/>
<path d="M78.2621 1.49544H82.1866V23.5623H78.2621V1.49544Z" fill="#DE133F"/>
<path d="M92.0344 1.49544H100.633C101.465 1.49544 102.283 1.59492 103.095 1.79055C103.904 1.9895 104.627 2.31114 105.26 2.75546C105.893 3.2031 106.407 3.78005 106.801 4.48632C107.196 5.1926 107.394 6.04476 107.394 7.04283C107.394 8.28958 107.04 9.31749 106.334 10.1299C105.628 10.9389 104.703 11.5225 103.559 11.874V11.937C104.952 12.1227 106.095 12.6632 106.987 13.5584C107.878 14.4504 108.326 15.6474 108.326 17.1429C108.326 18.3465 108.087 19.3612 107.61 20.1802C107.133 21.0025 106.503 21.6623 105.724 22.1597C104.945 22.6571 104.053 23.0152 103.046 23.234C102.038 23.4529 101.014 23.5623 99.9763 23.5623H92.0311V1.49544H92.0344ZM95.959 10.4714H99.4493C100.759 10.4714 101.756 10.2128 102.439 9.69218C103.125 9.1716 103.467 8.43548 103.467 7.48052C103.467 6.52556 103.112 5.77618 102.406 5.3617C101.7 4.94722 100.599 4.73833 99.1045 4.73833H95.959V10.4747V10.4714ZM95.959 20.2597H99.4791C99.9763 20.2597 100.517 20.2233 101.1 20.1503C101.68 20.0774 102.217 19.9282 102.704 19.6994C103.192 19.4706 103.596 19.139 103.921 18.7013C104.246 18.2636 104.405 17.6833 104.405 16.9572C104.405 15.7933 104.01 14.9843 103.221 14.5267C102.432 14.0691 101.236 13.8403 99.6382 13.8403H95.9623V20.2597H95.959Z" fill="#DE133F"/>
<path d="M111.538 8.60127H115.121V11.0948H115.184C115.598 10.2227 116.182 9.51644 116.927 8.97596C117.677 8.43548 118.548 8.1669 119.546 8.1669C119.692 8.1669 119.848 8.17353 120.013 8.18348C120.179 8.19342 120.325 8.21995 120.451 8.26306V11.6916C120.202 11.6286 119.987 11.5888 119.811 11.5656C119.635 11.5457 119.463 11.5358 119.297 11.5358C118.446 11.5358 117.759 11.6916 117.242 12.0033C116.722 12.315 116.318 12.6897 116.026 13.1241C115.734 13.5618 115.539 14.0061 115.432 14.4637C115.33 14.9212 115.277 15.286 115.277 15.5546V23.5656H111.538V8.60127Z" fill="#DE133F"/>
<path d="M132.539 21.6623H132.447C132.072 22.3288 131.469 22.8726 130.64 23.3004C129.808 23.7248 128.863 23.9403 127.806 23.9403C127.203 23.9403 126.576 23.864 125.92 23.7049C125.267 23.549 124.664 23.2904 124.114 22.9257C123.563 22.5609 123.106 22.0834 122.741 21.4932C122.377 20.8997 122.198 20.1669 122.198 19.2948C122.198 18.1741 122.516 17.2788 123.149 16.6156C123.782 15.9525 124.597 15.4418 125.595 15.087C126.593 14.7356 127.697 14.5001 128.913 14.3841C130.13 14.2713 131.316 14.2117 132.48 14.2117V13.837C132.48 12.9019 132.142 12.2122 131.469 11.7646C130.793 11.3169 129.99 11.0948 129.052 11.0948C128.263 11.0948 127.504 11.2606 126.779 11.5922C126.053 11.9237 125.449 12.3316 124.972 12.8091L123.04 10.5344C123.891 9.74523 124.873 9.1517 125.983 8.75712C127.093 8.36253 128.22 8.16358 129.364 8.16358C130.693 8.16358 131.79 8.34927 132.652 8.72396C133.514 9.09865 134.193 9.58607 134.694 10.1896C135.191 10.793 135.539 11.4662 135.738 12.2155C135.934 12.9649 136.033 13.711 136.033 14.4603V23.5623H132.543V21.6623H132.539ZM132.476 16.7383H131.634C131.031 16.7383 130.398 16.7649 129.735 16.8146C129.069 16.8676 128.459 16.9804 127.896 17.1561C127.335 17.3319 126.868 17.5839 126.493 17.9055C126.119 18.2271 125.933 18.6681 125.933 19.2318C125.933 19.5866 126.01 19.8817 126.169 20.1205C126.324 20.3592 126.527 20.5515 126.775 20.6974C127.024 20.8433 127.306 20.9461 127.617 21.0091C127.929 21.0721 128.24 21.102 128.552 21.102C129.838 21.102 130.816 20.7604 131.482 20.0741C132.145 19.3877 132.48 18.4526 132.48 17.2689V16.7383H132.476Z" fill="#DE133F"/>
<path d="M139.298 8.60127H142.851V11.0019H142.914C143.246 10.2526 143.822 9.59602 144.644 9.02238C145.463 8.45206 146.438 8.1669 147.558 8.1669C148.536 8.1669 149.371 8.33932 150.067 8.68085C150.763 9.02238 151.333 9.47665 151.781 10.037C152.228 10.5974 152.553 11.244 152.762 11.9702C152.968 12.6963 153.074 13.4457 153.074 14.215V23.5656H149.335V15.276C149.335 14.8384 149.305 14.3841 149.242 13.9033C149.179 13.4258 149.043 12.9947 148.837 12.6101C148.629 12.2255 148.344 11.9105 147.979 11.6585C147.614 11.4098 147.134 11.2838 146.53 11.2838C145.927 11.2838 145.41 11.4032 144.973 11.6419C144.535 11.8806 144.177 12.189 143.899 12.5604C143.62 12.9317 143.405 13.3661 143.259 13.8535C143.113 14.341 143.04 14.835 143.04 15.3324V23.5623H139.301V8.60127H139.298Z" fill="#DE133F"/>
<path d="M172.169 23.5623H168.616V21.3175H168.553C168.033 22.1896 167.31 22.856 166.389 23.3136C165.464 23.7712 164.473 24 163.412 24C162.268 24 161.247 23.7878 160.343 23.36C159.438 22.9323 158.672 22.362 158.036 21.6458C157.403 20.9295 156.915 20.0873 156.571 19.1224C156.226 18.1575 156.057 17.123 156.057 16.0221C156.057 14.9212 156.232 13.8933 156.587 12.9351C156.942 11.9801 157.439 11.1478 158.082 10.4416C158.725 9.73529 159.494 9.17823 160.389 8.77369C161.284 8.36916 162.258 8.1669 163.319 8.1669C164.005 8.1669 164.618 8.24316 165.159 8.40232C165.699 8.55817 166.17 8.75048 166.577 8.97928C166.982 9.20807 167.33 9.45676 167.622 9.72865C167.913 9.99724 168.152 10.2592 168.338 10.5079H168.43V0H172.169V23.5623ZM159.862 16.0221C159.862 16.6057 159.951 17.186 160.127 17.7662C160.303 18.3465 160.568 18.8671 160.923 19.3247C161.274 19.7823 161.721 20.1569 162.262 20.4454C162.802 20.7372 163.435 20.8831 164.161 20.8831C164.847 20.8831 165.46 20.7439 166.001 20.462C166.541 20.1802 167.002 19.8121 167.386 19.3545C167.771 18.8969 168.062 18.383 168.258 17.8127C168.454 17.2423 168.553 16.6654 168.553 16.0818C168.553 15.4982 168.454 14.9179 168.258 14.3377C168.059 13.7574 167.771 13.2368 167.386 12.7792C167.002 12.3216 166.541 11.9469 166.001 11.6585C165.46 11.3667 164.847 11.2208 164.161 11.2208C163.435 11.2208 162.802 11.36 162.262 11.6419C161.721 11.9237 161.274 12.2918 160.923 12.7494C160.568 13.207 160.303 13.7209 160.127 14.2912C159.951 14.8616 159.862 15.4385 159.862 16.0221Z" fill="#DE133F"/>
<path d="M181.891 1.49544H189.555C190.592 1.49544 191.6 1.60486 192.578 1.82371C193.555 2.04255 194.42 2.40066 195.18 2.89804C195.939 3.39541 196.545 4.05195 197.003 4.86101C197.46 5.67008 197.689 6.65819 197.689 7.82205C197.689 9.4236 197.238 10.7267 196.333 11.7347C195.428 12.7427 194.198 13.4225 192.64 13.7773L198.531 23.5656H193.794L188.683 14.215H185.816V23.5656H181.891V1.49544ZM189.028 11.0019C189.588 11.0019 190.148 10.9621 190.711 10.8759C191.272 10.793 191.775 10.6372 192.223 10.4084C192.67 10.1796 193.038 9.85134 193.33 9.42691C193.622 9.00249 193.767 8.45538 193.767 7.78889C193.767 7.18541 193.632 6.69467 193.363 6.31003C193.095 5.92539 192.75 5.62034 192.336 5.39155C191.921 5.16275 191.447 5.00691 190.917 4.92401C190.387 4.84112 189.873 4.79801 189.376 4.79801H185.822V11.0019H189.031H189.028Z" fill="#DE133F"/>
<path d="M214.733 16.2708V16.7682C214.733 16.934 214.723 17.0997 214.703 17.2655H203.33C203.37 17.806 203.513 18.3001 203.751 18.7444C203.99 19.192 204.308 19.5767 204.702 19.8983C205.097 20.2199 205.544 20.4753 206.042 20.661C206.539 20.8466 207.059 20.9428 207.599 20.9428C208.534 20.9428 209.323 20.7704 209.966 20.4288C210.609 20.0873 211.14 19.6132 211.554 19.0097L214.046 21.0058C212.571 23.0019 210.434 23.9967 207.629 23.9967C206.466 23.9967 205.395 23.8143 204.421 23.4496C203.443 23.0848 202.598 22.5709 201.882 21.9077C201.166 21.2445 200.606 20.4288 200.198 19.4606C199.793 18.4957 199.591 17.3982 199.591 16.1713C199.591 14.9445 199.793 13.8701 200.198 12.882C200.602 11.8939 201.159 11.055 201.865 10.3587C202.571 9.66234 203.406 9.12185 204.374 8.73722C205.339 8.35258 206.383 8.16026 207.507 8.16026C208.544 8.16026 209.505 8.33269 210.387 8.67422C211.269 9.01575 212.034 9.52639 212.678 10.2028C213.321 10.8792 213.824 11.7215 214.189 12.7262C214.554 13.7342 214.736 14.9146 214.736 16.2642L214.733 16.2708ZM210.994 14.5863C210.994 14.1089 210.927 13.6513 210.791 13.2136C210.656 12.7759 210.443 12.3946 210.152 12.0597C209.86 11.7281 209.492 11.4628 209.045 11.2639C208.597 11.0682 208.073 10.9688 207.47 10.9688C206.35 10.9688 205.399 11.307 204.62 11.9834C203.841 12.6598 203.41 13.5253 203.327 14.5863H210.99H210.994Z" fill="#DE133F"/>
<path d="M215.634 8.60127H219.715L223.639 19.5104H223.702L227.66 8.60127H231.617L225.668 23.5623H221.68L215.634 8.60127Z" fill="#DE133F"/>
<path d="M233.55 3.52142C233.55 2.91793 233.772 2.39403 234.219 1.94639C234.667 1.49876 235.23 1.2766 235.916 1.2766C236.603 1.2766 237.179 1.48881 237.647 1.91655C238.114 2.34429 238.349 2.87814 238.349 3.52142C238.349 4.16469 238.114 4.70185 237.647 5.12628C237.179 5.55402 236.603 5.76623 235.916 5.76623C235.23 5.76623 234.664 5.54407 234.219 5.09644C233.772 4.6488 233.55 4.1249 233.55 3.52142ZM234.08 8.60127H237.819V23.5623H234.08V8.60127Z" fill="#DE133F"/>
<path d="M256.169 16.2708V16.7682C256.169 16.934 256.159 17.0997 256.139 17.2655H244.767C244.806 17.806 244.949 18.3001 245.188 18.7444C245.426 19.192 245.744 19.5767 246.139 19.8983C246.533 20.2199 246.981 20.4753 247.478 20.661C247.975 20.8466 248.496 20.9428 249.036 20.9428C249.971 20.9428 250.759 20.7704 251.403 20.4288C252.046 20.0873 252.576 19.6132 252.99 19.0097L255.483 21.0058C254.008 23.0019 251.87 23.9967 249.066 23.9967C247.902 23.9967 246.832 23.8143 245.857 23.4496C244.879 23.0848 244.034 22.5709 243.318 21.9077C242.602 21.2445 242.042 20.4288 241.634 19.4606C241.23 18.4957 241.028 17.3982 241.028 16.1713C241.028 14.9445 241.23 13.8701 241.634 12.882C242.039 11.8939 242.595 11.055 243.302 10.3587C244.008 9.66234 244.843 9.12185 245.811 8.73722C246.775 8.35258 247.819 8.16026 248.943 8.16026C249.981 8.16026 250.942 8.33269 251.823 8.67422C252.705 9.01575 253.471 9.52639 254.114 10.2028C254.757 10.8792 255.261 11.7215 255.625 12.7262C255.99 13.7342 256.172 14.9146 256.172 16.2642L256.169 16.2708ZM252.43 14.5863C252.43 14.1089 252.364 13.6513 252.228 13.2136C252.092 12.7759 251.88 12.3946 251.588 12.0597C251.296 11.7281 250.928 11.4628 250.481 11.2639C250.034 11.0682 249.51 10.9688 248.907 10.9688C247.786 10.9688 246.835 11.307 246.056 11.9834C245.277 12.6598 244.846 13.5253 244.763 14.5863H252.427H252.43Z" fill="#DE133F"/>
<path d="M257.197 8.60127H261.247L264.363 19.3247H264.426L267.634 8.60127H271.622L274.864 19.3247H274.927L278.105 8.60127H282L276.829 23.5623H273.027L269.63 13.0909H269.567L266.202 23.5623H262.401L257.197 8.60127Z" fill="#DE133F"/>
<path d="M19.9442 18.3299C17.8825 20.3924 14.5281 20.3924 12.4697 18.3299L2.23076 8.09063L0 10.3222L10.2356 20.5615C13.5271 23.8541 18.8835 23.8541 22.175 20.5615L28.8009 13.9331L26.5702 11.7016L19.9442 18.3299Z" fill="#DE133F"/>
<path d="M23.1097 8.91296C25.1714 6.85051 28.5258 6.85051 30.5842 8.91296L40.8198 19.1523L43.0506 16.9207L32.815 6.6814C29.5235 3.38878 24.1671 3.38878 20.8756 6.6814L14.2497 13.3098L16.4804 15.5413L23.1064 8.91296H23.1097Z" fill="#FF9B2F"/>
</g>
<defs>
<clipPath id="clip0_1_4">
<rect width="282" height="24" fill="white"/>
</clipPath>
</defs>
</svg>
