<svg width="232" height="20" viewBox="0 0 232 20" fill="none" xmlns="http://www.w3.org/2000/svg">
<g clip-path="url(#clip0_106_2521)">
<path d="M51.3402 1.2462H54.1353L61.9534 19.6353H58.2611L56.5704 15.4269H48.7005L47.0589 19.6353H43.4457L51.3402 1.2462ZM55.4415 12.6223L52.6464 5.1423L49.8022 12.6223H55.4415Z" fill="#DE133F"/>
<path d="M64.3859 1.2462H67.6146V19.6353H64.3859V1.2462Z" fill="#DE133F"/>
<path d="M75.7164 1.2462H82.79C83.4745 1.2462 84.1481 1.3291 84.8162 1.49212C85.4815 1.65792 86.076 1.92595 86.5968 2.29621C87.1177 2.66925 87.5404 3.15004 87.8649 3.7386C88.1894 4.32716 88.353 5.0373 88.353 5.86902C88.353 6.90799 88.0612 7.76458 87.4804 8.44156C86.8995 9.11578 86.1387 9.6021 85.1979 9.895V9.9475C86.3432 10.1022 87.284 10.5526 88.0176 11.2987C88.7511 12.042 89.1193 13.0395 89.1193 14.2857C89.1193 15.2888 88.9229 16.1343 88.5302 16.8168C88.1376 17.5021 87.6194 18.0519 86.9786 18.4664C86.3378 18.8809 85.6042 19.1793 84.7753 19.3617C83.9463 19.5441 83.1036 19.6353 82.2501 19.6353H75.7136V1.2462H75.7164ZM78.9451 8.72617H81.8165C82.8937 8.72617 83.7145 8.51064 84.2762 8.07682C84.8407 7.643 85.1216 7.02957 85.1216 6.23377C85.1216 5.43797 84.8298 4.81348 84.249 4.46809C83.6681 4.12269 82.7628 3.9486 81.5329 3.9486H78.9451V8.72893V8.72617ZM78.9451 16.8831H81.8411C82.2501 16.8831 82.6946 16.8527 83.1745 16.7919C83.6518 16.7311 84.0935 16.6068 84.4944 16.4161C84.8952 16.2255 85.2279 15.9492 85.4952 15.5844C85.7624 15.2197 85.8933 14.7361 85.8933 14.131C85.8933 13.1611 85.5688 12.4869 84.9198 12.1056C84.2708 11.7242 83.2863 11.5336 81.972 11.5336H78.9478V16.8831H78.9451Z" fill="#DE133F"/>
<path d="M91.7616 7.16773H94.7094V9.24565H94.7612C95.1021 8.51893 95.582 7.93037 96.1956 7.47997C96.8119 7.02957 97.5291 6.80575 98.3499 6.80575C98.4699 6.80575 98.598 6.81127 98.7344 6.81956C98.8707 6.82785 98.9907 6.84996 99.0943 6.88588V9.74302C98.8898 9.69052 98.7126 9.65736 98.568 9.63802C98.4235 9.62144 98.2817 9.61315 98.1454 9.61315C97.4445 9.61315 96.8801 9.74302 96.4547 10.0028C96.0265 10.2625 95.6938 10.5747 95.4539 10.9367C95.2139 11.3015 95.053 11.6717 94.9658 12.0531C94.8812 12.4344 94.8376 12.7383 94.8376 12.9621V19.638H91.7616V7.16773Z" fill="#DE133F"/>
<path d="M109.04 18.0519H108.963C108.655 18.6074 108.159 19.0605 107.477 19.417C106.793 19.7707 106.015 19.9503 105.145 19.9503C104.649 19.9503 104.134 19.8867 103.594 19.7541C103.057 19.6242 102.56 19.4087 102.108 19.1047C101.655 18.8008 101.279 18.4029 100.979 17.911C100.679 17.4164 100.531 16.8057 100.531 16.079C100.531 15.1451 100.793 14.399 101.314 13.8464C101.835 13.2937 102.506 12.8682 103.327 12.5725C104.147 12.2796 105.055 12.0835 106.056 11.9867C107.057 11.8928 108.033 11.8431 108.99 11.8431V11.5308C108.99 10.7516 108.712 10.1768 108.159 9.80381C107.602 9.43078 106.943 9.24565 106.171 9.24565C105.522 9.24565 104.897 9.38381 104.3 9.66013C103.703 9.93645 103.207 10.2763 102.814 10.6742L101.224 8.77867C101.925 8.12103 102.732 7.62642 103.646 7.2976C104.559 6.96878 105.486 6.80299 106.427 6.80299C107.521 6.80299 108.423 6.95772 109.132 7.26997C109.841 7.58221 110.4 7.9884 110.812 8.4913C111.221 8.9942 111.507 9.55513 111.671 10.1796C111.832 10.8041 111.914 11.4258 111.914 12.0503V19.6353H109.042V18.0519H109.04ZM108.988 13.9486H108.295C107.799 13.9486 107.278 13.9707 106.733 14.0122C106.184 14.0564 105.683 14.1503 105.219 14.2968C104.758 14.4432 104.374 14.6532 104.066 14.9213C103.757 15.1893 103.605 15.5568 103.605 16.0265C103.605 16.3222 103.667 16.5681 103.798 16.7671C103.927 16.966 104.093 17.1263 104.297 17.2479C104.502 17.3694 104.734 17.4551 104.99 17.5076C105.246 17.5601 105.503 17.585 105.759 17.585C106.817 17.585 107.622 17.3004 108.17 16.7284C108.715 16.1564 108.99 15.3772 108.99 14.3907V13.9486H108.988Z" fill="#DE133F"/>
<path d="M114.6 7.16773H117.523V9.16828H117.575C117.848 8.5438 118.322 7.99668 118.998 7.51865C119.672 7.04338 120.474 6.80575 121.395 6.80575C122.2 6.80575 122.887 6.94943 123.46 7.23404C124.032 7.51865 124.501 7.89721 124.869 8.36419C125.238 8.83117 125.505 9.36999 125.677 9.97513C125.846 10.5803 125.933 11.2048 125.933 11.8458V19.638H122.857V12.73C122.857 12.3653 122.832 11.9867 122.781 11.5861C122.729 11.1882 122.617 10.829 122.448 10.5084C122.276 10.1879 122.042 9.92539 121.742 9.71539C121.442 9.50815 121.046 9.40315 120.55 9.40315C120.054 9.40315 119.628 9.50263 119.268 9.70158C118.908 9.90053 118.614 10.1575 118.385 10.467C118.156 10.7765 117.978 11.1384 117.858 11.5446C117.738 11.9508 117.678 12.3625 117.678 12.777V19.6353H114.602V7.16773H114.6Z" fill="#DE133F"/>
<path d="M141.643 19.6353H138.72V17.7646H138.668C138.24 18.4913 137.645 19.0467 136.887 19.428C136.126 19.8093 135.311 20 134.438 20C133.497 20 132.658 19.8232 131.913 19.4667C131.169 19.1103 130.539 18.635 130.015 18.0381C129.494 17.4413 129.093 16.7394 128.81 15.9353C128.526 15.1313 128.387 14.2691 128.387 13.3518C128.387 12.4344 128.532 11.5778 128.824 10.7792C129.115 9.98342 129.524 9.28986 130.053 8.7013C130.582 8.11274 131.215 7.64852 131.951 7.31141C132.688 6.9743 133.489 6.80575 134.362 6.80575C134.926 6.80575 135.431 6.8693 135.875 7.00193C136.32 7.1318 136.707 7.29207 137.043 7.48273C137.375 7.67339 137.662 7.88063 137.902 8.10721C138.141 8.33103 138.338 8.54932 138.491 8.75656H138.567V0H141.643V19.6353ZM131.518 13.3518C131.518 13.8381 131.591 14.3216 131.736 14.8052C131.88 15.2888 132.099 15.7226 132.39 16.1039C132.679 16.4852 133.048 16.7975 133.492 17.0379C133.937 17.281 134.457 17.4026 135.055 17.4026C135.619 17.4026 136.124 17.2865 136.568 17.0517C137.013 16.8168 137.392 16.5101 137.708 16.1288C138.024 15.7474 138.264 15.3192 138.425 14.8439C138.586 14.3686 138.668 13.8878 138.668 13.4015C138.668 12.9152 138.586 12.4316 138.425 11.9481C138.261 11.4645 138.024 11.0307 137.708 10.6494C137.392 10.268 137.013 9.95579 136.568 9.71539C136.124 9.47223 135.619 9.35065 135.055 9.35065C134.457 9.35065 133.937 9.4667 133.492 9.70158C133.048 9.93645 132.679 10.2432 132.39 10.6245C132.099 11.0058 131.88 11.4341 131.736 11.9094C131.591 12.3846 131.518 12.8654 131.518 13.3518Z" fill="#DE133F"/>
<path d="M149.641 1.2462H155.946C156.799 1.2462 157.628 1.33739 158.433 1.51976C159.237 1.70213 159.949 2.00055 160.573 2.41503C161.198 2.82951 161.697 3.37662 162.073 4.05084C162.449 4.72506 162.638 5.54849 162.638 6.51838C162.638 7.853 162.267 8.93893 161.522 9.77894C160.778 10.619 159.766 11.1854 158.484 11.4811L163.33 19.638H159.433L155.228 11.8458H152.87V19.638H149.641V1.2462ZM155.512 9.16828C155.973 9.16828 156.434 9.13512 156.897 9.06328C157.358 8.9942 157.773 8.86433 158.141 8.67367C158.509 8.48301 158.812 8.20945 159.052 7.85576C159.292 7.50207 159.412 7.04615 159.412 6.49074C159.412 5.98784 159.3 5.57889 159.079 5.25836C158.858 4.93783 158.574 4.68361 158.234 4.49295C157.893 4.30229 157.503 4.17242 157.066 4.10334C156.63 4.03426 156.207 3.99834 155.798 3.99834H152.875V9.16828H155.515H155.512Z" fill="#DE133F"/>
<path d="M176.66 13.559V13.9735C176.66 14.1116 176.651 14.2498 176.635 14.388H167.279C167.312 14.8384 167.429 15.2501 167.625 15.6203C167.822 15.9934 168.083 16.3139 168.408 16.5819C168.732 16.85 169.1 17.0627 169.509 17.2175C169.919 17.3722 170.347 17.4523 170.791 17.4523C171.56 17.4523 172.209 17.3086 172.738 17.024C173.267 16.7394 173.704 16.3443 174.044 15.8414L176.095 17.5048C174.882 19.1683 173.123 19.9972 170.816 19.9972C169.859 19.9972 168.978 19.8453 168.176 19.5413C167.372 19.2374 166.676 18.8091 166.087 18.2564C165.498 17.7038 165.037 17.024 164.702 16.2172C164.369 15.4131 164.203 14.4985 164.203 13.4761C164.203 12.4537 164.369 11.5584 164.702 10.735C165.035 9.91158 165.493 9.21249 166.074 8.63222C166.654 8.05195 167.342 7.60155 168.138 7.28102C168.931 6.96049 169.79 6.80022 170.715 6.80022C171.568 6.80022 172.359 6.94391 173.085 7.22852C173.81 7.51312 174.44 7.93866 174.969 8.50235C175.498 9.06604 175.912 9.76789 176.212 10.6051C176.512 11.4452 176.662 12.4288 176.662 13.5535L176.66 13.559ZM173.584 12.1553C173.584 11.7574 173.529 11.3761 173.417 11.0113C173.305 10.6466 173.131 10.3288 172.891 10.0497C172.651 9.77342 172.348 9.55236 171.98 9.38657C171.612 9.22354 171.181 9.14065 170.685 9.14065C169.763 9.14065 168.98 9.42249 168.34 9.98618C167.699 10.5499 167.344 11.2711 167.276 12.1553H173.581H173.584Z" fill="#DE133F"/>
<path d="M177.401 7.16772H180.758L183.987 16.2586H184.039L187.295 7.16772H190.551L185.656 19.6353H182.375L177.401 7.16772Z" fill="#DE133F"/>
<path d="M192.14 2.93451C192.14 2.43161 192.323 1.99503 192.691 1.62199C193.059 1.24896 193.523 1.06383 194.087 1.06383C194.652 1.06383 195.126 1.24067 195.511 1.59713C195.895 1.95358 196.089 2.39845 196.089 2.93451C196.089 3.47057 195.895 3.91821 195.511 4.2719C195.126 4.62835 194.652 4.80519 194.087 4.80519C193.523 4.80519 193.057 4.62006 192.691 4.24703C192.323 3.874 192.14 3.43741 192.14 2.93451ZM192.577 7.16773H195.653V19.6353H192.577V7.16773Z" fill="#DE133F"/>
<path d="M210.749 13.559V13.9735C210.749 14.1116 210.741 14.2498 210.724 14.388H201.368C201.401 14.8384 201.518 15.2501 201.715 15.6203C201.911 15.9934 202.173 16.3139 202.497 16.5819C202.822 16.85 203.19 17.0627 203.599 17.2175C204.008 17.3722 204.436 17.4523 204.881 17.4523C205.65 17.4523 206.299 17.3086 206.828 17.024C207.357 16.7394 207.793 16.3443 208.134 15.8414L210.185 17.5048C208.971 19.1683 207.212 19.9972 204.905 19.9972C203.948 19.9972 203.067 19.8453 202.266 19.5413C201.461 19.2374 200.766 18.8091 200.177 18.2564C199.588 17.7038 199.127 17.024 198.791 16.2172C198.459 15.4131 198.292 14.4985 198.292 13.4761C198.292 12.4537 198.459 11.5584 198.791 10.735C199.124 9.91158 199.582 9.21249 200.163 8.63222C200.744 8.05195 201.431 7.60155 202.227 7.28102C203.021 6.96049 203.88 6.80022 204.804 6.80022C205.658 6.80022 206.449 6.94391 207.174 7.22852C207.899 7.51312 208.529 7.93866 209.058 8.50235C209.587 9.06604 210.002 9.76789 210.302 10.6051C210.602 11.4452 210.752 12.4288 210.752 13.5535L210.749 13.559ZM207.673 12.1553C207.673 11.7574 207.619 11.3761 207.507 11.0113C207.395 10.6466 207.22 10.3288 206.98 10.0497C206.74 9.77342 206.438 9.55236 206.07 9.38657C205.701 9.22354 205.271 9.14065 204.774 9.14065C203.853 9.14065 203.07 9.42249 202.429 9.98618C201.788 10.5499 201.434 11.2711 201.366 12.1553H207.67H207.673Z" fill="#DE133F"/>
<path d="M211.594 7.16772H214.927L217.49 16.1039H217.542L220.181 7.16772H223.462L226.129 16.1039H226.181L228.796 7.16772H232L227.746 19.6353H224.618L221.823 10.9091H221.771L219.003 19.6353H215.876L211.594 7.16772Z" fill="#DE133F"/>
<path d="M16.408 15.2749C14.7118 16.9936 11.9522 16.9936 10.2588 15.2749L1.83523 6.7422L0 8.60182L8.42079 17.1346C11.1286 19.8784 15.5354 19.8784 18.2432 17.1346L23.6944 11.6109L21.8592 9.75131L16.408 15.2749Z" fill="#DE133F"/>
<path d="M19.0123 7.42747C20.7084 5.70876 23.4681 5.70876 25.1615 7.42747L33.5823 15.9602L35.4175 14.1006L26.9967 5.56784C24.2889 2.82398 19.8822 2.82398 17.1743 5.56784L11.7231 11.0915L13.5584 12.9511L19.0095 7.42747H19.0123Z" fill="#FF9B2F"/>
</g>
<defs>
<clipPath id="clip0_106_2521">
<rect width="232" height="20" fill="white"/>
</clipPath>
</defs>
</svg>
