<svg width="375" height="510" viewBox="0 0 375 510" fill="none" xmlns="http://www.w3.org/2000/svg">
<mask id="mask0_106_2513" style="mask-type:alpha" maskUnits="userSpaceOnUse" x="0" y="0" width="375" height="510">
<rect width="375" height="510" fill="#D9D9D9"/>
</mask>
<g mask="url(#mask0_106_2513)">
<g filter="url(#filter0_f_106_2513)">
<path d="M81.3862 170.286C81.3862 170.286 81.8016 170.745 82.5489 171.574C83.306 172.404 84.3365 173.655 85.5333 175.284C87.9312 178.522 90.9642 183.349 93.2817 189.301C95.6185 195.226 97.1972 202.269 97.2925 209.158C97.4221 216.04 96.0576 222.7 93.5108 227.629C92.8677 228.863 91.9597 229.84 90.835 230.564C89.6807 231.282 88.317 231.754 86.7843 231.998C83.7168 232.497 79.9805 232.095 75.816 231.146C71.6514 230.197 67.0562 228.707 62.2388 227.06C57.4923 225.418 52.4926 223.685 47.5196 221.962C42.7731 220.348 37.9976 218.85 33.4712 217.608C28.9542 216.365 24.7163 215.389 21.0446 214.67C17.3725 213.948 14.2957 213.487 12.1383 213.202C9.98081 212.918 8.74086 212.795 8.74086 212.795C8.74086 212.795 9.16927 212.847 9.92074 212.896C10.6722 212.945 11.7527 212.986 13.0489 212.921C15.6398 212.806 19.1329 212.187 22.3925 210.635C25.6506 209.128 28.6082 206.661 30.1682 204.094C30.5353 203.469 30.8802 202.818 31.0954 202.21C31.2923 201.61 31.4628 201.004 31.4908 200.47C31.5143 199.954 31.4674 199.409 31.3443 199.046C31.2202 198.702 31.0193 198.417 30.744 198.214C38.7682 192.917 47.0227 187.94 55.4837 183.298C63.9401 178.644 72.6507 174.38 81.3866 170.289L81.3862 170.286Z" fill="#F9F9F9"/>
</g>
<path d="M-98.1179 505.377C-94.0686 485.439 -84.5312 464.322 -68.9527 450.672C-66.3266 448.434 -63.4339 446.541 -60.5008 444.866C-46.3826 437.036 -30.8035 432.434 -15.4871 427.857C11.1662 420.174 38.6098 413.815 65.1215 406.055C77.6823 402.363 90.3229 398.339 102.294 393.306C109.31 390.302 115.985 387.121 121.933 382.723C123.224 381.745 124.508 380.654 125.554 379.487C125.664 379.355 125.811 379.185 125.909 379.067L126.009 378.934L126.111 378.803L126.162 378.739C126.173 378.724 126.224 378.668 126.253 378.633L126.664 378.165C135.34 368.446 138.707 357.981 138.277 345.065C137.663 328.277 133.124 312.223 130.524 295.295C128.171 280.809 126.998 265.962 128.883 251.202C131.438 229.407 141.694 208.353 156.665 192.373C162.93 185.56 169.797 179.411 177.441 174.012C207.248 152.618 245.523 146.481 280.859 145.607C301.847 144.863 324.978 146.265 345.36 145.699C354.106 145.378 362.489 144.805 370.638 142.759C375.183 141.58 379.431 139.972 383.426 137.538C410.652 120.641 426.33 84.4461 436.718 54.9269C441.912 40.007 446.546 23.9719 450.652 8.4909C450.968 7.33313 451.275 6.17274 451.573 5.01069L452.513 1.56573L461.699 0.254476C461.776 0.405853 461.855 0.571653 461.931 0.713611L462.155 1.14658L462.6 2.00501C463.749 4.25487 464.859 6.58222 465.858 8.88942C472.646 24.6113 477.184 41.0175 479.905 58.0069C485.939 95.9169 481.976 136.655 463.568 170.933C450.887 194.691 431.73 214.624 407.495 226.699C380.15 240.612 348.9 243.885 318.978 242.21C300.355 241.244 282.444 238.468 265.048 236.606C245.592 234.819 224.764 232.891 209.444 246.044C206.04 248.964 203.231 252.24 201.262 256.132C198.163 262.278 197.364 269.412 197.147 276.324C196.861 289.403 198.512 302.121 199.3 315.525C200.192 329.607 200.288 343.814 197.656 358.002C193.733 380.616 181.616 401.616 164.178 416.365L163.324 417.09L162.468 417.813L161.968 418.231L161.422 418.681C156.209 422.927 150.396 426.377 144.502 429.172C126.599 437.521 107.235 441.504 88.0457 444.737C64.8186 448.541 41.0657 450.693 17.6696 453.034C-0.45601 454.898 -18.4802 456.518 -36.2734 459.934C-42.3453 461.172 -48.381 462.538 -54.0847 464.889C-55.2623 465.387 -56.2935 465.878 -57.3542 466.467C-71.3209 475.231 -81.0721 489.952 -87.8958 504.811C-88.1222 505.315 -88.3425 505.82 -88.5564 506.323L-88.8698 507.072L-89.0198 507.438L-89.0918 507.616C-89.114 507.668 -89.1407 507.741 -89.1534 507.762L-98.1212 505.38L-98.1179 505.377Z" fill="url(#paint0_linear_106_2513)"/>
<path d="M-37.8015 447.651C-37.8015 447.651 -37.8015 447.651 -37.8015 447.651C-34.4553 437.597 -30.9683 427.588 -27.0395 417.679C-9.52958 373.633 16.8986 328.873 62.2115 303.929C111.891 279.243 163.444 296.709 208.82 303.737C250.331 311.236 293.102 316.281 327.672 296.511C370.41 272.429 401.197 228.364 419.865 180.532C423.616 170.756 426.923 160.666 429.216 150.363C428.506 160.904 426.652 171.502 424.222 181.876C411.984 232.537 384.853 283.055 338.05 313.603C297.091 340.304 246.66 334.925 204.593 327.362C157.829 319.503 110.168 303.849 70.8192 321.024C30.1254 339.663 0.132989 378.597 -22.9228 419.64C-28.1051 428.832 -32.9787 438.212 -37.8015 447.651Z" fill="url(#paint1_linear_106_2513)"/>
<g filter="url(#filter1_f_106_2513)">
<path d="M359.121 436.809C359.121 436.809 359.049 437.095 358.922 437.611C358.789 438.114 358.6 438.844 358.363 439.739C357.891 441.514 357.247 443.898 356.514 446.403C355.773 448.914 354.94 451.536 353.833 453.852C352.721 456.172 351.325 458.2 349.282 459.611C348.257 460.315 346.191 460.367 343.337 459.981C340.474 459.585 336.804 458.732 332.642 457.509C324.31 455.072 314.012 451.088 304.186 446.247C294.327 441.442 285.061 435.781 278.319 431.102C271.597 426.456 267.371 422.92 267.371 422.92C267.371 422.92 268.025 422.544 269.183 421.875C270.351 421.21 271.981 420.237 274.024 419.114C278.056 416.83 283.584 413.92 289.385 411.055C295.193 408.171 301.271 405.355 306.502 402.619C311.731 399.862 316.094 397.136 318.57 393.837C331.598 408.674 345.097 422.982 359.121 436.809Z" fill="#F9F9F9"/>
</g>
<g filter="url(#filter2_f_106_2513)">
<path d="M266.808 31.7363C266.808 31.7363 267.175 13.6294 275.36 8.19441C283.544 2.75939 342.721 44.5065 342.721 44.5065C342.721 44.5065 313.005 47.9498 310.796 56.3589L266.808 31.7363Z" fill="#F9F9F9"/>
</g>
</g>
<defs>
<filter id="filter0_f_106_2513" x="-1.25916" y="160.286" width="108.56" height="81.9279" filterUnits="userSpaceOnUse" color-interpolation-filters="sRGB">
<feFlood flood-opacity="0" result="BackgroundImageFix"/>
<feBlend mode="normal" in="SourceGraphic" in2="BackgroundImageFix" result="shape"/>
<feGaussianBlur stdDeviation="5" result="effect1_foregroundBlur_106_2513"/>
</filter>
<filter id="filter1_f_106_2513" x="257.371" y="383.837" width="111.75" height="86.3839" filterUnits="userSpaceOnUse" color-interpolation-filters="sRGB">
<feFlood flood-opacity="0" result="BackgroundImageFix"/>
<feBlend mode="normal" in="SourceGraphic" in2="BackgroundImageFix" result="shape"/>
<feGaussianBlur stdDeviation="5" result="effect1_foregroundBlur_106_2513"/>
</filter>
<filter id="filter2_f_106_2513" x="256.808" y="-2.29369" width="95.9136" height="68.6525" filterUnits="userSpaceOnUse" color-interpolation-filters="sRGB">
<feFlood flood-opacity="0" result="BackgroundImageFix"/>
<feBlend mode="normal" in="SourceGraphic" in2="BackgroundImageFix" result="shape"/>
<feGaussianBlur stdDeviation="5" result="effect1_foregroundBlur_106_2513"/>
</filter>
<linearGradient id="paint0_linear_106_2513" x1="-24.1242" y1="503.841" x2="488.988" y2="31.6468" gradientUnits="userSpaceOnUse">
<stop stop-color="white" stop-opacity="0.1"/>
<stop offset="0.5" stop-color="white" stop-opacity="0.5"/>
<stop offset="1" stop-color="white" stop-opacity="0.25"/>
</linearGradient>
<linearGradient id="paint1_linear_106_2513" x1="446.498" y1="184.685" x2="-45.4796" y2="432.402" gradientUnits="userSpaceOnUse">
<stop stop-color="#FF9B2F"/>
<stop offset="1" stop-color="#DE133F"/>
</linearGradient>
</defs>
</svg>
