<svg width="1206" height="680" viewBox="0 0 1206 680" fill="none" xmlns="http://www.w3.org/2000/svg">
<g filter="url(#filter0_f_91_28)">
<path d="M1077.53 88.3827C1077.53 88.3827 1078.3 89.2335 1079.69 90.7685C1081.09 92.3075 1083 94.6255 1085.22 97.6436C1089.66 103.643 1095.28 112.586 1099.57 123.615C1103.9 134.593 1106.83 147.642 1107.01 160.407C1107.25 173.159 1104.72 185.498 1100 194.632C1098.81 196.917 1097.12 198.729 1095.04 200.07C1092.9 201.399 1090.37 202.274 1087.53 202.727C1081.85 203.652 1074.93 202.907 1067.21 201.148C1059.5 199.39 1050.98 196.63 1042.06 193.577C1033.26 190.534 1024 187.323 1014.78 184.131C1005.99 181.141 997.14 178.364 988.753 176.064C980.384 173.761 972.532 171.952 965.728 170.62C958.924 169.282 953.224 168.428 949.226 167.901C945.229 167.374 942.931 167.147 942.931 167.147C942.931 167.147 943.725 167.243 945.117 167.333C946.51 167.423 948.512 167.5 950.913 167.379C955.714 167.166 962.186 166.019 968.226 163.144C974.263 160.352 979.743 155.78 982.633 151.024C983.313 149.867 983.953 148.66 984.351 147.533C984.716 146.422 985.032 145.299 985.084 144.31C985.127 143.353 985.04 142.344 984.812 141.671C984.582 141.033 984.21 140.506 983.7 140.13C998.568 130.315 1013.86 121.093 1029.54 112.492C1045.21 103.868 1061.35 95.9682 1077.53 88.3885L1077.53 88.3827Z" fill="#F9F9F9"/>
</g>
<path d="M61.5914 664.915C76.9855 630.505 102.78 596.186 136.474 577.813C142.128 574.829 148.124 572.579 154.106 570.736C182.803 562.297 212.835 560.284 242.381 558.209C293.683 555.108 345.878 554.722 396.956 551.425C421.161 549.836 445.646 547.678 469.329 543.424C483.229 540.834 496.587 537.786 509.123 532.241C511.852 530.996 514.615 529.543 516.98 527.856C517.232 527.662 517.566 527.415 517.792 527.24L518.026 527.041L518.263 526.846L518.382 526.751C518.407 526.728 518.522 526.648 518.589 526.596L519.522 525.915C539.144 511.856 549.468 494.297 553.921 470.771C559.607 440.167 557.901 409.303 560.053 377.643C561.665 350.498 565.554 323.179 574.94 297.254C588.383 258.881 615.452 224.967 648.99 202.135C663.076 192.354 677.981 184.015 693.988 177.35C756.544 150.735 828.234 155.136 892.477 167.862C930.727 175.015 971.982 186.915 1009.06 194.144C1025.01 197.106 1040.4 199.464 1055.96 199.063C1064.65 198.772 1072.99 197.584 1081.19 194.801C1137.26 175.273 1180.27 116.177 1211 67.01C1226.43 42.1364 1241.3 15.0197 1254.99 -11.3086C1256.03 -13.2743 1257.06 -15.248 1258.07 -17.2284L1261.16 -23.0767L1278.3 -21.7284C1278.38 -21.4231 1278.46 -21.0914 1278.54 -20.8042L1278.77 -19.9304L1279.22 -18.1983C1280.39 -13.6652 1281.45 -9.0075 1282.33 -4.43137C1288.23 26.7434 1289.8 58.2443 1287.84 90.0646C1283.4 161.052 1259.74 233.105 1212.58 287.629C1180.03 325.452 1137.32 353.736 1088.61 365.756C1033.54 379.841 975.711 373.105 922.287 357.963C889.006 348.675 857.746 336.405 827.046 325.995C792.591 314.886 755.714 302.967 722.688 320.546C715.352 324.448 708.945 329.234 703.81 335.473C695.719 345.331 691.386 357.907 688.194 370.315C682.382 393.848 680.217 417.512 676.216 442.067C672.126 467.888 666.547 493.616 656.044 518.203C639.796 557.502 609.384 590.565 571.884 610.173L570.046 611.139L568.205 612.1L567.132 612.652L565.962 613.244C554.818 618.812 542.911 622.695 531.122 625.363C495.372 633.21 458.748 632.571 422.743 630.648C379.206 628.121 335.388 622.394 292.138 617.154C258.61 613.187 225.365 608.817 191.811 607.79C180.331 607.57 168.865 607.597 157.6 609.539C155.269 609.961 153.206 610.431 151.049 611.068C122.248 621.259 98.657 643.927 80.3029 668.031C79.6894 668.851 79.0868 669.674 78.4963 670.497L77.6264 671.724L77.2068 672.326L77.0045 672.619C76.9435 672.704 76.8656 672.825 76.8342 672.857L61.5843 664.919L61.5914 664.915Z" fill="url(#paint0_linear_91_28)"/>
<path d="M577.926 730.229C577.926 730.229 577.926 730.229 577.926 730.229C583.095 716.773 588.437 703.385 594.353 690.163C620.708 631.362 658.86 572.397 720.559 541.118C787.155 510.533 856.053 535.753 917.845 547.049C974.21 558.708 1033.66 567.152 1082.61 540.202C1142.4 507.737 1185.21 447.614 1211.13 382.587C1216.34 369.29 1220.93 355.567 1224.13 341.566C1222.51 355.845 1219.36 370.113 1215.46 384.04C1195.89 452.06 1156.57 518.725 1092.55 557.552C1037.04 591.269 969.939 582.297 913.019 570.558C849.861 558.397 784.808 535.088 728.73 558.426C671.809 583.519 630.241 636.569 598.418 692.228C591.267 704.701 584.555 717.425 577.926 730.229Z" fill="url(#paint1_linear_91_28)"/>
<g filter="url(#filter1_f_91_28)">
<path d="M468 566.622C468 566.622 467.867 567.151 467.632 568.107C467.385 569.039 467.035 570.392 466.595 572.051C465.721 575.339 464.528 579.757 463.171 584.398C461.797 589.051 460.253 593.909 458.204 598.201C456.142 602.499 453.556 606.256 449.77 608.871C447.871 610.176 444.042 610.272 438.755 609.556C433.45 608.823 426.65 607.242 418.939 604.976C403.5 600.461 384.42 593.079 366.213 584.11C347.947 575.207 330.777 564.717 318.286 556.048C305.831 547.44 298 540.887 298 540.887C298 540.887 299.212 540.19 301.358 538.951C303.522 537.719 306.543 535.916 310.328 533.836C317.798 529.604 328.04 524.211 338.789 518.903C349.55 513.559 360.812 508.341 370.506 503.273C380.194 498.163 388.278 493.114 392.866 487C417.004 514.491 442.017 541.001 468 566.622Z" fill="#F9F9F9"/>
</g>
<g filter="url(#filter2_f_91_28)">
<path d="M604.908 153.067C604.908 153.067 605.589 119.518 620.754 109.447C635.919 99.3771 745.565 176.729 745.565 176.729C745.565 176.729 690.506 183.109 686.413 198.689L604.908 153.067Z" fill="#F9F9F9"/>
</g>
<defs>
<filter id="filter0_f_91_28" x="932.931" y="78.3827" width="184.089" height="134.744" filterUnits="userSpaceOnUse" color-interpolation-filters="sRGB">
<feFlood flood-opacity="0" result="BackgroundImageFix"/>
<feBlend mode="normal" in="SourceGraphic" in2="BackgroundImageFix" result="shape"/>
<feGaussianBlur stdDeviation="5" result="effect1_foregroundBlur_91_28"/>
</filter>
<filter id="filter1_f_91_28" x="288" y="477" width="190" height="143" filterUnits="userSpaceOnUse" color-interpolation-filters="sRGB">
<feFlood flood-opacity="0" result="BackgroundImageFix"/>
<feBlend mode="normal" in="SourceGraphic" in2="BackgroundImageFix" result="shape"/>
<feGaussianBlur stdDeviation="5" result="effect1_foregroundBlur_91_28"/>
</filter>
<filter id="filter2_f_91_28" x="594.908" y="98.543" width="160.657" height="110.146" filterUnits="userSpaceOnUse" color-interpolation-filters="sRGB">
<feFlood flood-opacity="0" result="BackgroundImageFix"/>
<feBlend mode="normal" in="SourceGraphic" in2="BackgroundImageFix" result="shape"/>
<feGaussianBlur stdDeviation="5" result="effect1_foregroundBlur_91_28"/>
</filter>
<linearGradient id="paint0_linear_91_28" x1="196" y1="692.097" x2="1314.93" y2="46.0807" gradientUnits="userSpaceOnUse">
<stop stop-color="white" stop-opacity="0.1"/>
<stop offset="0.5" stop-color="white" stop-opacity="0.5"/>
<stop offset="1" stop-color="white" stop-opacity="0.25"/>
</linearGradient>
<linearGradient id="paint1_linear_91_28" x1="1246.47" y1="388.898" x2="567.998" y2="709.199" gradientUnits="userSpaceOnUse">
<stop stop-color="#FF9B2F"/>
<stop offset="1" stop-color="#DE133F"/>
</linearGradient>
</defs>
</svg>
