<svg width="430" height="36" viewBox="0 0 430 36" fill="none" xmlns="http://www.w3.org/2000/svg">
<g clip-path="url(#clip0_1_63)">
<path d="M95.1563 2.24316H100.337L114.827 35.3435H107.984L104.85 27.7684H90.2638L87.2211 35.3435H80.5242L95.1563 2.24316ZM102.758 22.7201L97.5773 9.25615L92.3057 22.7201H102.758Z" fill="#DE133F"/>
<path d="M119.336 2.24316H125.32V35.3435H119.336V2.24316Z" fill="#DE133F"/>
<path d="M140.336 2.24316H153.447C154.716 2.24316 155.964 2.39238 157.202 2.68583C158.435 2.98425 159.537 3.46671 160.503 4.13319C161.468 4.80465 162.251 5.67008 162.853 6.72949C163.454 7.7889 163.758 9.06715 163.758 10.5642C163.758 12.4344 163.217 13.9762 162.14 15.1948C161.064 16.4084 159.653 17.2838 157.91 17.811V17.9055C160.033 18.184 161.776 18.9948 163.136 20.3377C164.495 21.6756 165.178 23.4711 165.178 25.7143C165.178 27.5198 164.814 29.0417 164.086 30.2702C163.358 31.5037 162.398 32.4935 161.21 33.2396C160.022 33.9856 158.663 34.5228 157.126 34.8511C155.59 35.1793 154.028 35.3435 152.446 35.3435H140.331V2.24316H140.336ZM146.32 15.7071H151.643C153.639 15.7071 155.16 15.3192 156.201 14.5383C157.248 13.7574 157.768 12.6532 157.768 11.2208C157.768 9.78834 157.227 8.66428 156.151 8.04256C155.074 7.42084 153.396 7.10749 151.117 7.10749H146.32V15.7121V15.7071ZM146.32 30.3896H151.688C152.446 30.3896 153.27 30.3349 154.16 30.2255C155.044 30.1161 155.863 29.8922 156.606 29.5491C157.349 29.2059 157.965 28.7085 158.461 28.052C158.956 27.3954 159.199 26.525 159.199 25.4358C159.199 23.69 158.597 22.4764 157.394 21.79C156.191 21.1036 154.367 20.7604 151.931 20.7604H146.325V30.3896H146.32Z" fill="#DE133F"/>
<path d="M170.075 12.9019H175.539V16.6422H175.635C176.267 15.3341 177.156 14.2747 178.294 13.4639C179.436 12.6532 180.765 12.2503 182.286 12.2503C182.509 12.2503 182.746 12.2603 182.999 12.2752C183.252 12.2901 183.474 12.3299 183.666 12.3946V17.5374C183.287 17.4429 182.959 17.3832 182.691 17.3484C182.423 17.3186 182.16 17.3037 181.907 17.3037C180.608 17.3037 179.562 17.5374 178.774 18.005C177.98 18.4725 177.364 19.0345 176.919 19.6861C176.474 20.3426 176.176 21.0091 176.014 21.6955C175.857 22.3819 175.777 22.929 175.777 23.3318V35.3484H170.075V12.9019Z" fill="#DE133F"/>
<path d="M202.099 32.4935H201.958C201.386 33.4932 200.467 34.3089 199.203 34.9505C197.934 35.5872 196.494 35.9105 194.882 35.9105C193.962 35.9105 193.006 35.7961 192.006 35.5573C191.01 35.3236 190.09 34.9356 189.251 34.3885C188.412 33.8414 187.715 33.1252 187.159 32.2398C186.603 31.3495 186.33 30.2503 186.33 28.9422C186.33 27.2611 186.815 25.9182 187.78 24.9234C188.746 23.9287 189.989 23.1627 191.51 22.6306C193.032 22.1033 194.715 21.7502 196.57 21.5761C198.425 21.407 200.234 21.3175 202.008 21.3175V20.7554C202.008 19.3528 201.493 18.3183 200.467 17.6469C199.435 16.9754 198.212 16.6422 196.782 16.6422C195.579 16.6422 194.422 16.8908 193.315 17.3882C192.208 17.8856 191.288 18.4974 190.56 19.2136L187.614 15.8016C188.913 14.6178 190.409 13.7275 192.102 13.1357C193.795 12.5438 195.513 12.2454 197.257 12.2454C199.284 12.2454 200.957 12.5239 202.271 13.0859C203.585 13.648 204.621 14.3791 205.384 15.2843C206.142 16.1895 206.673 17.1992 206.976 18.3233C207.275 19.4474 207.426 20.5664 207.426 21.6905V35.3435H202.104V32.4935H202.099ZM202.003 25.1075H200.719C199.799 25.1075 198.834 25.1473 197.823 25.2219C196.807 25.3015 195.877 25.4706 195.018 25.7342C194.164 25.9978 193.451 26.3758 192.88 26.8582C192.309 27.3407 192.026 28.0022 192.026 28.8477C192.026 29.3799 192.142 29.8226 192.385 30.1807C192.622 30.5388 192.931 30.8273 193.31 31.0461C193.689 31.265 194.118 31.4192 194.593 31.5137C195.069 31.6082 195.544 31.6529 196.019 31.6529C197.98 31.6529 199.471 31.1406 200.487 30.1111C201.498 29.0815 202.008 27.6789 202.008 25.9033V25.1075H202.003Z" fill="#DE133F"/>
<path d="M212.405 12.9019H217.823V16.5029H217.919C218.424 15.3788 219.304 14.394 220.557 13.5336C221.806 12.6781 223.292 12.2503 225 12.2503C226.491 12.2503 227.765 12.509 228.826 13.0213C229.887 13.5336 230.757 14.215 231.439 15.0555C232.121 15.8961 232.617 16.866 232.935 17.9552C233.248 19.0445 233.41 20.1685 233.41 21.3225V35.3484H227.709V22.9141C227.709 22.2575 227.663 21.5761 227.567 20.8549C227.471 20.1387 227.264 19.4921 226.951 18.9152C226.632 18.3382 226.198 17.8657 225.642 17.4877C225.086 17.1147 224.353 16.9257 223.433 16.9257C222.513 16.9257 221.725 17.1047 221.058 17.4628C220.39 17.8209 219.845 18.2835 219.42 18.8406C218.995 19.3976 218.667 20.0492 218.444 20.7803C218.222 21.5115 218.111 22.2525 218.111 22.9986V35.3435H212.41V12.9019H212.405Z" fill="#DE133F"/>
<path d="M262.528 35.3435H257.109V31.9762H257.013C256.22 33.2843 255.118 34.2841 253.713 34.9704C252.303 35.6568 250.792 36 249.174 36C247.431 36 245.874 35.6817 244.494 35.0401C243.114 34.3985 241.947 33.543 240.976 32.4686C240.011 31.3943 239.268 30.131 238.742 28.6836C238.217 27.2363 237.959 25.6844 237.959 24.0332C237.959 22.3819 238.227 20.84 238.768 19.4026C239.308 17.9702 240.067 16.7217 241.047 15.6623C242.028 14.6029 243.2 13.7673 244.565 13.1605C245.929 12.5537 247.415 12.2503 249.033 12.2503C250.079 12.2503 251.014 12.3647 251.838 12.6035C252.662 12.8372 253.379 13.1257 254.001 13.4689C254.618 13.8121 255.148 14.1851 255.593 14.593C256.038 14.9959 256.402 15.3888 256.685 15.7618H256.826V0H262.528V35.3435ZM243.761 24.0332C243.761 24.9085 243.898 25.7789 244.166 26.6494C244.433 27.5198 244.838 28.3006 245.379 28.987C245.914 29.6734 246.597 30.2354 247.42 30.6681C248.244 31.1058 249.21 31.3247 250.317 31.3247C251.363 31.3247 252.298 31.1158 253.122 30.693C253.946 30.2702 254.648 29.7182 255.234 29.0318C255.821 28.3454 256.265 27.5745 256.564 26.719C256.862 25.8635 257.013 24.9981 257.013 24.1227C257.013 23.2473 256.862 22.3769 256.564 21.5065C256.26 20.6361 255.821 19.8552 255.234 19.1688C254.648 18.4825 253.946 17.9204 253.122 17.4877C252.298 17.05 251.363 16.8312 250.317 16.8312C249.21 16.8312 248.244 17.0401 247.42 17.4628C246.597 17.8856 245.914 18.4377 245.379 19.1241C244.838 19.8104 244.433 20.5814 244.166 21.4369C243.898 22.2923 243.761 23.1578 243.761 24.0332Z" fill="#DE133F"/>
<path d="M277.352 2.24316H289.037C290.619 2.24316 292.156 2.4073 293.647 2.73557C295.138 3.06383 296.457 3.601 297.614 4.34706C298.772 5.09312 299.697 6.07792 300.394 7.29152C301.091 8.50512 301.44 9.98729 301.44 11.7331C301.44 14.1354 300.753 16.0901 299.373 17.6021C297.993 19.1141 296.118 20.1337 293.743 20.6659L302.724 35.3484H295.501L287.708 21.3225H283.336V35.3484H277.352V2.24316ZM288.233 16.5029C289.088 16.5029 289.942 16.4432 290.801 16.3139C291.655 16.1896 292.423 15.9558 293.106 15.6126C293.788 15.2694 294.349 14.777 294.794 14.1404C295.239 13.5037 295.461 12.6831 295.461 11.6833C295.461 10.7781 295.254 10.042 294.844 9.46505C294.435 8.88809 293.909 8.43051 293.278 8.08732C292.646 7.74413 291.923 7.51037 291.114 7.38602C290.306 7.26168 289.522 7.19702 288.764 7.19702H283.346V16.5029H288.239H288.233Z" fill="#DE133F"/>
<path d="M327.429 24.4062V25.1522C327.429 25.4009 327.414 25.6496 327.384 25.8983H310.043C310.103 26.709 310.321 27.4501 310.684 28.1166C311.048 28.7881 311.534 29.365 312.135 29.8475C312.736 30.3299 313.419 30.7129 314.177 30.9914C314.935 31.27 315.729 31.4142 316.552 31.4142C317.978 31.4142 319.181 31.1556 320.161 30.6433C321.142 30.131 321.95 29.4197 322.582 28.5145L326.383 31.5087C324.134 34.5029 320.874 35.995 316.598 35.995C314.824 35.995 313.191 35.7215 311.705 35.1743C310.214 34.6272 308.926 33.8563 307.834 32.8616C306.742 31.8668 305.888 30.6433 305.266 29.1909C304.65 27.7436 304.341 26.0973 304.341 24.257C304.341 22.4167 304.65 20.8052 305.266 19.323C305.883 17.8408 306.732 16.5825 307.809 15.538C308.885 14.4935 310.159 13.6828 311.635 13.1058C313.105 12.5289 314.698 12.2404 316.411 12.2404C317.993 12.2404 319.459 12.499 320.803 13.0113C322.147 13.5236 323.315 14.2896 324.296 15.3042C325.276 16.3189 326.044 17.5822 326.6 19.0892C327.156 20.6013 327.434 22.3719 327.434 24.3962L327.429 24.4062ZM321.728 21.8795C321.728 21.1633 321.627 20.4769 321.42 19.8204C321.212 19.1638 320.889 18.5919 320.444 18.0895C319.999 17.5921 319.438 17.1942 318.756 16.8958C318.074 16.6024 317.275 16.4532 316.355 16.4532C314.647 16.4532 313.196 16.9605 312.009 17.9751C310.821 18.9898 310.164 20.2879 310.037 21.8795H321.723H321.728Z" fill="#DE133F"/>
<path d="M328.804 12.9019H335.026L341.01 29.2656H341.106L347.141 12.9019H353.175L344.103 35.3435H338.023L328.804 12.9019Z" fill="#DE133F"/>
<path d="M356.122 5.28211C356.122 4.37689 356.461 3.59104 357.143 2.91958C357.825 2.24813 358.685 1.91489 359.731 1.91489C360.777 1.91489 361.656 2.23321 362.369 2.87482C363.082 3.51643 363.441 4.31721 363.441 5.28211C363.441 6.24702 363.082 7.05277 362.369 7.68941C361.656 8.33102 360.777 8.64934 359.731 8.64934C358.685 8.64934 357.82 8.3161 357.143 7.64465C356.461 6.97319 356.122 6.18734 356.122 5.28211ZM356.931 12.9019H362.632V35.3435H356.931V12.9019Z" fill="#DE133F"/>
<path d="M390.612 24.4062V25.1522C390.612 25.4009 390.597 25.6496 390.567 25.8983H373.226C373.286 26.709 373.504 27.4501 373.868 28.1166C374.231 28.7881 374.717 29.365 375.318 29.8475C375.92 30.3299 376.602 30.7129 377.36 30.9914C378.118 31.27 378.912 31.4142 379.735 31.4142C381.161 31.4142 382.364 31.1556 383.344 30.6433C384.325 30.131 385.133 29.4197 385.765 28.5145L389.566 31.5087C387.317 34.5029 384.057 35.995 379.781 35.995C378.007 35.995 376.374 35.7215 374.888 35.1743C373.397 34.6272 372.109 33.8563 371.017 32.8616C369.925 31.8668 369.071 30.6433 368.449 29.1909C367.833 27.7436 367.524 26.0973 367.524 24.257C367.524 22.4167 367.833 20.8052 368.449 19.323C369.066 17.8408 369.915 16.5825 370.992 15.538C372.068 14.4935 373.342 13.6828 374.818 13.1058C376.289 12.5289 377.881 12.2404 379.594 12.2404C381.176 12.2404 382.642 12.499 383.986 13.0113C385.331 13.5236 386.498 14.2896 387.479 15.3042C388.459 16.3189 389.227 17.5822 389.783 19.0892C390.339 20.6013 390.617 22.3719 390.617 24.3962L390.612 24.4062ZM384.911 21.8795C384.911 21.1633 384.81 20.4769 384.603 19.8204C384.396 19.1638 384.072 18.5919 383.627 18.0895C383.182 17.5921 382.621 17.1942 381.939 16.8958C381.257 16.6024 380.458 16.4532 379.538 16.4532C377.83 16.4532 376.379 16.9605 375.192 17.9751C374.004 18.9898 373.347 20.2879 373.221 21.8795H384.906H384.911Z" fill="#DE133F"/>
<path d="M392.179 12.9019H398.355L403.106 28.987H403.202L408.095 12.9019H414.175L419.118 28.987H419.214L424.061 12.9019H430L422.115 35.3435H416.318L411.138 19.6364H411.042L405.911 35.3435H400.114L392.179 12.9019Z" fill="#DE133F"/>
<path d="M30.4114 27.4949C27.2677 30.5886 22.1528 30.5886 19.0141 27.4949L3.40151 12.136L0 15.4833L15.6075 30.8422C20.6264 35.7812 28.794 35.7812 33.8129 30.8422L43.9163 20.8997L40.5148 17.5524L30.4114 27.4949Z" fill="#DE133F"/>
<path d="M35.2382 13.3694C38.3819 10.2758 43.4968 10.2758 46.6355 13.3694L62.243 28.7284L65.6445 25.381L50.037 10.0221C45.0182 5.08317 36.8505 5.08317 31.8316 10.0221L21.7282 19.9646L25.1297 23.312L35.2331 13.3694H35.2382Z" fill="#FF9B2F"/>
</g>
<defs>
<clipPath id="clip0_1_63">
<rect width="430" height="36" fill="white"/>
</clipPath>
</defs>
</svg>
