<svg width="532" height="98" viewBox="0 0 532 98" fill="none" xmlns="http://www.w3.org/2000/svg">
<path d="M514.838 69.9212L509.175 68.6111C510.009 62.7595 514.223 59.2661 520.719 59.2661C527.567 59.2661 532 62.8905 532 68.4801C532 71.5369 530.683 74.0697 526.777 77.3448C523.133 80.3579 522.607 81.7553 522.563 85.8165H518.042V84.7685C518.042 80.4453 518.964 78.4802 522.08 75.3797C525.24 72.2356 526.074 70.7072 526.074 68.4801C526.074 65.5106 524.011 63.6329 520.763 63.6329C517.296 63.6329 515.101 65.9473 514.838 69.9212ZM517.164 90.0523H523.397V95.9476H517.164V90.0523Z" fill="#1F1F1F"/>
<path d="M467.959 70.0085C468.661 67.5194 468.969 65.991 469.276 64.5063C469.495 63.1962 469.715 61.4932 469.715 59.6591C471.997 60.1394 473.226 60.4451 474.982 61.1001C475.421 61.2311 475.684 61.5805 475.684 61.9735C475.684 62.1918 475.597 62.4102 475.377 62.6285C474.938 63.1962 474.719 63.6766 474.499 64.2879C473.929 66.0783 473.49 67.6941 472.919 69.5282C474.104 69.3971 475.421 69.3535 476.343 69.3535C480.469 69.3535 482.707 72.1483 482.707 77.4321C482.707 82.585 481.83 88.3056 480.337 91.4497C479.064 94.2445 476.957 95.5546 474.412 95.5546C472.305 95.5546 471.032 95.3799 470.066 95.0742C469.539 94.8995 469.276 94.5065 469.276 93.8515C469.144 92.4541 469.057 91.2314 468.442 89.7903C470.417 90.5327 471.91 90.751 473.27 90.751C474.719 90.751 475.377 90.227 476.08 88.4366C477.001 85.9912 477.791 81.8427 477.791 77.6068C477.791 74.5064 477.221 73.5457 475.289 73.5457C474.236 73.5457 472.875 73.6767 471.602 73.8513C468.705 82.2357 466.203 88.2619 462.78 94.3755C462.516 94.9432 462.165 95.0305 461.638 94.7685C460.848 94.3755 459.137 93.3275 458.61 92.8471C458.39 92.6288 458.259 92.4541 458.259 92.1921C458.259 92.0611 458.303 91.8864 458.434 91.7117C461.946 85.6418 464.228 81.013 466.467 74.5937C464.755 74.8557 463.35 75.1177 462.165 75.3361C461.024 75.5544 460.322 75.8164 459.751 76.0348C459.137 76.2531 458.61 76.1658 458.346 75.4671C457.951 74.4627 457.469 72.8906 456.986 70.9692C458.917 70.9692 460.848 70.8382 462.78 70.6635C464.623 70.4889 466.247 70.2705 467.959 70.0085ZM483.585 69.6592C484.683 68.9168 485.956 68.0434 487.141 67.4321C487.448 67.2574 487.667 67.3447 487.975 67.6504C490.959 70.4452 493.637 74.0697 495.261 78.2619C495.437 78.6549 495.393 78.8732 495.085 79.1352C494.339 79.8339 492.671 80.882 491.793 81.3186C491.355 81.537 490.916 81.4933 490.784 80.9693C489.028 76.3841 486.746 72.6286 483.585 69.6592Z" fill="#1F1F1F"/>
<path d="M422.529 79.6156L422.573 79.7029C424.329 78.2619 426.216 77.4758 427.928 77.4758C432.669 77.4758 433.854 81.537 434.337 85.7292C434.688 88.917 435.215 90.358 436.882 90.358C438.463 90.358 439.779 89.572 441.008 88.2619C442.545 86.6462 444.344 84.1134 445.442 81.144C446.32 83.1091 447.197 83.9824 447.988 84.7685C448.339 85.0741 448.47 85.3798 448.47 85.6855C448.47 85.9475 448.426 86.1659 448.295 86.4279C447.417 88.2619 445.968 90.2707 444.52 91.8428C442.325 94.2009 439.472 95.5109 436.444 95.5109C432.01 95.5109 430.123 93.1965 429.552 87.0392C429.157 82.6724 428.192 81.406 426.655 81.406C424.768 81.406 422.88 82.8034 421.125 85.1178C419.544 87.2139 417.701 90.7947 415.989 94.8122C415.726 95.4236 415.506 95.5109 414.936 95.3362C413.75 94.8559 412.565 94.2445 411.556 93.4585C411.292 93.2838 411.161 93.0655 411.161 92.8908C411.161 92.7161 411.249 92.4978 411.38 92.2794C417.789 79.7903 421.827 71.4496 424.241 65.991C425.514 63.1089 426.085 61.5805 426.436 59.6154C428.499 60.4451 430.167 61.2311 431.352 62.0608C431.747 62.3229 431.966 62.6285 431.966 62.9779C431.966 63.2399 431.791 63.5456 431.484 63.8513C430.957 64.4189 430.518 65.074 430.123 65.729C427.314 71.1002 424.943 75.6854 422.529 79.6156Z" fill="#1F1F1F"/>
<path d="M375.774 72.0609V67.3884C375.686 65.1613 375.598 64.4626 375.159 62.7595C377.354 62.9342 379.329 63.2399 380.427 63.5019C380.909 63.5892 381.348 64.0259 381.348 64.4189C381.348 64.7246 381.217 65.0303 381.085 65.336C380.822 65.991 380.69 66.5587 380.646 67.2574C380.602 68.3054 380.602 69.9648 380.558 71.4496C383.587 71.0566 388.24 70.5762 391.4 70.2269C391.444 68.0434 391.444 65.6853 391.444 64.0696C391.444 62.4102 391.312 60.7508 390.873 59.0914C393.551 59.3971 395.087 59.6154 396.184 59.9648C396.799 60.1394 397.018 60.3578 397.018 60.7945C397.018 61.1438 396.843 61.4932 396.755 61.6678C396.536 62.3665 396.36 62.8905 396.316 63.6329C396.228 65.991 396.184 67.6941 396.141 69.7465C399.696 69.4845 402.33 69.3535 404.7 69.2661C405.051 69.2661 405.227 69.3098 405.227 69.7028C405.27 70.8819 405.314 72.1046 405.227 73.2836C405.227 73.8513 405.139 73.895 404.656 73.895C401.759 73.895 398.818 74.026 395.921 74.2443C395.789 77.1265 395.658 79.2662 395.394 80.9693C394.911 84.3754 392.936 85.8165 389.644 85.8165C388.854 85.8165 387.845 85.8165 386.923 85.6855C386.221 85.6418 386.045 85.3361 386.045 84.5501C385.957 83.1091 385.694 82.0173 385.079 80.62C386.528 81.013 387.713 81.144 388.81 81.144C389.995 81.144 390.654 80.7946 390.873 79.2662C391.049 77.9125 391.137 76.3404 391.181 74.6374C387.669 74.8994 383.85 75.3361 380.47 75.8601C380.427 80.62 380.383 83.2401 380.558 85.7292C380.822 89.31 381.787 90.0087 387.142 90.0087C391.049 90.0087 395.263 89.6157 398.511 89.1353C399.169 89.0916 399.301 89.179 399.389 89.703C399.564 90.62 399.652 92.5415 399.652 93.3712C399.652 93.8952 399.476 94.1135 399.081 94.1572C397.062 94.4629 391.619 94.8122 388.064 94.8122C379.198 94.8122 376.608 92.9781 376.081 87.2576C375.862 84.8995 375.774 81.2313 375.774 76.6024C373.535 76.9081 372.131 77.1701 370.463 77.5195C369.98 77.6505 369.278 77.8252 368.488 78.1745C367.917 78.4365 367.61 78.2619 367.346 77.6942C366.82 76.6025 366.337 74.812 366.117 73.3273C367.039 73.3273 368.926 73.1526 370.814 72.8906C372.043 72.716 374.15 72.3229 375.774 72.0609Z" fill="#1F1F1F"/>
<path d="M338.684 84.8122C338.596 82.8907 338.508 81.1003 338.464 79.6156C335.436 79.7029 332.451 79.7029 329.422 79.4409C328.939 79.4409 328.764 79.2663 328.72 78.6986C328.544 77.7379 328.456 75.9911 328.456 74.9867C331.705 75.3798 335.04 75.4671 338.333 75.3361C338.289 73.6767 338.289 71.9736 338.245 70.3142C334.031 70.4452 330.871 70.4452 327.754 70.0959C327.271 70.0959 327.052 69.9212 327.008 69.4845C326.876 68.3928 326.788 67.3448 326.701 65.5544C330.519 65.991 334.338 65.991 338.201 65.991C338.201 64.3753 338.157 63.2399 338.113 61.7552C338.025 60.7508 337.937 59.9648 337.586 58.8294C339.913 58.9604 341.8 59.2224 343.117 59.6154C343.644 59.7901 343.907 60.4015 343.6 60.9255C343.292 61.5369 342.985 62.2792 342.941 63.0216C342.897 63.8949 342.897 64.5063 342.854 65.8164C346.936 65.5107 349.877 65.0303 352.466 64.5063C352.993 64.3753 353.169 64.5063 353.212 65.0303C353.388 66.2531 353.432 67.4321 353.432 68.2181C353.432 68.7858 353.3 68.8732 352.949 68.9168C349.833 69.4409 347.023 69.7902 342.81 70.0522C342.81 71.7989 342.854 73.4147 342.854 74.9867C346.189 74.7684 348.296 74.3317 351.457 73.8514C351.983 73.7204 352.115 73.8077 352.159 74.2007C352.203 75.0304 352.291 76.4715 352.291 77.7815C352.291 78.2182 352.115 78.3492 351.632 78.3929C348.735 78.8732 346.716 79.1789 343.029 79.4409C343.117 81.4497 343.205 83.5894 343.336 85.5982C347.55 86.7772 351.149 88.3493 354.968 90.8821C355.407 91.2751 355.407 91.4061 355.275 91.9301C354.968 92.7598 354.046 94.3756 353.344 95.1616C353.169 95.4236 352.993 95.5109 352.774 95.5109C352.642 95.5109 352.466 95.4673 352.291 95.2926C349.613 93.1965 346.892 91.6681 343.556 90.3144C343.512 95.0306 340.659 96.952 334.645 96.952C328.939 96.952 325.691 94.4629 325.691 90.8384C325.691 87.3013 329.159 84.6375 334.47 84.6375C335.567 84.6375 336.621 84.6375 338.684 84.8122ZM338.771 88.9607C337.499 88.655 335.918 88.4366 334.689 88.4366C331.485 88.4366 329.949 89.3537 329.949 90.7511C329.949 91.8865 331.266 92.7162 334.294 92.7162C336.05 92.7162 337.674 92.1921 338.289 91.4061C338.64 90.9257 338.771 90.1834 338.771 88.9607Z" fill="#1F1F1F"/>
<path d="M284.607 59.9648C286.626 60.1831 288.733 60.4014 290.093 60.7508C290.84 60.9255 291.147 61.1438 291.147 61.5805C291.147 62.0608 290.883 62.5849 290.708 63.0215C290.488 63.6329 290.313 64.9866 290.093 68.3491C289.654 75.0741 289.435 79.5282 289.435 85.2488C289.435 89.6593 289.962 90.6637 293.473 90.6637C297.38 90.6637 303.481 88.3056 308.836 82.6287C309.012 84.2881 309.407 85.7292 309.846 86.7772C310.065 87.2576 310.197 87.5632 310.197 87.8253C310.197 88.2183 310.021 88.5676 309.319 89.179C304.578 93.5022 298.389 95.7292 292.683 95.7292C287.065 95.7292 284.431 93.5022 284.431 86.8209C284.431 79.4846 284.826 73.1963 285.046 67.9561C285.133 65.3796 285.265 62.5849 284.607 59.9648Z" fill="#1F1F1F"/>
<path d="M252.696 79.3972V89.7467C252.696 91.3187 252.959 91.8864 253.925 92.2358C254.715 92.4978 255.856 92.5415 258.27 92.5415C260.509 92.5415 261.826 92.2794 262.792 91.4497C263.538 90.8384 263.933 88.9606 264.108 84.8121C265.03 85.5108 266.303 86.1659 267.488 86.6025C268.585 86.9956 268.542 86.9956 268.454 88.1309C268.147 92.4105 267.4 94.2882 265.908 95.3799C264.459 96.3843 261.826 96.8646 257.963 96.8646C253.837 96.8646 251.73 96.69 250.326 95.9913C248.877 95.2926 247.999 94.1572 247.999 91.2314V63.6766C247.999 61.2311 247.955 59.9648 247.736 58.611C249.492 58.6547 250.896 58.742 252.433 58.9167C253.003 58.9604 253.267 59.1351 253.267 59.4844C253.267 59.8338 253.135 60.0521 253.003 60.3141C252.784 60.7071 252.696 61.4058 252.696 63.2836V74.2007C255.505 72.454 258.095 70.4015 260.816 67.7814C261.694 66.9954 262.704 65.86 263.406 64.812C264.591 65.6853 265.864 66.7771 266.83 67.6941C267.181 68.0434 267.313 68.2618 267.313 68.5675C267.313 68.8731 267.005 69.1351 266.566 69.2662C266.084 69.4408 265.25 70.0522 264.284 70.9256C261.036 73.8077 257.173 76.7335 252.696 79.3972ZM235.972 90.7074V80.8383C235.972 79.1789 236.016 77.1701 236.06 75.2487C234.743 76.9518 233.427 78.5239 232.154 79.7903C231.715 80.1833 231.451 80.4453 231.188 80.4453C230.925 80.4453 230.749 80.1396 230.53 79.4846C230.179 78.3055 229.476 76.9081 228.862 75.9038C233.514 71.7553 236.806 67.0391 239.001 61.1438C239.396 60.1394 239.703 59.0914 239.879 58.087C241.591 58.5237 242.732 58.9167 244.137 59.4844C244.707 59.7028 244.883 59.8338 244.883 60.1394C244.883 60.4451 244.751 60.6635 244.488 60.8818C244.137 61.1438 243.873 61.6242 243.39 62.7595C242.6 64.6373 241.679 66.5587 240.625 68.3928V90.7074C240.625 94.9432 240.713 97.083 240.713 97.345C240.713 97.738 240.669 97.7817 240.23 97.7817H236.411C235.929 97.7817 235.885 97.738 235.885 97.345C235.885 97.0393 235.972 94.9432 235.972 90.7074Z" fill="#1F1F1F"/>
<path d="M200.462 65.336H190.367C186.373 65.336 185.056 65.4233 184.749 65.4233C184.31 65.4233 184.266 65.3796 184.266 64.943V61.9298C184.266 61.4495 184.31 61.4058 184.749 61.4058C185.056 61.4058 186.373 61.4931 190.367 61.4931H200.945C200.945 59.7464 200.901 58.6547 200.638 57.6066C202.262 57.6503 203.754 57.694 205.335 57.8687C205.73 57.9123 205.993 58.087 205.993 58.349C205.993 58.5674 205.861 58.8294 205.73 59.135C205.598 59.5281 205.554 60.0521 205.554 61.4931H216.44C220.434 61.4931 221.751 61.4058 222.014 61.4058C222.497 61.4058 222.541 61.4495 222.541 61.9298V64.943C222.541 65.3796 222.497 65.4233 222.014 65.4233C221.751 65.4233 220.434 65.336 216.44 65.336H202.789C203.316 65.6416 203.798 65.9037 204.237 66.2093C204.632 66.4713 204.764 66.6024 204.764 66.8644C204.764 67.039 204.545 67.2137 204.281 67.3447C203.974 67.4757 203.711 67.6941 203.359 68.1308C202.569 69.1351 201.691 70.1395 200.682 71.1439C201.428 71.7552 202.087 72.4103 202.701 72.978C203.754 71.8426 204.72 70.7072 205.598 69.7028C206.344 68.7858 206.827 68.0871 207.31 67.1264C208.319 67.6941 209.856 68.7421 210.514 69.3098C210.909 69.6591 210.997 69.7902 210.997 70.0085C210.997 70.2268 210.734 70.4015 210.426 70.5325C210.031 70.7509 209.724 71.0129 208.89 71.8862C206.827 74.2443 204.325 76.6898 201.823 78.8295C203.798 78.6985 205.905 78.4802 208.188 78.2182C207.793 77.5195 207.354 76.8208 206.915 76.1658C206.695 75.8164 206.695 75.7291 207.266 75.4671L209.329 74.3753C209.768 74.157 209.812 74.2443 210.031 74.5937C211.568 76.6461 212.84 79.1352 214.026 81.5807C214.201 81.9737 214.201 82.061 213.674 82.323L211.304 83.5894C210.821 83.8514 210.646 83.7641 210.47 83.24L209.68 81.275C206.52 81.7553 203.754 82.1047 201.077 82.3667C202.525 82.454 203.886 82.6287 205.291 82.7597C205.686 82.8034 205.949 82.978 205.949 83.2837C205.949 83.5894 205.861 83.6767 205.686 84.0261C205.51 84.4191 205.51 84.9868 205.51 85.9912H217.142C221.049 85.9912 222.365 85.9038 222.629 85.9038C223.068 85.9038 223.068 85.9475 223.068 86.3842V89.572C223.068 90.0087 223.068 90.0523 222.629 90.0523C222.365 90.0523 221.049 89.965 217.142 89.965H205.51V92.8908C205.51 95.8602 205.598 97.2576 205.598 97.5196C205.598 97.9563 205.554 98 205.115 98H201.34C200.901 98 200.857 97.9563 200.857 97.5196C200.857 97.2576 200.945 95.8602 200.945 92.8908V89.965H189.796C185.89 89.965 184.573 90.0523 184.31 90.0523C183.915 90.0523 183.871 90.0087 183.871 89.572V86.3842C183.871 85.9475 183.915 85.9038 184.31 85.9038C184.573 85.9038 185.89 85.9912 189.796 85.9912H200.945C200.945 84.3318 200.901 83.5021 200.682 82.4104C199.365 82.5414 198.092 82.6724 196.775 82.7597C196.029 82.847 195.502 83.0654 195.195 83.1964C194.976 83.2837 194.8 83.3711 194.537 83.3711C194.273 83.3711 194.142 83.1527 194.01 82.7597C193.747 81.7117 193.571 80.7073 193.439 79.5282C191.728 80.6636 190.016 81.6243 188.084 82.847C187.514 83.1527 186.987 83.5021 186.768 83.8077C186.592 84.0261 186.329 84.2444 186.109 84.2444C185.89 84.2444 185.67 84.1571 185.495 83.8514C184.924 82.716 184.266 81.1876 183.783 79.9649C184.88 79.6156 185.846 79.1789 186.68 78.7859C188.787 77.7815 191.376 76.4714 193.615 74.943C193.747 75.6417 194.054 76.4714 194.405 77.3448C194.581 77.8688 194.712 78.1745 194.712 78.3928C194.712 78.6985 194.537 78.8295 194.098 79.1352C194.844 79.1352 195.546 79.2225 196.336 79.1789C197.609 78.1308 198.794 76.9955 199.98 75.8601C198.268 74.2007 196.205 72.4103 194.098 70.8382C193.878 70.7072 193.791 70.5762 193.791 70.4889C193.791 70.3578 193.834 70.2705 194.01 70.0958L195.81 68.2181C196.205 67.7814 196.336 67.7377 196.688 67.9997L197.873 68.8731C198.531 68.0871 199.19 67.301 199.804 66.4713C200.023 66.1657 200.243 65.7727 200.462 65.336ZM212.621 76.8208L214.377 74.8557C214.684 74.4627 214.772 74.4627 215.167 74.681C218.108 76.3841 220.258 77.8252 222.848 80.0959C222.98 80.2706 223.068 80.3579 223.068 80.4889C223.068 80.6199 223.024 80.7509 222.848 80.9693L220.61 83.4147C220.39 83.6767 220.215 83.7641 220.039 83.7641C219.907 83.7641 219.776 83.6767 219.556 83.4584C217.405 81.1003 215.342 79.3535 212.621 77.6505C212.445 77.5195 212.314 77.4321 212.314 77.3011C212.314 77.1701 212.445 77.0391 212.621 76.8208ZM218.108 65.8163C219.337 66.7334 220.171 67.3447 221.268 68.3491C221.575 68.6548 221.619 68.8731 221.619 69.1351C221.619 69.3535 221.356 69.6155 220.961 69.7028C220.39 69.8338 219.995 70.0958 219.425 70.5325C218.152 71.5369 216.615 72.6286 215.035 73.633C214.508 73.9823 214.201 74.2007 213.938 74.2007C213.631 74.2007 213.411 73.9387 213.016 73.2836C212.533 72.4976 211.831 71.8862 211.26 71.3622C213.236 70.2268 214.772 69.0478 216.44 67.6504C216.923 67.2137 217.625 66.646 218.108 65.8163ZM185.407 68.3054L187.602 66.6024C188.041 66.253 188.128 66.253 188.436 66.5587C190.499 68.0871 192.43 69.9212 194.142 72.0172C194.405 72.3666 194.405 72.5413 193.878 72.9343L191.464 74.812C191.025 75.1614 190.806 75.1614 190.586 74.8557C188.918 72.4976 187.25 70.7072 185.275 69.0478C184.924 68.7421 184.968 68.6548 185.407 68.3054Z" fill="#1F1F1F"/>
<path d="M172.239 71.8862H167.937C167.542 76.7771 166.796 80.9256 165.699 84.1571C163.943 89.2663 161.309 93.2838 156.92 96.9083C156.349 97.345 156.086 97.5633 155.823 97.5633C155.603 97.5633 155.384 97.345 154.945 96.7773C154.155 95.7292 153.321 95.0742 152.443 94.5939C156.876 91.7991 160.036 87.5632 161.704 82.6724C162.582 80.0523 163.241 76.3404 163.592 71.8862C160.431 71.8862 159.334 71.9736 159.115 71.9736C158.632 71.9736 158.588 71.9299 158.588 71.4932V68.3054C158.588 67.8687 158.632 67.8251 159.115 67.8251C159.334 67.8251 160.431 67.9124 163.811 67.9124C163.855 66.7334 163.899 65.5107 163.899 64.2443C163.899 61.5368 163.811 60.1831 163.548 58.087C165.172 58.1307 166.533 58.218 168.069 58.349C168.508 58.4364 168.727 58.611 168.727 58.873C168.727 59.1787 168.552 59.6154 168.42 60.0521C168.288 60.6198 168.201 61.7115 168.201 64.3753C168.201 65.598 168.157 66.777 168.113 67.9124H171.185C174.741 67.9124 175.926 67.8251 176.189 67.8251C176.584 67.8251 176.672 67.9124 176.672 68.3491C176.628 69.8775 176.584 71.1439 176.584 72.4976C176.584 79.9649 176.189 87.2576 175.355 92.4104C174.829 95.8166 173.161 97.1703 169.825 97.1703C168.903 97.1703 168.025 97.1703 167.147 97.083C165.918 97.0393 165.918 97.0393 165.655 95.5982C165.479 94.5065 165.172 93.5022 164.645 92.5851C166.225 92.8471 167.718 92.9345 168.859 92.9345C170.22 92.9345 170.79 92.4541 171.142 90.227C171.8 86.0348 172.239 79.1352 172.239 71.8862ZM142.962 80.2269L144.805 78.4365C145.244 78.0435 145.376 77.9998 145.727 78.2619C146.824 79.0916 147.922 80.0086 149.019 80.9693L149.546 79.7029C150.029 78.4365 150.38 77.2138 150.511 75.8601C151.697 76.2531 153.496 76.9518 154.374 77.4758C154.813 77.6942 154.945 77.8688 154.945 78.1308C154.945 78.3929 154.769 78.6985 154.462 78.9606C154.067 79.3536 153.891 79.9213 153.54 80.8383C153.145 81.93 152.706 82.9344 152.223 83.9388C153.628 85.3361 154.901 86.7772 156.13 88.3056C156.437 88.6113 156.437 88.7423 156.042 89.1353L153.847 91.4934C153.628 91.7117 153.496 91.8428 153.365 91.8428C153.233 91.8428 153.101 91.7117 152.97 91.5371C152.092 90.3144 151.082 89.048 149.985 87.8253C147.746 91.1441 144.849 94.0262 141.25 96.4279C140.723 96.7773 140.46 96.952 140.24 96.952C139.933 96.952 139.758 96.6463 139.319 95.9476C138.748 95.0306 138.002 94.2882 137.343 93.7642C141.645 91.3624 144.805 88.3056 147.044 84.7248C145.683 83.3711 144.279 82.1047 142.918 80.9693C142.567 80.7073 142.611 80.5763 142.962 80.2269ZM152.838 67.8688H144.366C140.548 67.8688 139.275 67.9561 139.011 67.9561C138.572 67.9561 138.529 67.9124 138.529 67.4757V64.3316C138.529 63.8512 138.572 63.8076 139.011 63.8076C139.275 63.8076 140.548 63.8949 144.366 63.8949H146.693V62.4539C146.693 60.5324 146.693 59.3534 146.429 57.825C148.053 57.8687 149.37 57.956 150.819 58.1307C151.302 58.1743 151.565 58.349 151.565 58.5674C151.565 58.9167 151.389 59.1787 151.258 59.4844C151.038 60.0084 151.038 60.7071 151.038 62.4539V63.8949H152.838C156.657 63.8949 157.93 63.8076 158.193 63.8076C158.632 63.8076 158.676 63.8512 158.676 64.3316V67.4757C158.676 67.9124 158.632 67.9561 158.193 67.9561C157.93 67.9561 156.657 67.8688 152.838 67.8688ZM137.475 76.9955C139.845 74.9867 141.294 73.0216 142.391 70.8819C142.655 70.3142 142.874 69.6592 143.137 68.7421C144.235 69.1788 145.99 69.8338 146.737 70.3142C147.176 70.5325 147.395 70.7509 147.395 71.0129C147.395 71.2749 147.219 71.4059 146.912 71.6679C146.649 71.8862 146.254 72.5413 145.947 73.109C144.805 75.1177 143.445 77.0828 141.469 79.1789C140.987 79.6156 140.723 79.8776 140.504 79.8776C140.284 79.8776 140.065 79.6156 139.714 79.0916C139.099 78.1308 138.09 77.4321 137.475 76.9955ZM151.389 70.2268L153.979 69.0915C154.462 68.8731 154.55 68.8731 154.769 69.2661C156.042 71.7552 157.973 74.419 160.3 76.7335C159.51 77.2138 158.676 77.8688 157.93 78.6112C157.447 79.0916 157.183 79.3536 156.964 79.3536C156.7 79.3536 156.481 79.0916 156.042 78.5239C154.155 76.2094 152.311 73.371 151.038 70.9692C150.819 70.5325 150.907 70.4452 151.389 70.2268Z" fill="#1F1F1F"/>
<path d="M98.3658 61.1438C100.341 61.6242 101.746 62.0608 103.062 62.7595C103.809 63.1525 104.072 63.4146 104.072 63.8076C104.072 64.1133 103.984 64.2443 103.414 65.1176C102.975 65.9037 102.755 66.515 102.36 68.2181C101.131 73.633 100.517 79.0042 100.517 82.323C100.517 84.4628 100.604 85.9038 100.78 87.4322C101.702 85.4235 102.492 83.9824 103.765 80.9256C104.116 82.0173 104.686 82.716 105.301 83.6767C105.433 83.8951 105.608 84.1571 105.608 84.3318C105.608 84.6374 105.52 84.8121 105.389 85.0305C104.379 87.3012 103.545 89.179 102.887 91.6244C102.799 91.8864 102.755 92.3668 102.755 92.9781C102.755 93.5021 102.843 93.8515 102.843 94.2008C102.843 94.5065 102.667 94.6812 102.272 94.7685C101.175 95.0742 99.9459 95.3362 98.673 95.4672C98.3658 95.5109 98.1902 95.2926 98.1024 94.9869C96.8734 91.9301 96.0833 86.3842 96.0833 81.9737C96.0833 78.0435 96.5661 73.2836 97.5757 67.6504C98.1463 64.4189 98.3658 62.9779 98.3658 61.1438ZM108.461 83.6767L112.456 83.3274C112.807 83.2837 112.895 83.5021 112.895 83.9824C113.158 86.9955 115.265 88.0873 120.049 88.0873C123.341 88.0873 125.492 87.8689 128.433 87.5196C128.872 87.4759 128.96 87.5196 129.047 88.0873C129.179 89.0043 129.311 90.7074 129.311 91.8427C129.311 92.3668 129.311 92.4104 128.565 92.4978C125.58 92.8471 123.473 92.9781 121.41 92.9781C114.914 92.9781 111.885 91.9301 109.998 89.3536C108.9 87.9562 108.461 85.7292 108.461 83.6767ZM109.866 71.2749C109.91 68.8295 109.91 67.7377 109.998 66.9954C110.041 66.4713 110.173 66.3403 110.612 66.253C113.202 65.7727 118.118 65.467 120.137 65.467C122.771 65.467 124.79 65.5543 126.633 65.729C127.555 65.7727 127.643 65.86 127.643 66.2967C127.643 67.6067 127.643 68.7858 127.555 70.0085C127.511 70.4015 127.379 70.5762 126.984 70.5325C124.351 70.3579 122.068 70.2705 119.83 70.2705C116.889 70.2705 114.036 70.5325 109.866 71.2749Z" fill="#1F1F1F"/>
<path d="M56.8862 64.8556H58.3786C61.4951 64.8556 62.5046 64.7683 62.8119 64.7683C63.2508 64.7683 63.2947 64.812 63.2947 65.2486C63.2947 65.467 63.2069 66.9954 63.2069 71.2749C66.06 67.9124 67.728 64.4189 68.8253 61.4058C69.1765 60.2704 69.4837 59.0477 69.6593 57.694C71.3272 57.9997 73.2147 58.4364 74.0048 58.742C74.5754 58.9167 74.9265 59.1351 74.9265 59.4407C74.9265 59.7901 74.8826 59.9211 74.4876 60.3141C74.1364 60.6198 73.7414 61.3185 73.3025 62.5412C72.9952 63.3709 72.6441 64.1569 72.2929 64.943H80.501C83.6614 64.943 84.6709 64.8556 84.9343 64.8556C85.3732 64.8556 85.461 64.943 85.461 65.3796C85.3732 66.6024 85.3732 67.7814 85.3732 69.0041C85.3293 79.0479 85.0221 85.3798 84.1003 91.1441C83.398 95.5982 81.5984 97.6943 77.4724 97.7817C76.5067 97.7817 75.2777 97.8253 74.1364 97.738C72.8635 97.6507 72.8635 97.6507 72.5563 96.2533C72.249 95.0742 71.7662 93.7642 71.2834 92.8908C73.6536 93.2401 75.146 93.3712 76.9017 93.3275C78.4819 93.3275 79.2281 91.8864 79.667 89.572C80.501 84.8558 80.7644 78.0872 80.7644 69.0041H70.3177C69.2642 70.8382 68.0352 72.6723 66.5867 74.4627C66.1478 74.9867 65.8844 75.2487 65.665 75.2487C65.4455 75.2487 65.226 74.9867 64.7432 74.4627C64.2604 73.9823 63.7336 73.502 63.2069 73.109V82.1484C63.2069 92.3231 63.2947 94.2445 63.2947 94.5065C63.2947 94.9432 63.2508 94.9869 62.8119 94.9869H59.4321C58.9931 94.9869 58.9492 94.9432 58.9492 94.5065V92.4104H52.6724V95.7293C52.6724 96.2096 52.6285 96.2533 52.1457 96.2533H48.8098C48.3708 96.2533 48.327 96.2096 48.327 95.7293C48.327 95.4672 48.4147 93.4148 48.4147 82.8034V75.2487C48.4147 67.6504 48.327 65.5543 48.327 65.2486C48.327 64.812 48.3708 64.7683 48.8098 64.7683C49.0731 64.7683 49.9949 64.8556 52.5407 64.8556C53.0675 63.3272 53.5942 61.6678 53.9014 60.2704C54.077 59.4407 54.1648 58.7857 54.2526 57.7813C55.8328 57.956 57.4568 58.218 58.7737 58.48C59.1687 58.5674 59.3882 58.7857 59.3882 59.0477C59.3882 59.3534 59.3004 59.4844 58.9931 59.7464C58.7298 59.9648 58.5103 60.3578 58.3786 60.7071C57.8958 62.0172 57.4129 63.5019 56.8862 64.8556ZM52.6724 88.4803H58.9492V80.4016H52.6724V88.4803ZM58.9492 68.7421H52.6724V76.4714H58.9492V68.7421ZM67.9474 76.3841L70.3616 74.812C70.581 74.681 70.7127 74.5937 70.8444 74.5937C70.9322 74.5937 71.02 74.681 71.1956 74.8557C73.3464 77.1701 75.1899 80.1833 76.5945 82.9344C76.814 83.3711 76.7701 83.5021 76.2433 83.8514L73.5219 85.7292C73.3025 85.9038 73.1708 85.9912 73.083 85.9912C72.9513 85.9912 72.8635 85.8602 72.7757 85.5982C71.3272 82.4104 69.6593 79.6592 67.6402 77.1701C67.3768 76.8208 67.4207 76.7335 67.9474 76.3841Z" fill="#1F1F1F"/>
<path d="M15.4506 69.7029L15.9334 69.6592C18.3915 69.5282 19.401 69.3098 19.84 69.3098C20.1033 69.3098 20.1911 69.3535 20.1911 69.6155L20.3228 71.5806C20.3228 71.8863 20.235 71.9736 19.8839 71.9736C19.6644 71.9736 18.7865 72.0173 16.1529 72.1919L15.4506 72.2356V72.7596C15.4506 73.1963 15.5384 73.4147 15.8895 73.5457C16.1968 73.6767 16.7235 73.7203 18.5231 73.7203C20.5423 73.7203 21.1568 73.5893 21.6835 73.2837C22.1663 72.978 22.3858 72.4103 22.5614 71.6243C23.3076 72.1046 24.0099 72.4103 24.9755 72.6723C25.9412 72.9343 26.029 73.0217 25.8534 73.8077C25.6778 74.5937 25.1072 75.3798 24.4488 75.7291C23.5709 76.2531 22.2102 76.3841 18.6109 76.3841C15.2311 76.3841 13.6948 76.2531 12.9048 75.9038C11.983 75.5108 11.8513 74.7684 11.8513 73.633V72.454C9.65662 72.6286 8.82264 72.8033 8.64707 72.8033C8.4276 72.8033 8.38371 72.8033 8.33981 72.4976L8.16424 70.4015C8.12034 70.0959 8.16424 70.0522 8.47149 70.0522C8.64707 70.0522 9.48105 70.0959 11.8513 69.9212V68.0434H7.41804V71.7116C7.41804 76.9955 7.28636 81.144 6.75964 85.2052C6.27681 89.0043 5.44283 92.4978 3.86266 96.0786C3.59929 96.6026 3.42372 96.8647 3.20425 96.8647C3.02868 96.8647 2.80921 96.69 2.58974 96.3843C1.71187 95.1179 0.965673 94.3319 0.0877991 93.6768C1.71187 90.358 2.54585 87.4323 3.02868 83.2838C3.37983 80.227 3.46761 76.1658 3.46761 71.6679C3.46761 67.6068 3.37983 65.729 3.37983 65.467C3.37983 64.9866 3.42372 64.943 3.90655 64.943C4.16991 64.943 5.83787 65.0303 9.52494 65.0303H11.6318V61.6678C11.6318 59.8774 11.5879 59.0477 11.3685 57.9997C13.0364 58.0434 14.0899 58.1307 15.714 58.2617C16.109 58.3054 16.3285 58.4364 16.3285 58.6547C16.3285 58.9604 16.1968 59.0914 16.0651 59.3971C15.9773 59.6154 15.8895 59.9211 15.8456 60.5325H19.401C22.7369 60.5325 23.966 60.4451 24.2293 60.4451C24.6683 60.4451 24.7122 60.4888 24.7122 60.9255V62.8906C24.7122 63.3272 24.6683 63.3709 24.2293 63.3709C23.966 63.3709 22.7369 63.2836 19.401 63.2836H15.8456V65.0303H22.3858C22.8247 65.0303 23.0003 64.9867 23.3076 64.8556C23.4831 64.7683 23.6148 64.681 23.7904 64.681C24.0976 64.681 24.6244 64.943 25.3706 65.598C26.5996 66.6461 26.7752 66.8644 26.7752 67.1701C26.7752 67.5194 26.6874 67.7378 26.424 67.9561C26.1168 68.2181 25.9412 68.4365 25.6778 69.0478C25.4145 69.5718 25.0633 70.2705 24.7122 70.8382C24.4927 71.1876 24.361 71.3623 24.0976 71.3623C23.9221 71.3623 23.7026 71.2749 23.3076 71.1439C22.3858 70.7509 21.5518 70.4889 20.7617 70.3579C21.3323 69.5282 21.6835 68.9605 22.1224 68.0434H15.4506V69.7029ZM17.5136 91.2314V90.8384C14.7044 93.0218 11.5441 94.6376 8.38371 95.9039C7.90087 96.0786 7.59362 96.2096 7.37415 96.2096C7.11079 96.2096 7.023 95.9913 6.80353 95.5546C6.3646 94.5939 5.92566 93.9389 5.39894 93.4148C9.7883 92.0174 13.7387 90.3144 17.0308 87.7379C16.8991 87.3449 16.8113 86.9956 16.6357 86.6462C14.2655 88.4803 12.0269 89.572 9.43715 90.5764C8.99822 90.7511 8.73485 90.8384 8.55928 90.8384C8.29592 90.8384 8.20813 90.6637 8.03256 90.3144C7.59362 89.441 7.15468 88.786 6.62796 88.3056C9.91999 87.2139 12.7292 85.9912 15.275 84.1571C15.0994 83.8951 14.9678 83.6331 14.7483 83.4148C13.1681 84.2881 11.5879 85.0305 9.91998 85.6855C9.43715 85.8602 9.17379 85.9475 8.99822 85.9475C8.69096 85.9475 8.60317 85.7729 8.4276 85.3798C8.03256 84.5065 7.63751 83.8951 7.15468 83.3274C10.1395 82.4977 12.5536 81.668 14.6605 80.489H13.212C10.4028 80.489 8.99822 80.5763 8.73486 80.5763C8.29592 80.5763 8.25202 80.5326 8.25202 80.1396V77.8689C8.25202 77.5632 8.29592 77.5195 8.73486 77.5195C8.99822 77.5195 10.4028 77.6068 13.212 77.6068H20.8056C23.7026 77.6068 24.9755 77.5195 25.2828 77.5195C25.7217 77.5195 25.7656 77.5632 25.7656 77.9125V80.1833C25.7656 80.5326 25.7217 80.5763 25.2828 80.5763C24.9755 80.5763 23.7026 80.489 20.8056 80.489H19.0499L17.2502 81.8427C18.172 82.8471 18.9182 83.9388 19.5327 85.1178C20.4545 84.3318 21.4201 83.4148 22.0346 82.6287C22.4297 82.1047 22.7369 81.5807 23.132 80.882C24.0538 81.3623 24.9755 81.93 25.7656 82.4977C26.1168 82.7597 26.2923 82.9781 26.2923 83.2401C26.2923 83.5021 26.1168 83.7204 25.8095 83.8514C25.4145 83.9824 25.0194 84.3755 24.4488 84.9431C23.5709 85.7729 22.7808 86.5152 21.8591 87.2139C23.6148 89.3973 25.4145 90.7074 28.2237 92.3668C27.4336 93.1092 26.8629 93.8079 26.4679 94.6812C26.2045 95.2489 25.9851 95.5109 25.7656 95.5109C25.5461 95.5109 25.3267 95.2926 24.9316 94.9869C23.3076 93.7205 22.0785 92.2795 20.9373 90.5764V91.1004C20.9373 95.2926 20.235 97.6507 16.2407 97.6507C15.6701 97.6507 15.1433 97.6507 14.3971 97.5633C13.6509 97.476 13.5193 97.5197 13.4754 96.7336C13.4315 95.9476 13.1242 94.8122 12.7292 93.9825C14.0899 94.2445 14.9678 94.3319 15.714 94.3319C17.1185 94.3319 17.5136 93.8079 17.5136 91.2314ZM39.7677 64.812V83.2401C39.7677 86.2969 39.8555 89.7467 39.8555 91.9301C39.8555 94.0699 39.636 95.2489 38.3192 96.2096C37.1341 97.083 35.5978 97.3013 32.218 97.3013C30.9012 97.3013 30.9012 97.2577 30.5939 95.9039C30.2867 94.6376 29.8038 93.5022 29.1893 92.6288C30.9451 92.8035 32.218 92.8472 33.447 92.8472C34.8955 92.8472 35.4222 92.4978 35.4222 91.1004V64.8993C35.4222 62.0609 35.3783 60.7071 35.0711 58.6547C36.6951 58.6984 38.0997 58.7857 39.636 58.9604C40.0311 59.0041 40.2944 59.2224 40.2944 59.4408C40.2944 59.8338 40.1627 60.0958 40.0311 60.4015C39.7677 60.9255 39.7677 61.8425 39.7677 64.812ZM28.1359 80.3143V68.3055C28.1359 65.4233 28.1359 63.8949 27.8286 61.8425C29.4527 61.8862 30.6817 61.9735 32.1741 62.1482C32.613 62.1919 32.7886 62.3665 32.7886 62.6285C32.7886 62.9342 32.613 63.2836 32.5252 63.5893C32.3497 64.2006 32.3497 65.074 32.3497 68.2618V80.3143C32.3497 84.0261 32.4374 85.8165 32.4374 86.0785C32.4374 86.5589 32.3936 86.6026 31.9546 86.6026H28.5309C28.092 86.6026 28.0481 86.5589 28.0481 86.0785C28.0481 85.8165 28.1359 84.0261 28.1359 80.3143Z" fill="#1F1F1F"/>
<path d="M390.357 23.5373V30.568C390.357 31.0483 390.094 31.2667 389.523 31.354C388.953 31.4413 387.636 31.5723 386.407 31.5723C386.012 31.5723 385.836 31.3103 385.836 30.8736C385.836 29.3016 385.836 27.1181 385.88 25.5461C381.973 27.5548 380.569 29.2579 380.569 31.354C380.569 33.1881 382.061 34.3671 386.67 34.3671C390.708 34.3671 394.22 33.9741 397.6 33.4937C397.995 33.4501 398.17 33.5811 398.214 33.9741C398.434 34.9785 398.609 36.5069 398.609 37.5549C398.653 38.0789 398.477 38.3846 398.126 38.3846C394.351 38.865 391.498 38.9523 387.241 38.9523C380.042 38.9523 376.223 36.8126 376.223 31.747C376.223 27.5548 378.857 24.498 385.485 21.0919C385.353 18.8648 384.827 17.9914 382.851 18.0788C380.788 18.1661 378.813 19.4762 376.794 21.2229C374.907 23.057 373.809 24.3234 372.405 25.9828C372.185 26.2448 372.053 26.3758 371.878 26.3758C371.746 26.3758 371.571 26.2448 371.395 26.0701C370.781 25.4587 369.464 24.105 368.893 23.188C368.761 23.0133 368.718 22.8823 368.718 22.795C368.718 22.6203 368.805 22.4893 369.025 22.3146C372.405 19.3015 375.653 15.8517 378.199 11.4848C376.136 11.5722 373.765 11.6158 371.176 11.6158C370.781 11.6158 370.649 11.3975 370.561 10.9171C370.429 10.2184 370.254 8.6027 370.122 7.29265C373.458 7.46732 376.882 7.42365 380.218 7.24898C380.701 6.06993 381.096 5.02189 381.534 3.49349C381.71 2.75113 381.842 2.00876 381.842 0.829712C383.773 1.13539 385.704 1.61574 386.846 2.05243C387.197 2.18344 387.372 2.48911 387.372 2.79479C387.372 3.01314 387.285 3.27515 387.065 3.44982C386.802 3.66816 386.538 4.06118 386.319 4.49787C386.056 5.10922 385.836 5.67691 385.309 6.85596C387.987 6.55029 390.664 6.1136 393.298 5.50224C393.781 5.4149 393.912 5.54591 394 5.93893C394.22 6.8123 394.395 7.81667 394.439 9.08306C394.483 9.51974 394.308 9.69442 393.693 9.78175C390.401 10.2621 386.626 10.7425 383.422 11.0918C382.412 12.7075 381.447 14.3233 380.13 15.939L380.174 16.0263C381.578 15.1093 383.378 14.6726 384.563 14.6726C387.46 14.6726 389.479 15.9827 389.918 19.3888C391.63 18.6028 394.132 17.4674 396.371 16.332C397.205 15.8953 398.609 15.1093 399.706 13.9739C401.155 15.5023 402.296 17.0307 402.779 17.8168C403.042 18.2098 403.13 18.5155 403.13 18.7775C403.13 19.1268 402.911 19.3015 402.472 19.3888C401.55 19.5198 400.672 19.7382 399.794 20.0438C396.941 21.0482 394.088 22.0089 390.357 23.5373Z" fill="#1F1F1F"/>
<path d="M353.355 28.2535H347.824C346.244 33.4937 342.864 37.1619 337.641 39.6947C337.114 39.913 336.807 40.044 336.587 40.044C336.236 40.044 336.061 39.782 335.622 39.0396C335.095 38.0789 334.349 37.2056 333.559 36.5505C338.211 35.0221 341.679 32.4894 343.347 28.2535H342.601C338.694 28.2535 337.421 28.3408 337.158 28.3408C336.675 28.3408 336.631 28.2972 336.631 27.8605V25.022C336.631 24.5417 336.675 24.498 337.158 24.498C337.421 24.498 338.694 24.5854 342.601 24.5854H344.269C344.357 24.0613 344.4 23.4936 344.444 22.8823C344.488 22.2273 344.444 21.4849 344.4 20.6552C343.303 21.0919 342.162 21.4849 341.021 21.7906C340.011 22.0526 339.967 22.0089 339.572 21.0045C339.221 20.2185 338.782 19.4325 338.387 18.8648C337.904 20.3058 337.377 21.5722 336.456 23.2316C336.061 23.8867 335.929 24.1487 335.71 24.1487C335.534 24.1487 335.314 24.0177 334.919 23.7993C334.042 23.319 333.032 22.926 332.33 22.7513C333.427 21.0919 333.998 19.7818 334.568 18.3844H332.066V29.7382C332.066 31.7033 332.198 33.4937 332.198 35.2405C332.198 37.0746 331.935 38.0353 330.793 38.996C330.003 39.6073 328.906 39.8693 325.614 39.8693C324.297 39.8693 324.297 39.8257 323.99 38.5156C323.727 37.4239 323.331 36.4195 322.805 35.7208C324.165 35.8955 325.219 35.9392 326.404 35.9392C327.633 35.9392 327.94 35.5898 327.94 34.6728V26.9871C327.94 25.6334 327.94 24.2797 327.984 22.926C326.887 25.9391 325.351 28.9085 322.849 31.9217C322.454 32.3583 322.19 32.6204 321.927 32.6204C321.664 32.6204 321.444 32.3583 321.137 31.7907C320.654 30.8736 319.952 30.0003 319.337 29.4762C322.366 26.6378 324.868 22.3146 326.404 18.3844H325.921C322.234 18.3844 321.005 18.4718 320.742 18.4718C320.303 18.4718 320.259 18.4281 320.259 17.9477V15.0656C320.259 14.5853 320.303 14.5416 320.742 14.5416C321.005 14.5416 322.234 14.6289 325.921 14.6289H328.335C326.799 13.1442 325.175 11.9215 323.375 10.5678C323.2 10.4368 323.068 10.3058 323.068 10.2184C323.068 10.0874 323.2 10.0001 323.419 9.78174L325.219 8.25334C325.658 7.86033 325.79 7.86033 326.185 8.12234L328.818 10.0001C330.047 8.7337 331.145 7.51098 332.198 6.02625H326.58C323.112 6.02625 321.971 6.11359 321.707 6.11359C321.269 6.11359 321.225 6.06992 321.225 5.63324V2.4891C321.225 2.05242 321.269 2.00875 321.707 2.00875C321.971 2.00875 323.112 2.09609 326.58 2.09609H334.173C334.568 2.09609 334.876 2.00875 335.051 1.92141C335.271 1.83408 335.446 1.74674 335.666 1.74674C336.017 1.74674 336.412 2.00875 337.334 2.96946C338.343 4.0175 338.519 4.41052 338.519 4.8472C338.519 5.19655 338.255 5.45856 337.904 5.6769C337.509 5.98258 337.158 6.3756 336.675 6.98696C335.227 8.90837 333.734 10.6988 331.759 12.4892C332.11 12.8385 332.461 13.2316 332.856 13.5809C333.164 13.8866 333.164 14.0176 332.681 14.4106L332.418 14.6289H335.183C335.622 14.6289 335.753 14.5853 336.017 14.4543C336.192 14.3669 336.368 14.3233 336.587 14.3233C336.851 14.3233 337.29 14.5416 338.124 15.3276C339.177 16.2883 339.397 16.725 339.397 17.118C339.397 17.4237 339.309 17.5984 338.958 17.9041C338.826 17.9914 338.738 18.0788 338.65 18.2098C341.46 17.5547 343.962 16.6377 346.025 15.3713C344.708 14.1049 343.523 12.6639 342.601 11.1791L340.757 13.2752C340.406 13.6682 340.187 13.8429 339.923 13.8429C339.704 13.8429 339.484 13.6682 339.177 13.2752C338.475 12.4455 337.465 11.7032 336.675 11.2665C339.748 8.64636 341.723 5.76424 343.128 2.83845C343.61 1.83408 343.918 0.960707 344.093 0C345.366 0.218342 347.034 0.611359 348.131 0.873369C348.526 0.960707 348.746 1.13538 348.746 1.44106C348.746 1.70307 348.57 1.92141 348.307 2.09609C348.044 2.27076 347.693 2.79478 347.429 3.31881C347.21 3.75549 347.034 4.19218 346.815 4.58519H354.277C357.7 4.58519 358.798 4.49785 359.061 4.49785C359.5 4.49785 359.544 4.54152 359.544 4.97821V7.81666C359.544 8.25334 359.5 8.29701 359.061 8.29701C358.842 8.29701 358.139 8.25334 356.34 8.20968C355.418 11.0045 354.013 13.3626 352.301 15.284C354.672 16.725 357.525 17.7294 360.773 18.1661C360.158 19.0395 359.632 20.1312 359.28 21.2229C358.754 22.5329 358.754 22.5329 357.437 22.1836C354.496 21.2666 351.687 19.8692 349.185 18.0351C347.956 18.9085 346.683 19.6508 345.322 20.2622C346.463 20.3495 347.605 20.4805 348.658 20.6115C349.185 20.6989 349.448 20.8735 349.448 21.1355C349.448 21.4849 349.317 21.7032 349.097 22.0089C348.878 22.3146 348.79 22.795 348.702 23.7993L348.57 24.5854H351.819C355.769 24.5854 357.13 24.498 357.393 24.498C357.832 24.498 357.92 24.629 357.92 25.0657L357.744 27.7295C357.481 32.009 357.261 34.7601 356.296 36.6379C355.506 38.4283 354.233 39.6073 351.38 39.6073C350.633 39.6073 349.799 39.6073 348.878 39.5637C347.649 39.4763 347.649 39.4763 347.341 38.0353C347.122 37.0309 346.771 36.1138 346.376 35.2841C347.649 35.5025 348.922 35.6772 350.151 35.6772C351.248 35.6772 351.819 35.5025 352.257 34.7601C352.872 33.7121 353.135 31.354 353.355 28.2535ZM351.906 8.20968H345.41C346.332 9.95641 347.561 11.5285 349.053 12.9259C350.282 11.6158 351.248 10.0438 351.906 8.20968Z" fill="#DE133F"/>
<path d="M288.041 29.5636H280.93C276.98 29.5636 275.663 29.6509 275.4 29.6509C274.917 29.6509 274.873 29.6072 274.873 29.1705V26.5941C274.873 26.1137 274.917 26.0701 275.4 26.0701C275.663 26.0701 276.98 26.1574 280.93 26.1574H291.772V23.7993H285.583C281.325 23.7993 279.789 23.8867 279.526 23.8867C279.087 23.8867 279.087 23.843 279.087 23.4063V20.9172C279.087 20.4368 279.087 20.3932 279.526 20.3932C279.789 20.3932 281.325 20.4805 285.583 20.4805H291.772V18.1661H283.52C279.306 18.1661 277.902 18.2534 277.638 18.2534C277.155 18.2534 277.111 18.2097 277.111 17.8167V15.2403C277.111 14.8036 277.155 14.7599 277.638 14.7599C277.902 14.7599 279.306 14.8473 283.52 14.8473H286.197C285.715 13.7992 285.276 12.9259 284.793 12.0962C284.573 11.7031 284.53 11.5285 285.1 11.3538L287.953 10.5678H280.93C276.98 10.5678 275.663 10.6551 275.4 10.6551C274.917 10.6551 274.873 10.6114 274.873 10.1747V7.4673C274.873 6.98695 274.917 6.94327 275.4 6.94327C275.663 6.94327 276.98 7.03061 280.93 7.03061H281.237C280.535 5.63322 279.745 4.54151 278.736 3.27512C278.472 2.96944 278.56 2.79477 279.087 2.53276L281.633 1.35371C282.071 1.13537 282.203 1.17904 282.466 1.52838C283.52 2.79477 284.617 4.2795 285.407 5.76423C285.627 6.15724 285.627 6.20091 285.056 6.50659L284.003 7.03061H288.085V4.14849C288.085 2.6201 288.085 1.57205 287.822 0.349335C289.182 0.393003 290.894 0.480338 292.079 0.611345C292.43 0.655013 292.606 0.78602 292.606 1.00436C292.606 1.26637 292.518 1.48471 292.43 1.74673C292.299 2.0524 292.167 2.70743 292.167 4.14849V7.03061H295.722V4.19216C295.722 2.6201 295.722 1.57205 295.459 0.349335C296.776 0.393003 298.488 0.480338 299.673 0.655013C300.068 0.698681 300.243 0.829688 300.243 1.04803C300.243 1.26637 300.156 1.52838 300.068 1.74673C299.936 2.0524 299.805 2.70743 299.805 4.14849V7.03061H302.526C303.316 5.8079 303.931 4.71618 304.545 3.4498C304.852 2.79477 305.116 2.13974 305.291 1.0917C306.827 1.39738 308.364 1.83406 309.549 2.22708C309.944 2.35809 310.12 2.57643 310.12 2.79477C310.12 3.14412 309.944 3.31879 309.681 3.53714C309.373 3.79915 309.154 4.06116 308.934 4.36684C308.364 5.28387 307.749 6.15725 307.135 7.03061H307.749C311.7 7.03061 313.017 6.94327 313.28 6.94327C313.719 6.94327 313.763 6.98695 313.763 7.4673V10.1747C313.763 10.6114 313.719 10.6551 313.28 10.6551C313.017 10.6551 311.7 10.5678 307.749 10.5678H300.068C301.209 10.7861 302.219 11.0044 303.535 11.3538C303.887 11.4411 304.106 11.6158 304.106 11.8778C304.106 12.1835 303.887 12.4018 303.623 12.5328C303.404 12.6638 303.184 13.1442 303.009 13.4499L302.219 14.8473H305.072C309.286 14.8473 310.69 14.7599 310.953 14.7599C311.392 14.7599 311.436 14.8036 311.436 15.2403V17.8167C311.436 18.2097 311.392 18.2534 310.953 18.2534C310.69 18.2534 309.286 18.1661 305.072 18.1661H296.205V20.4805H303.184C307.486 20.4805 308.978 20.3932 309.242 20.3932C309.681 20.3932 309.724 20.4368 309.724 20.9172V23.4063C309.724 23.843 309.681 23.8867 309.242 23.8867C308.978 23.8867 307.486 23.7993 303.184 23.7993H296.205V26.1574H307.749C311.7 26.1574 313.017 26.0701 313.28 26.0701C313.719 26.0701 313.763 26.1137 313.763 26.5941V29.1705C313.763 29.6072 313.719 29.6509 313.28 29.6509C313.017 29.6509 311.7 29.5636 307.749 29.5636H299.936C303.623 32.14 308.232 33.8431 314.553 35.2405C313.982 35.9392 313.368 36.8562 312.841 38.0352C312.49 38.8649 312.314 39.1706 311.875 39.1706C311.656 39.1706 311.349 39.0833 310.866 38.9523C304.94 37.2492 299.717 34.3671 296.117 31.1356C296.117 36.3322 296.337 39.0396 296.337 39.782C296.337 40.2187 296.293 40.2623 295.854 40.2623H292.123C291.728 40.2623 291.684 40.2187 291.684 39.782C291.684 39.0396 291.816 36.5068 291.86 31.3103C288.173 34.8038 283.608 37.2492 277.77 39.127C277.287 39.3016 276.98 39.389 276.76 39.389C276.365 39.389 276.19 39.0833 275.795 38.2536C275.224 37.1182 274.61 36.2012 274.039 35.6335C279.877 34.1924 284.354 32.402 288.041 29.5636ZM290.675 14.8473H297.873C298.268 14.1049 298.619 13.3625 299.058 12.3145C299.278 11.8341 299.366 11.3975 299.541 10.5678H288.348C288.48 10.6114 288.568 10.7424 288.699 10.9171C289.358 12.0088 290.06 13.3189 290.675 14.8473Z" fill="#DE133F"/>
<path d="M255.252 23.3626H239.451C235.105 23.3626 233.437 23.8866 232.998 23.8866C232.472 23.8866 232.12 23.6246 231.989 22.9696C231.769 21.9652 231.506 19.9128 231.33 17.6857C234.183 18.1224 236.378 18.2097 240.811 18.2097H254.945C258.281 18.2097 261.661 18.1224 265.041 18.0787C265.699 18.0351 265.831 18.1661 265.831 18.6901C265.919 20.0001 265.919 21.4849 265.831 22.7949C265.831 23.3189 265.655 23.4936 265.041 23.45C261.749 23.4063 258.501 23.3626 255.252 23.3626Z" fill="#DE133F"/>
<path d="M209.559 31.223H211.622C213.378 31.223 215.309 31.1793 216.977 31.1793C217.723 31.1356 217.899 31.2666 217.943 31.9653C217.987 32.795 217.987 33.8867 217.943 34.7164C217.899 35.5461 217.767 35.5898 217.109 35.5898C215.134 35.5898 213.027 35.5461 211.008 35.5461H194.855C193.055 35.5461 191.343 35.5461 189.192 35.6335C188.71 35.6335 188.534 35.4151 188.446 34.7601C188.271 33.8431 188.227 32.4457 188.227 31.0919C190.729 31.2666 192.353 31.2666 194.547 31.2666H204.731L206.223 20.6552H199.156C197.444 20.6552 195.469 20.7425 194.328 20.7862C193.801 20.8298 193.626 20.6988 193.538 19.9565C193.406 19.0394 193.318 17.642 193.231 16.201C196.172 16.332 197.488 16.4193 199.332 16.4193H205.389C206.969 16.4193 207.364 16.2883 207.979 16.0263C208.154 15.8953 208.33 15.8516 208.462 15.8516C208.681 15.8516 208.901 15.9826 209.12 16.1136C209.91 16.6813 211.095 17.642 211.798 18.5154C212.061 18.7774 212.193 19.0394 212.193 19.3015C212.193 19.5635 212.061 19.8255 211.798 20.0875C211.227 20.6988 211.095 21.1792 210.92 22.2709L209.559 31.223Z" fill="#DE133F"/>
<path d="M152.83 10.9171V16.9871C156.692 15.7207 160.028 14.4543 163.54 12.7512C165.91 11.6158 167.007 10.9171 168.236 9.60708C169.773 10.8735 171.221 12.6639 171.879 13.5372C172.099 13.7993 172.231 14.0613 172.231 14.3233C172.231 14.6726 172.011 14.9783 171.484 15.1093C170.255 15.415 169.026 16.0263 167.841 16.5504C163.496 18.5154 158.58 20.2622 152.786 21.9653V27.7732C152.786 29.8256 153.093 30.5243 154.234 30.8736C155.375 31.1793 157.087 31.354 159.765 31.354C163.891 31.354 167.578 31.0483 172.143 30.3496C172.801 30.2623 172.889 30.437 172.933 30.961C173.065 32.1837 173.196 33.8431 173.196 34.7601C173.196 35.3278 172.933 35.5025 172.275 35.5462C167.315 36.1575 164.769 36.3322 159.238 36.3322C155.332 36.3322 152.742 35.9392 150.898 35.1531C148.704 34.2361 147.782 32.1837 147.782 28.6029V12.4892C147.782 8.34069 147.694 6.68129 147.343 4.49786C149.406 4.7162 151.469 4.97822 152.873 5.37123C153.4 5.50224 153.576 5.76425 153.576 6.06993C153.576 6.37561 153.444 6.68129 153.269 6.98697C152.917 7.68566 152.83 8.86471 152.83 10.9171ZM168.851 5.98259L171.177 4.36686C171.397 4.19218 171.572 4.23585 171.836 4.45419C173.196 5.50224 174.776 7.24898 176.005 9.12672C176.181 9.38873 176.181 9.60708 175.874 9.82542L174.03 11.1791C173.723 11.3975 173.504 11.3538 173.284 11.0481C171.967 9.03939 170.563 7.37998 168.851 5.98259ZM172.889 3.10047L175.084 1.52841C175.347 1.35373 175.479 1.3974 175.742 1.61574C177.366 2.83846 178.946 4.5852 179.912 6.1136C180.088 6.37561 180.131 6.63762 179.78 6.89963L178.025 8.25335C177.673 8.51536 177.454 8.38436 177.278 8.12235C176.093 6.2446 174.689 4.5852 172.889 3.10047Z" fill="#DE133F"/>
<path d="M107.4 13.1442L107.268 29.2142C110.648 27.9042 113.94 26.3758 118.461 23.712C123.509 20.7425 126.537 18.2971 130.093 14.8036C130.137 16.8124 130.4 18.5591 130.795 19.8692C131.058 20.6989 130.927 21.1355 130.356 21.6159C126.757 24.629 123.114 27.0308 119.383 29.1269C116.047 31.092 112.623 32.795 108.629 34.5418C107.531 35.0221 106.741 35.4588 106.171 35.9392C105.907 36.1575 105.644 36.2885 105.381 36.2885C105.117 36.2885 104.898 36.1575 104.634 35.9392C103.625 35.1095 102.747 34.1487 101.957 32.9697C101.781 32.7514 101.693 32.533 101.693 32.271C101.693 32.0527 101.781 31.7907 101.913 31.5286C102.088 31.092 102.088 30.2623 102.088 29.0395L102.176 12.6202C102.176 9.03937 102.045 6.89961 101.693 5.02187C104.151 5.32754 106.39 5.67689 107.4 5.98257C107.839 6.11358 108.102 6.37559 108.102 6.81227C108.102 7.03062 108.014 7.33629 107.882 7.72931C107.575 8.60268 107.4 10.0437 107.4 13.1442Z" fill="#DE133F"/>
<path d="M71.3629 10.7425V10.6551C66.0079 11.6595 61.3113 12.5765 56.6146 13.5372C54.9467 13.9303 54.5077 14.0176 53.8493 14.2359C53.5421 14.3669 53.2348 14.5853 52.8837 14.5853C52.5764 14.5853 52.2253 14.3233 52.0497 13.9303C51.4791 12.7512 50.9962 11.2228 50.4256 9.21406C52.6642 9.12672 53.981 8.95204 57.4047 8.47169C62.8037 7.68566 72.4603 6.2446 83.7848 4.75987C84.4432 4.67253 84.6627 4.93455 84.7066 5.24022C84.9261 6.2446 85.1455 7.86033 85.1894 9.08305C85.1894 9.60707 84.9261 9.73808 84.3555 9.73808C82.2924 9.86908 80.8878 10.0874 79.0004 10.6988C71.5385 13.2316 67.8075 18.3408 67.8075 23.581C67.8075 29.2142 71.8457 32.271 79.4832 32.7514C80.1855 32.7514 80.4489 32.926 80.4489 33.4064C80.4489 34.5418 80.2733 36.0702 79.9661 37.1619C79.8344 37.8169 79.6588 38.0789 79.1321 38.0789C71.4068 38.0789 62.9353 33.6684 62.9353 24.5854C62.9353 18.3844 66.0518 14.1923 71.3629 10.7425ZM77.7275 16.987L80.0539 15.3713C80.2733 15.1966 80.4489 15.2403 80.7123 15.4586C82.073 16.5067 83.6532 18.2534 84.8822 20.1312C85.0578 20.3932 85.0577 20.6115 84.7505 20.8299L82.907 22.1836C82.5997 22.4019 82.3802 22.3583 82.1608 22.0526C80.844 20.0438 79.4394 18.3844 77.7275 16.987ZM81.7657 14.1049L83.9604 12.5329C84.2238 12.3582 84.3555 12.4019 84.6188 12.6202C86.2429 13.8429 87.8231 15.5897 88.7887 17.1181C88.9643 17.3801 89.0082 17.6421 88.657 17.9041L86.9013 19.2578C86.5501 19.5198 86.3307 19.3888 86.1551 19.1268C84.97 17.2491 83.5654 15.5897 81.7657 14.1049Z" fill="#1F1F1F"/>
<path d="M40.889 3.05678V36.9435H34.9195V3.05678H40.889Z" fill="#1F1F1F"/>
<path d="M17.6014 3.05678L28.092 36.9435H21.9029L19.006 26.9871H8.55927L5.61839 36.9435H0L10.4467 3.05678H17.6014ZM17.9525 22.6203L15.9773 15.7643C15.2311 13.1005 14.7044 10.6114 13.9582 7.42363H13.5631C12.817 10.6551 12.2024 13.1005 11.4563 15.7206L9.61272 22.6203H17.9525Z" fill="#1F1F1F"/>
</svg>
