<svg width="332" height="64" viewBox="0 0 332 64" fill="none" xmlns="http://www.w3.org/2000/svg">
<path d="M321.29 46.364L317.756 45.5411C318.276 41.8658 320.906 39.6716 324.96 39.6716C329.233 39.6716 332 41.9481 332 45.4588C332 47.3788 331.178 48.9696 328.74 51.0267C326.467 52.9192 326.138 53.7969 326.111 56.3476H323.289V55.6894C323.289 52.974 323.864 51.7398 325.809 49.7924C327.782 47.8176 328.302 46.8577 328.302 45.4588C328.302 43.5938 327.015 42.4144 324.988 42.4144C322.824 42.4144 321.454 43.868 321.29 46.364ZM322.741 59.0081H326.631V62.7109H322.741V59.0081Z" fill="#1F1F1F"/>
<path d="M292.035 46.4188C292.473 44.8554 292.665 43.8955 292.856 42.9629C292.993 42.1401 293.13 41.0704 293.13 39.9185C294.555 40.2202 295.322 40.4122 296.417 40.8236C296.691 40.9059 296.856 41.1253 296.856 41.3721C296.856 41.5093 296.801 41.6464 296.664 41.7835C296.39 42.1401 296.253 42.4418 296.116 42.8258C295.76 43.9503 295.486 44.9652 295.13 46.1171C295.87 46.0348 296.691 46.0074 297.267 46.0074C299.842 46.0074 301.239 47.7628 301.239 51.0815C301.239 54.318 300.691 57.911 299.759 59.8858C298.965 61.6412 297.65 62.464 296.061 62.464C294.747 62.464 293.952 62.3543 293.35 62.1623C293.021 62.0526 292.856 61.8058 292.856 61.3943C292.774 60.5167 292.72 59.7487 292.336 58.8436C293.569 59.3098 294.5 59.447 295.349 59.447C296.253 59.447 296.664 59.1178 297.102 57.9933C297.678 56.4574 298.171 53.8517 298.171 51.1912C298.171 49.2439 297.814 48.6405 296.609 48.6405C295.952 48.6405 295.103 48.7227 294.308 48.8325C292.5 54.0986 290.939 57.8836 288.802 61.7235C288.638 62.08 288.419 62.1349 288.09 61.9703C287.597 61.7235 286.529 61.0652 286.2 60.7635C286.063 60.6264 285.981 60.5167 285.981 60.3521C285.981 60.2698 286.008 60.1601 286.091 60.0504C288.282 56.2379 289.706 53.3306 291.103 49.2987C290.035 49.4633 289.159 49.6279 288.419 49.765C287.707 49.9021 287.268 50.0667 286.912 50.2038C286.529 50.341 286.2 50.2861 286.036 49.8473C285.789 49.2164 285.488 48.229 285.187 47.0222C286.392 47.0222 287.597 46.9399 288.802 46.8302C289.953 46.7205 290.966 46.5834 292.035 46.4188ZM301.786 46.1994C302.471 45.7331 303.266 45.1846 304.005 44.8006C304.197 44.6909 304.334 44.7457 304.526 44.9377C306.388 46.6931 308.059 48.9696 309.073 51.6027C309.182 51.8495 309.155 51.9866 308.963 52.1512C308.497 52.5901 307.457 53.2483 306.909 53.5226C306.635 53.6597 306.361 53.6323 306.279 53.3032C305.183 50.4233 303.759 48.0645 301.786 46.1994Z" fill="#1F1F1F"/>
<path d="M263.684 52.4529L263.711 52.5078C264.807 51.6027 265.985 51.1089 267.053 51.1089C270.011 51.1089 270.751 53.6597 271.052 56.2928C271.271 58.295 271.6 59.2001 272.641 59.2001C273.627 59.2001 274.449 58.7064 275.216 57.8836C276.175 56.8688 277.298 55.278 277.982 53.4129C278.53 54.6471 279.078 55.1957 279.571 55.6894C279.79 55.8814 279.873 56.0734 279.873 56.2654C279.873 56.4299 279.845 56.5671 279.763 56.7316C279.215 57.8836 278.311 59.1453 277.407 60.1327C276.038 61.6138 274.257 62.4366 272.367 62.4366C269.6 62.4366 268.423 60.9829 268.066 57.1156C267.82 54.3728 267.217 53.5774 266.259 53.5774C265.081 53.5774 263.903 54.4551 262.807 55.9088C261.821 57.2253 260.671 59.4744 259.602 61.9977C259.438 62.3817 259.301 62.4366 258.945 62.3269C258.205 62.0252 257.466 61.6412 256.836 61.1475C256.671 61.0378 256.589 60.9006 256.589 60.7909C256.589 60.6812 256.644 60.5441 256.726 60.4069C260.725 52.5626 263.245 47.3239 264.752 43.8955C265.546 42.0852 265.902 41.1253 266.122 39.891C267.409 40.4121 268.45 40.9058 269.19 41.427C269.436 41.5915 269.573 41.7835 269.573 42.003C269.573 42.1675 269.463 42.3595 269.272 42.5515C268.943 42.9081 268.669 43.3195 268.423 43.7309C266.669 47.1045 265.19 49.9844 263.684 52.4529Z" fill="#1F1F1F"/>
<path d="M234.505 47.7079V44.7732C234.451 43.3744 234.396 42.9355 234.122 41.8658C235.492 41.9756 236.724 42.1676 237.409 42.3321C237.71 42.387 237.984 42.6613 237.984 42.9081C237.984 43.1001 237.902 43.2921 237.82 43.4841C237.656 43.8955 237.573 44.2521 237.546 44.6909C237.519 45.3492 237.519 46.3914 237.491 47.324C239.381 47.0771 242.285 46.7754 244.257 46.556C244.284 45.1846 244.284 43.7035 244.284 42.6887C244.284 41.6464 244.202 40.6042 243.928 39.5619C245.599 39.7539 246.558 39.8911 247.243 40.1105C247.626 40.2202 247.763 40.3573 247.763 40.6316C247.763 40.851 247.654 41.0704 247.599 41.1802C247.462 41.619 247.352 41.9481 247.325 42.4144C247.27 43.8955 247.243 44.9652 247.215 46.2543C249.434 46.0897 251.078 46.0074 252.557 45.9526C252.776 45.9526 252.886 45.98 252.886 46.2269C252.913 46.9674 252.94 47.7354 252.886 48.4759C252.886 48.8325 252.831 48.8599 252.53 48.8599C250.722 48.8599 248.886 48.9422 247.078 49.0793C246.996 50.8896 246.914 52.2335 246.75 53.3032C246.448 55.4426 245.216 56.3477 243.161 56.3477C242.668 56.3477 242.038 56.3477 241.463 56.2654C241.025 56.238 240.915 56.046 240.915 55.5523C240.86 54.6472 240.696 53.9615 240.313 53.0838C241.217 53.3306 241.956 53.4129 242.641 53.4129C243.381 53.4129 243.791 53.1935 243.928 52.2335C244.038 51.3833 244.093 50.3959 244.12 49.3262C241.929 49.4907 239.546 49.765 237.436 50.0942C237.409 53.0838 237.382 54.7294 237.491 56.2928C237.656 58.5419 238.258 58.9807 241.6 58.9807C244.038 58.9807 246.668 58.7339 248.695 58.4322C249.106 58.4048 249.188 58.4596 249.242 58.7887C249.352 59.3647 249.407 60.5715 249.407 61.0927C249.407 61.4218 249.297 61.5589 249.051 61.5864C247.791 61.7784 244.394 61.9978 242.175 61.9978C236.642 61.9978 235.026 60.8458 234.697 57.2528C234.56 55.7717 234.505 53.4678 234.505 50.5604C233.108 50.7524 232.232 50.917 231.191 51.1364C230.89 51.2187 230.451 51.3284 229.958 51.5478C229.602 51.7124 229.41 51.6027 229.246 51.2461C228.917 50.5604 228.616 49.4359 228.479 48.5034C229.054 48.5034 230.232 48.3936 231.41 48.2291C232.177 48.1194 233.492 47.8725 234.505 47.7079Z" fill="#1F1F1F"/>
<path d="M211.359 55.7168C211.304 54.51 211.249 53.3855 211.222 52.4529C209.332 52.5078 207.469 52.5078 205.579 52.3432C205.278 52.3432 205.168 52.2335 205.141 51.8769C205.031 51.2735 204.977 50.1764 204.977 49.5456C207.004 49.7924 209.085 49.8473 211.14 49.765C211.112 48.7228 211.112 47.6531 211.085 46.6108C208.455 46.6931 206.483 46.6931 204.538 46.4737C204.237 46.4737 204.1 46.364 204.073 46.0897C203.99 45.404 203.936 44.7457 203.881 43.6212C206.264 43.8955 208.647 43.8955 211.058 43.8955C211.058 42.8807 211.03 42.1675 211.003 41.235C210.948 40.6042 210.893 40.1105 210.674 39.3973C212.126 39.4796 213.304 39.6442 214.126 39.891C214.454 40.0007 214.619 40.3847 214.427 40.7139C214.235 41.0979 214.043 41.5641 214.016 42.0304C213.989 42.579 213.989 42.9629 213.961 43.7858C216.509 43.5938 218.344 43.2921 219.96 42.9629C220.289 42.8807 220.398 42.9629 220.426 43.2921C220.535 44.06 220.563 44.8006 220.563 45.2943C220.563 45.6509 220.481 45.7057 220.261 45.7331C218.317 46.0623 216.564 46.2817 213.934 46.4463C213.934 47.5434 213.961 48.5582 213.961 49.5456C216.043 49.4085 217.358 49.1342 219.33 48.8325C219.659 48.7502 219.741 48.805 219.768 49.0519C219.796 49.573 219.851 50.4781 219.851 51.301C219.851 51.5752 219.741 51.6575 219.44 51.6849C217.632 51.9867 216.372 52.1786 214.071 52.3432C214.126 53.6049 214.18 54.9488 214.263 56.2105C216.892 56.9511 219.138 57.9385 221.522 59.5293C221.795 59.7761 221.795 59.8584 221.713 60.1875C221.522 60.7087 220.946 61.7235 220.508 62.2172C220.398 62.3818 220.289 62.4366 220.152 62.4366C220.07 62.4366 219.96 62.4092 219.851 62.2995C218.18 60.9829 216.481 60.023 214.4 59.1727C214.372 62.1349 212.592 63.3417 208.839 63.3417C205.278 63.3417 203.251 61.7783 203.251 59.5018C203.251 57.2802 205.415 55.6071 208.729 55.6071C209.414 55.6071 210.072 55.6071 211.359 55.7168ZM211.414 58.3225C210.619 58.1305 209.633 57.9933 208.866 57.9933C206.867 57.9933 205.908 58.5693 205.908 59.447C205.908 60.1601 206.73 60.6812 208.62 60.6812C209.715 60.6812 210.729 60.3521 211.112 59.8584C211.332 59.5567 211.414 59.0904 211.414 58.3225Z" fill="#1F1F1F"/>
<path d="M177.612 40.1104C178.872 40.2476 180.187 40.3847 181.036 40.6041C181.501 40.7139 181.693 40.851 181.693 41.1253C181.693 41.427 181.529 41.7561 181.419 42.0304C181.282 42.4144 181.173 43.2646 181.036 45.3766C180.762 49.6004 180.625 52.3981 180.625 55.9911C180.625 58.7613 180.954 59.3921 183.145 59.3921C185.583 59.3921 189.39 57.911 192.732 54.3454C192.842 55.3877 193.088 56.2928 193.362 56.9511C193.499 57.2528 193.581 57.4447 193.581 57.6093C193.581 57.8562 193.472 58.0756 193.034 58.4596C190.075 61.1749 186.213 62.5737 182.652 62.5737C179.146 62.5737 177.502 61.1749 177.502 56.9785C177.502 52.3706 177.749 48.421 177.886 45.1297C177.94 43.5115 178.023 41.7561 177.612 40.1104Z" fill="#1F1F1F"/>
<path d="M157.697 52.3158V58.8162C157.697 59.8036 157.862 60.1601 158.464 60.3796C158.957 60.5441 159.67 60.5715 161.176 60.5715C162.573 60.5715 163.395 60.407 163.998 59.8859C164.463 59.5019 164.71 58.3225 164.819 55.7168C165.395 56.1557 166.189 56.5671 166.929 56.8414C167.613 57.0882 167.586 57.0882 167.531 57.8013C167.339 60.4893 166.874 61.6687 165.942 62.3543C165.039 62.9852 163.395 63.2869 160.984 63.2869C158.41 63.2869 157.095 63.1772 156.218 62.7383C155.314 62.2995 154.766 61.5864 154.766 59.7487V42.4418C154.766 40.9059 154.739 40.1105 154.602 39.2602C155.698 39.2876 156.574 39.3425 157.533 39.4522C157.889 39.4796 158.053 39.5894 158.053 39.8088C158.053 40.0282 157.971 40.1653 157.889 40.3299C157.752 40.5768 157.697 41.0156 157.697 42.195V49.0519C159.45 47.9548 161.067 46.6657 162.765 45.02C163.313 44.5263 163.943 43.8132 164.381 43.155C165.121 43.7035 165.915 44.3892 166.518 44.9652C166.737 45.1846 166.819 45.3217 166.819 45.5137C166.819 45.7057 166.627 45.8703 166.353 45.9526C166.052 46.0623 165.532 46.4463 164.929 46.9948C162.902 48.8051 160.491 50.6427 157.697 52.3158ZM147.261 59.4196V53.2209C147.261 52.1787 147.288 50.917 147.316 49.7102C146.494 50.7799 145.672 51.7673 144.878 52.5627C144.604 52.8095 144.44 52.9741 144.275 52.9741C144.111 52.9741 144.001 52.7821 143.864 52.3707C143.645 51.6301 143.207 50.7524 142.823 50.1216C145.727 47.516 147.781 44.5538 149.151 40.851C149.398 40.2202 149.589 39.5619 149.699 38.9311C150.767 39.2054 151.479 39.4522 152.356 39.8088C152.712 39.9459 152.822 40.0282 152.822 40.2202C152.822 40.4122 152.739 40.5493 152.575 40.6865C152.356 40.851 152.192 41.1527 151.89 41.8659C151.397 43.0452 150.822 44.2521 150.165 45.404V59.4196C150.165 62.0801 150.219 63.424 150.219 63.5886C150.219 63.8354 150.192 63.8629 149.918 63.8629H147.535C147.234 63.8629 147.206 63.8354 147.206 63.5886C147.206 63.3966 147.261 62.0801 147.261 59.4196Z" fill="#1F1F1F"/>
<path d="M125.101 43.484H118.8C116.308 43.484 115.486 43.5389 115.294 43.5389C115.02 43.5389 114.993 43.5115 114.993 43.2372V41.3447C114.993 41.043 115.02 41.0155 115.294 41.0155C115.486 41.0155 116.308 41.0704 118.8 41.0704H125.402C125.402 39.9733 125.375 39.2876 125.21 38.6293C126.224 38.6568 127.155 38.6842 128.141 38.7939C128.388 38.8213 128.552 38.931 128.552 39.0956C128.552 39.2327 128.47 39.3973 128.388 39.5893C128.306 39.8362 128.278 40.1653 128.278 41.0704H135.072C137.564 41.0704 138.386 41.0155 138.55 41.0155C138.852 41.0155 138.879 41.043 138.879 41.3447V43.2372C138.879 43.5115 138.852 43.5389 138.55 43.5389C138.386 43.5389 137.564 43.484 135.072 43.484H126.553C126.881 43.676 127.183 43.8406 127.456 44.0326C127.703 44.1972 127.785 44.2794 127.785 44.444C127.785 44.5537 127.648 44.6634 127.484 44.7457C127.292 44.828 127.128 44.9651 126.909 45.2394C126.416 45.8702 125.868 46.5011 125.238 47.1319C125.703 47.5159 126.114 47.9273 126.498 48.2839C127.155 47.5708 127.758 46.8576 128.306 46.2268C128.771 45.6508 129.073 45.212 129.374 44.6086C130.004 44.9651 130.963 45.6234 131.374 45.98C131.62 46.1994 131.675 46.2817 131.675 46.4188C131.675 46.5559 131.511 46.6657 131.319 46.7479C131.072 46.8851 130.88 47.0496 130.36 47.5982C129.073 49.0793 127.511 50.6152 125.95 51.9592C127.183 51.8769 128.497 51.7398 129.922 51.5752C129.675 51.1364 129.401 50.6975 129.127 50.2861C128.99 50.0667 128.99 50.0118 129.347 49.8473L130.634 49.1616C130.908 49.0244 130.935 49.0793 131.072 49.2987C132.031 50.5878 132.825 52.1512 133.565 53.6871C133.675 53.934 133.675 53.9888 133.346 54.1534L131.867 54.9488C131.565 55.1134 131.456 55.0585 131.346 54.7294L130.853 53.4951C128.881 53.7969 127.155 54.0163 125.484 54.1808C126.388 54.2357 127.237 54.3454 128.114 54.4277C128.36 54.4551 128.525 54.5648 128.525 54.7568C128.525 54.9488 128.47 55.0037 128.36 55.2231C128.251 55.4699 128.251 55.8265 128.251 56.4573H135.51C137.948 56.4573 138.769 56.4025 138.934 56.4025C139.208 56.4025 139.208 56.4299 139.208 56.7042V58.7064C139.208 58.9807 139.208 59.0081 138.934 59.0081C138.769 59.0081 137.948 58.9533 135.51 58.9533H128.251V60.7909C128.251 62.656 128.306 63.5337 128.306 63.6983C128.306 63.9725 128.278 64 128.004 64H125.649C125.375 64 125.347 63.9725 125.347 63.6983C125.347 63.5337 125.402 62.656 125.402 60.7909V58.9533H118.444C116.006 58.9533 115.185 59.0081 115.02 59.0081C114.774 59.0081 114.746 58.9807 114.746 58.7064V56.7042C114.746 56.4299 114.774 56.4025 115.02 56.4025C115.185 56.4025 116.006 56.4573 118.444 56.4573H125.402C125.402 55.4151 125.375 54.894 125.238 54.2083C124.416 54.2906 123.622 54.3728 122.8 54.4277C122.334 54.4825 122.005 54.6197 121.814 54.702C121.677 54.7568 121.567 54.8117 121.403 54.8117C121.238 54.8117 121.156 54.6745 121.074 54.4277C120.91 53.7694 120.8 53.1386 120.718 52.398C119.65 53.1112 118.581 53.7146 117.376 54.4825C117.02 54.6745 116.691 54.894 116.554 55.086C116.445 55.2231 116.28 55.3602 116.143 55.3602C116.006 55.3602 115.87 55.3054 115.76 55.1134C115.404 54.4003 114.993 53.4403 114.692 52.6723C115.376 52.4529 115.979 52.1786 116.5 51.9318C117.814 51.3009 119.431 50.4781 120.828 49.5181C120.91 49.957 121.101 50.4781 121.321 51.0267C121.43 51.3558 121.512 51.5478 121.512 51.6849C121.512 51.8769 121.403 51.9592 121.129 52.1512C121.595 52.1512 122.033 52.206 122.526 52.1786C123.32 51.5204 124.06 50.8072 124.799 50.0941C123.731 49.0519 122.444 47.9273 121.129 46.9399C120.992 46.8576 120.937 46.7754 120.937 46.7205C120.937 46.6382 120.964 46.5834 121.074 46.4737L122.197 45.2943C122.444 45.02 122.526 44.9926 122.745 45.1571L123.485 45.7057C123.895 45.212 124.306 44.7183 124.69 44.1972C124.827 44.0052 124.964 43.7583 125.101 43.484ZM132.688 50.6975L133.784 49.4633C133.976 49.2164 134.031 49.2164 134.277 49.3536C136.112 50.4232 137.455 51.3284 139.071 52.7546C139.153 52.8643 139.208 52.9192 139.208 53.0014C139.208 53.0837 139.18 53.166 139.071 53.3032L137.674 54.8391C137.537 55.0037 137.427 55.0585 137.318 55.0585C137.236 55.0585 137.153 55.0037 137.016 54.8665C135.674 53.3854 134.387 52.2883 132.688 51.2186C132.579 51.1364 132.497 51.0815 132.497 50.9992C132.497 50.9169 132.579 50.8347 132.688 50.6975ZM136.112 43.7857C136.879 44.3617 137.4 44.7457 138.085 45.3765C138.276 45.5685 138.304 45.7057 138.304 45.8702C138.304 46.0074 138.139 46.172 137.893 46.2268C137.537 46.3091 137.29 46.4737 136.934 46.7479C136.14 47.3788 135.181 48.0645 134.195 48.6953C133.866 48.9147 133.675 49.0519 133.51 49.0519C133.318 49.0519 133.181 48.8873 132.935 48.4759C132.634 47.9822 132.195 47.5982 131.839 47.2691C133.072 46.5559 134.031 45.8154 135.072 44.9377C135.373 44.6634 135.811 44.3069 136.112 43.7857ZM115.705 45.3491L117.075 44.2794C117.349 44.06 117.403 44.06 117.595 44.252C118.883 45.212 120.088 46.3639 121.156 47.6805C121.321 47.8999 121.321 48.0096 120.992 48.2565L119.485 49.4358C119.211 49.6553 119.074 49.6553 118.937 49.4633C117.897 47.9822 116.856 46.8576 115.623 45.8154C115.404 45.6234 115.431 45.5685 115.705 45.3491Z" fill="#1F1F1F"/>
<path d="M107.487 47.5982H104.803C104.556 50.6701 104.091 53.2758 103.406 55.3054C102.31 58.5145 100.667 61.0378 97.9275 63.3143C97.5714 63.5886 97.4071 63.7257 97.2427 63.7257C97.1058 63.7257 96.9688 63.5886 96.6949 63.232C96.2018 62.5738 95.6814 62.1623 95.1335 61.8606C97.9001 60.1053 99.8724 57.4448 100.913 54.3729C101.461 52.7272 101.872 50.3959 102.091 47.5982C100.119 47.5982 99.4341 47.6531 99.2971 47.6531C98.9958 47.6531 98.9684 47.6257 98.9684 47.3514V45.3492C98.9684 45.0749 98.9958 45.0475 99.2971 45.0475C99.4341 45.0475 100.119 45.1023 102.228 45.1023C102.256 44.3618 102.283 43.5938 102.283 42.7984C102.283 41.0979 102.228 40.2476 102.064 38.9311C103.077 38.9585 103.926 39.0134 104.885 39.0956C105.159 39.1505 105.296 39.2602 105.296 39.4248C105.296 39.6168 105.187 39.891 105.104 40.1653C105.022 40.5219 104.967 41.2076 104.967 42.8807C104.967 43.6486 104.94 44.3892 104.913 45.1023H106.83C109.049 45.1023 109.788 45.0475 109.953 45.0475C110.199 45.0475 110.254 45.1023 110.254 45.3766C110.227 46.3366 110.199 47.132 110.199 47.9822C110.199 52.6724 109.953 57.2528 109.432 60.4893C109.104 62.6286 108.063 63.4789 105.981 63.4789C105.406 63.4789 104.858 63.4789 104.31 63.424C103.543 63.3966 103.543 63.3966 103.379 62.4915C103.269 61.8058 103.077 61.1749 102.749 60.599C103.735 60.7635 104.666 60.8184 105.378 60.8184C106.227 60.8184 106.584 60.5167 106.803 59.1179C107.214 56.4848 107.487 52.1512 107.487 47.5982ZM89.2168 52.8369L90.3673 51.7124C90.6412 51.4655 90.7234 51.4381 90.9425 51.6027C91.6273 52.1238 92.3121 52.6998 92.9969 53.3032L93.3256 52.5078C93.627 51.7124 93.8461 50.9444 93.9283 50.0942C94.6679 50.341 95.7909 50.7798 96.3388 51.109C96.6127 51.2461 96.6949 51.3558 96.6949 51.5204C96.6949 51.685 96.5853 51.877 96.3936 52.0415C96.147 52.2884 96.0375 52.6449 95.8183 53.2209C95.5718 53.9066 95.2979 54.5374 94.9966 55.1683C95.8731 56.046 96.6675 56.9511 97.4345 57.911C97.6262 58.103 97.6262 58.1853 97.3797 58.4322L96.0101 59.9133C95.8731 60.0504 95.7909 60.1327 95.7088 60.1327C95.6266 60.1327 95.5444 60.0504 95.4622 59.9407C94.9144 59.1727 94.2844 58.3773 93.5996 57.6093C92.2025 59.6938 90.3947 61.5041 88.1485 63.0126C87.8198 63.232 87.6554 63.3417 87.5185 63.3417C87.3267 63.3417 87.2172 63.1497 86.9432 62.7109C86.5871 62.1349 86.1215 61.6686 85.7106 61.3395C88.395 59.831 90.3673 57.911 91.7643 55.662C90.9151 54.8117 90.0386 54.0163 89.1894 53.3032C88.9703 53.1386 88.9976 53.0563 89.2168 52.8369ZM95.3801 45.0749H90.0933C87.7102 45.0749 86.9158 45.1297 86.7515 45.1297C86.4776 45.1297 86.4502 45.1023 86.4502 44.828V42.8532C86.4502 42.5515 86.4776 42.5241 86.7515 42.5241C86.9158 42.5241 87.7102 42.579 90.0933 42.579H91.5451V41.6738C91.5451 40.467 91.5451 39.7265 91.3808 38.7665C92.3943 38.7939 93.2161 38.8488 94.12 38.9585C94.4213 38.9859 94.5857 39.0956 94.5857 39.2328C94.5857 39.4522 94.4761 39.6168 94.3939 39.8088C94.257 40.1379 94.257 40.5767 94.257 41.6738V42.579H95.3801C97.7632 42.579 98.5576 42.5241 98.7219 42.5241C98.9958 42.5241 99.0232 42.5515 99.0232 42.8532V44.828C99.0232 45.1023 98.9958 45.1297 98.7219 45.1297C98.5576 45.1297 97.7632 45.0749 95.3801 45.0749ZM85.7927 50.8073C87.2719 49.5456 88.1759 48.3114 88.8607 46.9674C89.025 46.6108 89.162 46.1994 89.3264 45.6234C90.0112 45.8977 91.1069 46.3091 91.5725 46.6108C91.8464 46.748 91.9834 46.8851 91.9834 47.0497C91.9834 47.2142 91.8738 47.2965 91.6821 47.4611C91.5177 47.5982 91.2712 48.0096 91.0795 48.3662C90.3673 49.6279 89.5181 50.8621 88.2854 52.1787C87.9841 52.4529 87.8198 52.6175 87.6828 52.6175C87.5459 52.6175 87.4089 52.4529 87.1898 52.1238C86.8063 51.5204 86.1762 51.0816 85.7927 50.8073ZM94.4761 46.556L96.0923 45.8429C96.3936 45.7057 96.4484 45.7057 96.5853 45.9526C97.3797 47.5159 98.585 49.189 100.037 50.6427C99.5437 50.9444 99.0232 51.3558 98.5576 51.8221C98.2562 52.1238 98.0919 52.2884 97.9549 52.2884C97.7906 52.2884 97.6536 52.1238 97.3797 51.7672C96.2018 50.3136 95.0513 48.5308 94.257 47.0222C94.12 46.748 94.1748 46.6931 94.4761 46.556Z" fill="#1F1F1F"/>
<path d="M61.3862 40.851C62.6188 41.1527 63.4954 41.427 64.3172 41.8658C64.7828 42.1127 64.9472 42.2773 64.9472 42.5241C64.9472 42.7161 64.8924 42.7984 64.5363 43.3469C64.2624 43.8406 64.1254 44.2246 63.8789 45.2943C63.1119 48.6953 62.7284 52.0689 62.7284 54.1534C62.7284 55.4974 62.7832 56.4025 62.8928 57.3625C63.468 56.1008 63.9611 55.1957 64.7554 53.2758C64.9746 53.9615 65.3307 54.4003 65.7142 55.0037C65.7964 55.1408 65.9059 55.3054 65.9059 55.4151C65.9059 55.6071 65.8511 55.7168 65.769 55.854C65.1389 57.2802 64.6185 58.4596 64.2076 59.9956C64.1528 60.1601 64.1254 60.4618 64.1254 60.8458C64.1254 61.1749 64.1802 61.3944 64.1802 61.6138C64.1802 61.8058 64.0706 61.9155 63.8241 61.9703C63.1393 62.1623 62.3723 62.3269 61.5779 62.4092C61.3862 62.4366 61.2766 62.2995 61.2218 62.1075C60.4549 60.1875 59.9618 56.7042 59.9618 53.934C59.9618 51.4655 60.2631 48.4759 60.8931 44.9377C61.2492 42.9081 61.3862 42.003 61.3862 40.851ZM67.6864 55.0037L70.1791 54.7843C70.3983 54.7569 70.453 54.894 70.453 55.1957C70.6174 57.0882 71.9322 57.7739 74.918 57.7739C76.9724 57.7739 78.3146 57.6368 80.1499 57.4173C80.4238 57.3899 80.4786 57.4173 80.5334 57.7739C80.6156 58.3499 80.6978 59.4196 80.6978 60.1327C80.6978 60.4618 80.6978 60.4892 80.2321 60.5441C78.3694 60.7635 77.0546 60.8458 75.7672 60.8458C71.7131 60.8458 69.823 60.1875 68.6451 58.5693C67.9603 57.6916 67.6864 56.2928 67.6864 55.0037ZM68.563 47.2142C68.5904 45.6783 68.5904 44.9926 68.6451 44.5263C68.6725 44.1972 68.7547 44.1149 69.0286 44.0601C70.6448 43.7584 73.7127 43.5664 74.9728 43.5664C76.6163 43.5664 77.8764 43.6212 79.0268 43.7309C79.6021 43.7584 79.6569 43.8132 79.6569 44.0875C79.6569 44.9103 79.6569 45.6509 79.6021 46.4188C79.5747 46.6657 79.4925 46.7754 79.246 46.748C77.6024 46.6383 76.178 46.5834 74.781 46.5834C72.9457 46.5834 71.1652 46.748 68.563 47.2142Z" fill="#1F1F1F"/>
<path d="M35.5006 43.1824H36.4319C38.3767 43.1824 39.0068 43.1275 39.1985 43.1275C39.4724 43.1275 39.4998 43.155 39.4998 43.4292C39.4998 43.5664 39.445 44.5263 39.445 47.2142C41.2255 45.1023 42.2665 42.9081 42.9513 41.0156C43.1704 40.3025 43.3621 39.5345 43.4717 38.6842C44.5126 38.8762 45.6905 39.1505 46.1836 39.3425C46.5397 39.4522 46.7588 39.5893 46.7588 39.7813C46.7588 40.0008 46.7314 40.083 46.4849 40.3299C46.2657 40.5219 46.0192 40.9607 45.7453 41.7287C45.5535 42.2498 45.3344 42.7435 45.1153 43.2372H50.2376C52.2099 43.2372 52.8399 43.1824 53.0042 43.1824C53.2782 43.1824 53.3329 43.2372 53.3329 43.5115C53.2782 44.2795 53.2782 45.02 53.2782 45.788C53.2508 52.0964 53.059 56.0734 52.4838 59.6939C52.0455 62.4915 50.9224 63.808 48.3475 63.8629C47.7449 63.8629 46.9779 63.8903 46.2657 63.8354C45.4714 63.7806 45.4714 63.7806 45.2796 62.9029C45.0879 62.1623 44.7865 61.3395 44.4852 60.791C45.9644 61.0104 46.8958 61.0927 47.9914 61.0652C48.9776 61.0652 49.4432 60.1601 49.7172 58.7065C50.2376 55.7443 50.402 51.493 50.402 45.788H43.8826C43.2252 46.94 42.4582 48.0919 41.5543 49.2165C41.2803 49.5456 41.116 49.7102 40.979 49.7102C40.8421 49.7102 40.7051 49.5456 40.4038 49.2165C40.1025 48.9148 39.7738 48.6131 39.445 48.3662V54.0437C39.445 60.4344 39.4998 61.6412 39.4998 61.8058C39.4998 62.0801 39.4724 62.1075 39.1985 62.1075H37.0893C36.8154 62.1075 36.788 62.0801 36.788 61.8058V60.4893H32.8709V62.5738C32.8709 62.8755 32.8435 62.9029 32.5422 62.9029H30.4604C30.1865 62.9029 30.1591 62.8755 30.1591 62.5738C30.1591 62.4092 30.2138 61.1201 30.2138 54.4552V49.7102C30.2138 44.9377 30.1591 43.6212 30.1591 43.4292C30.1591 43.155 30.1865 43.1275 30.4604 43.1275C30.6247 43.1275 31.2 43.1824 32.7887 43.1824C33.1174 42.2224 33.4461 41.1802 33.6379 40.3025C33.7474 39.7813 33.8022 39.3699 33.857 38.7391C34.8431 38.8488 35.8567 39.0134 36.6784 39.1779C36.925 39.2328 37.0619 39.3699 37.0619 39.5345C37.0619 39.7265 37.0071 39.8088 36.8154 39.9733C36.651 40.1105 36.5141 40.3573 36.4319 40.5767C36.1306 41.3996 35.8293 42.3321 35.5006 43.1824ZM32.8709 58.0208H36.788V52.9466H32.8709V58.0208ZM36.788 45.6234H32.8709V50.4781H36.788V45.6234ZM42.4034 50.4233L43.91 49.4359C44.047 49.3536 44.1291 49.2988 44.2113 49.2988C44.2661 49.2988 44.3209 49.3536 44.4304 49.4633C45.7727 50.917 46.9231 52.8095 47.7997 54.5374C47.9367 54.8117 47.9093 54.894 47.5806 55.1134L45.8822 56.2928C45.7453 56.4025 45.6631 56.4574 45.6083 56.4574C45.5261 56.4574 45.4714 56.3751 45.4166 56.2105C44.5126 54.2083 43.4717 52.4804 42.2117 50.917C42.0473 50.6976 42.0747 50.6427 42.4034 50.4233Z" fill="#1F1F1F"/>
<path d="M9.64211 46.2268L9.94343 46.1994C11.4774 46.1171 12.1074 45.98 12.3813 45.98C12.5457 45.98 12.6005 46.0074 12.6005 46.172L12.6827 47.4062C12.6827 47.5982 12.6279 47.6531 12.4087 47.6531C12.2718 47.6531 11.7239 47.6805 10.0804 47.7902L9.64211 47.8177V48.1468C9.64211 48.4211 9.6969 48.5582 9.91604 48.6405C10.1078 48.7228 10.4365 48.7502 11.5596 48.7502C12.8196 48.7502 13.2031 48.6679 13.5318 48.4759C13.8331 48.2839 13.9701 47.9274 14.0797 47.4337C14.5453 47.7354 14.9836 47.9274 15.5862 48.0919C16.1889 48.2565 16.2437 48.3114 16.1341 48.805C16.0245 49.2987 15.6684 49.7924 15.2575 50.0119C14.7097 50.341 13.8605 50.4233 11.6144 50.4233C9.50515 50.4233 8.54642 50.341 8.05336 50.1216C7.47812 49.8747 7.39595 49.4085 7.39595 48.6953V47.9548C6.02633 48.0645 5.50588 48.1742 5.39631 48.1742C5.25935 48.1742 5.23195 48.1742 5.20456 47.9822L5.09499 46.6657C5.0676 46.4737 5.09499 46.4463 5.28674 46.4463C5.39631 46.4463 5.91676 46.4737 7.39595 46.364V45.1846H4.62932V47.4885C4.62932 50.8073 4.54715 53.4129 4.21844 55.9637C3.91712 58.3499 3.39667 60.5441 2.41055 62.7932C2.24619 63.1223 2.13662 63.2869 1.99966 63.2869C1.89009 63.2869 1.75313 63.1772 1.61617 62.9852C1.06832 62.1898 0.602656 61.6961 0.0548096 61.2847C1.06832 59.2001 1.58878 57.3625 1.89009 54.7569C2.10923 52.8369 2.16402 50.2861 2.16402 47.4611C2.16402 44.9103 2.10923 43.7309 2.10923 43.5664C2.10923 43.2647 2.13662 43.2372 2.43794 43.2372C2.60229 43.2372 3.6432 43.2921 5.94415 43.2921H7.25898V41.1801C7.25898 40.0556 7.23159 39.5345 7.09463 38.8762C8.13554 38.9036 8.79295 38.9585 9.80647 39.0408C10.053 39.0682 10.19 39.1505 10.19 39.2876C10.19 39.4796 10.1078 39.5619 10.0256 39.7539C9.97082 39.891 9.91604 40.083 9.88864 40.467H12.1074C14.1892 40.467 14.9562 40.4122 15.1206 40.4122C15.3945 40.4122 15.4219 40.4396 15.4219 40.7139V41.9481C15.4219 42.2224 15.3945 42.2498 15.1206 42.2498C14.9562 42.2498 14.1892 42.195 12.1074 42.195H9.88864V43.2921H13.9701C14.244 43.2921 14.3536 43.2647 14.5453 43.1824C14.6549 43.1275 14.7371 43.0727 14.8467 43.0727C15.0384 43.0727 15.3671 43.2372 15.8328 43.6486C16.5998 44.3069 16.7093 44.444 16.7093 44.636C16.7093 44.8555 16.6545 44.9926 16.4902 45.1297C16.2984 45.2943 16.1889 45.4314 16.0245 45.8154C15.8602 46.1446 15.641 46.5834 15.4219 46.94C15.2849 47.1594 15.2028 47.2691 15.0384 47.2691C14.9288 47.2691 14.7919 47.2142 14.5453 47.132C13.9701 46.8851 13.4496 46.7205 12.9566 46.6383C13.3127 46.1171 13.5318 45.7606 13.8057 45.1846H9.64211V46.2268ZM10.9296 59.7487V59.5019C9.17645 60.8732 7.2042 61.8881 5.23195 62.6835C4.93064 62.7932 4.73889 62.8755 4.60193 62.8755C4.43758 62.8755 4.38279 62.7383 4.24583 62.464C3.97191 61.8606 3.69799 61.4492 3.36928 61.1201C6.10851 60.2424 8.57381 59.1727 10.6282 57.5545C10.5461 57.3076 10.4913 57.0882 10.3817 56.8688C8.90252 58.0208 7.50552 58.7064 5.88937 59.3373C5.61545 59.447 5.45109 59.5019 5.34152 59.5019C5.17717 59.5019 5.12238 59.3921 5.01282 59.1727C4.73889 58.6242 4.46497 58.2128 4.13626 57.911C6.19068 57.2254 7.94379 56.4574 9.53254 55.3054C9.42298 55.1408 9.3408 54.9763 9.20384 54.8391C8.21771 55.3877 7.23159 55.854 6.19068 56.2654C5.88937 56.3751 5.72502 56.4299 5.61545 56.4299C5.4237 56.4299 5.36892 56.3202 5.25935 56.0734C5.01282 55.5248 4.76629 55.1408 4.46497 54.7843C6.32765 54.2632 7.83422 53.742 9.14905 53.0015H8.24511C6.492 53.0015 5.61545 53.0563 5.45109 53.0563C5.17717 53.0563 5.14978 53.0289 5.14978 52.7821V51.3558C5.14978 51.1638 5.17717 51.1364 5.45109 51.1364C5.61545 51.1364 6.492 51.1913 8.24511 51.1913H12.984C14.7919 51.1913 15.5862 51.1364 15.778 51.1364C16.0519 51.1364 16.0793 51.1638 16.0793 51.3833V52.8095C16.0793 53.0289 16.0519 53.0563 15.778 53.0563C15.5862 53.0563 14.7919 53.0015 12.984 53.0015H11.8883L10.7652 53.8517C11.3404 54.4826 11.8061 55.1683 12.1896 55.9088C12.7648 55.4151 13.3675 54.8391 13.751 54.3454C13.9975 54.0163 14.1892 53.6872 14.4358 53.2483C15.011 53.55 15.5862 53.9066 16.0793 54.2632C16.2984 54.4277 16.408 54.5649 16.408 54.7294C16.408 54.894 16.2984 55.0311 16.1067 55.1134C15.8602 55.1957 15.6136 55.4426 15.2575 55.7991C14.7097 56.3202 14.2166 56.7865 13.6414 57.2254C14.7371 58.5967 15.8602 59.4196 17.6133 60.4618C17.1202 60.9281 16.7641 61.3669 16.5176 61.9155C16.3532 62.2721 16.2163 62.4366 16.0793 62.4366C15.9423 62.4366 15.8054 62.2995 15.5589 62.1075C14.5453 61.3121 13.7784 60.407 13.0662 59.3373V59.6664C13.0662 62.2995 12.6279 63.7806 10.1352 63.7806C9.77908 63.7806 9.45037 63.7806 8.9847 63.7257C8.51903 63.6709 8.43685 63.6983 8.40946 63.2046C8.38207 62.7109 8.19032 61.9978 7.94379 61.4766C8.79295 61.6412 9.3408 61.6961 9.80647 61.6961C10.683 61.6961 10.9296 61.3669 10.9296 59.7487ZM24.8174 43.1549V54.7294C24.8174 56.6494 24.8722 58.8162 24.8722 60.1875C24.8722 61.5315 24.7353 62.2721 23.9135 62.8755C23.1739 63.424 22.2152 63.5611 20.106 63.5611C19.2842 63.5611 19.2842 63.5337 19.0925 62.6835C18.9007 61.8881 18.5994 61.1749 18.2159 60.6264C19.3116 60.7361 20.106 60.7635 20.873 60.7635C21.7769 60.7635 22.1056 60.5441 22.1056 59.6664V43.2098C22.1056 41.427 22.0782 40.5767 21.8865 39.2876C22.9 39.3151 23.7765 39.3699 24.7353 39.4796C24.9818 39.5071 25.1462 39.6442 25.1462 39.7813C25.1462 40.0282 25.064 40.1928 24.9818 40.3847C24.8174 40.7139 24.8174 41.2899 24.8174 43.1549ZM17.5585 52.8918V45.3492C17.5585 43.5389 17.5585 42.579 17.3667 41.2899C18.3803 41.3173 19.1472 41.3721 20.0786 41.4819C20.3525 41.5093 20.4621 41.619 20.4621 41.7836C20.4621 41.9756 20.3525 42.195 20.2977 42.387C20.1882 42.771 20.1882 43.3195 20.1882 45.3217V52.8918C20.1882 55.2231 20.2429 56.3477 20.2429 56.5122C20.2429 56.8139 20.2155 56.8414 19.9416 56.8414H17.805C17.5311 56.8414 17.5037 56.8139 17.5037 56.5122C17.5037 56.3477 17.5585 55.2231 17.5585 52.8918Z" fill="#1F1F1F"/>
<path d="M243.606 14.7835V19.1994C243.606 19.5011 243.442 19.6382 243.086 19.6931C242.73 19.748 241.908 19.8302 241.141 19.8302C240.895 19.8302 240.785 19.6657 240.785 19.3914C240.785 18.404 240.785 17.0326 240.812 16.0452C238.374 17.3069 237.498 18.3766 237.498 19.6931C237.498 20.8451 238.429 21.5856 241.305 21.5856C243.825 21.5856 246.017 21.3388 248.126 21.0371C248.373 21.0096 248.482 21.0919 248.51 21.3388C248.647 21.9696 248.756 22.9296 248.756 23.5878C248.783 23.917 248.674 24.109 248.455 24.109C246.099 24.4107 244.319 24.4655 241.661 24.4655C237.169 24.4655 234.786 23.1216 234.786 19.9399C234.786 17.3069 236.43 15.3869 240.566 13.2476C240.484 11.8488 240.155 11.3002 238.922 11.3551C237.635 11.4099 236.402 12.2328 235.142 13.3299C233.964 14.4818 233.279 15.2772 232.403 16.3195C232.266 16.4841 232.184 16.5663 232.074 16.5663C231.992 16.5663 231.882 16.4841 231.773 16.3743C231.389 15.9904 230.568 15.1401 230.211 14.5641C230.129 14.4544 230.102 14.3721 230.102 14.3173C230.102 14.2076 230.157 14.1253 230.294 14.0156C232.403 12.1231 234.43 9.95626 236.019 7.21349C234.731 7.26835 233.252 7.29578 231.636 7.29578C231.389 7.29578 231.307 7.15864 231.252 6.85693C231.17 6.41809 231.061 5.40326 230.978 4.58043C233.06 4.69014 235.197 4.66272 237.279 4.55301C237.58 3.81246 237.827 3.15419 238.1 2.19422C238.21 1.72795 238.292 1.26168 238.292 0.521133C239.497 0.713128 240.703 1.01483 241.415 1.28911C241.634 1.37139 241.744 1.56339 241.744 1.75538C241.744 1.89252 241.689 2.05708 241.552 2.1668C241.388 2.30393 241.223 2.55078 241.086 2.82506C240.922 3.20905 240.785 3.56561 240.456 4.30616C242.127 4.11416 243.798 3.83988 245.442 3.4559C245.743 3.40104 245.825 3.48333 245.88 3.73018C246.017 4.27873 246.126 4.90957 246.154 5.70497C246.181 5.97925 246.072 6.08896 245.688 6.14381C243.634 6.44552 241.278 6.74722 239.278 6.96664C238.648 7.98147 238.046 8.99629 237.224 10.0111L237.251 10.066C238.128 9.48999 239.251 9.21571 239.991 9.21571C241.798 9.21571 243.058 10.0385 243.332 12.1779C244.401 11.6842 245.962 10.9711 247.359 10.258C247.88 9.98369 248.756 9.48999 249.441 8.77687C250.345 9.73684 251.057 10.6968 251.358 11.1905C251.523 11.4374 251.577 11.6294 251.577 11.7939C251.577 12.0133 251.441 12.1231 251.167 12.1779C250.591 12.2602 250.044 12.3973 249.496 12.5893C247.715 13.2202 245.935 13.8236 243.606 14.7835Z" fill="#1F1F1F"/>
<path d="M220.515 17.7457H217.063C216.077 21.037 213.968 23.341 210.708 24.9318C210.379 25.0689 210.188 25.1512 210.051 25.1512C209.832 25.1512 209.722 24.9866 209.448 24.5204C209.119 23.917 208.654 23.3684 208.161 22.957C211.064 21.997 213.228 20.4062 214.269 17.7457H213.803C211.366 17.7457 210.571 17.8006 210.407 17.8006C210.105 17.8006 210.078 17.7731 210.078 17.4989V15.7161C210.078 15.4144 210.105 15.3869 210.407 15.3869C210.571 15.3869 211.366 15.4418 213.803 15.4418H214.844C214.899 15.1127 214.927 14.7561 214.954 14.3721C214.981 13.9607 214.954 13.4944 214.927 12.9733C214.242 13.2476 213.53 13.4944 212.817 13.6864C212.187 13.851 212.16 13.8236 211.913 13.1927C211.694 12.699 211.42 12.2053 211.174 11.8488C210.872 12.7539 210.544 13.5493 209.969 14.5915C209.722 15.003 209.64 15.1675 209.503 15.1675C209.393 15.1675 209.256 15.0852 209.01 14.9481C208.462 14.6464 207.832 14.3995 207.394 14.2898C208.078 13.2476 208.435 12.4247 208.791 11.5471H207.229V18.6783C207.229 19.9125 207.311 21.037 207.311 22.1342C207.311 23.2861 207.147 23.8895 206.435 24.4929C205.942 24.8769 205.257 25.0415 203.203 25.0415C202.381 25.0415 202.381 25.0141 202.189 24.1912C202.025 23.5055 201.778 22.8747 201.45 22.4359C202.299 22.5456 202.956 22.573 203.696 22.573C204.463 22.573 204.654 22.3536 204.654 21.7776V16.9503C204.654 16.1001 204.654 15.2498 204.682 14.3995C203.997 16.2921 203.038 18.1571 201.477 20.0496C201.23 20.3239 201.066 20.4885 200.902 20.4885C200.737 20.4885 200.6 20.3239 200.409 19.9674C200.107 19.3914 199.669 18.8428 199.286 18.5137C201.176 16.7309 202.737 14.0156 203.696 11.5471H203.394C201.093 11.5471 200.326 11.6019 200.162 11.6019C199.888 11.6019 199.861 11.5745 199.861 11.2728V9.46256C199.861 9.16085 199.888 9.13342 200.162 9.13342C200.326 9.13342 201.093 9.18828 203.394 9.18828H204.901C203.942 8.25574 202.929 7.48776 201.806 6.6375C201.696 6.55522 201.614 6.47294 201.614 6.41808C201.614 6.3358 201.696 6.28094 201.833 6.14381L202.956 5.18384C203.23 4.93699 203.312 4.93699 203.559 5.10155L205.202 6.28094C205.969 5.48554 206.654 4.71756 207.311 3.78502H203.805C201.641 3.78502 200.929 3.83988 200.765 3.83988C200.491 3.83988 200.463 3.81245 200.463 3.53817V1.56338C200.463 1.2891 200.491 1.26167 200.765 1.26167C200.929 1.26167 201.641 1.31653 203.805 1.31653H208.544C208.791 1.31653 208.982 1.26167 209.092 1.20682C209.229 1.15196 209.339 1.09711 209.475 1.09711C209.695 1.09711 209.941 1.26167 210.516 1.86508C211.146 2.52335 211.256 2.7702 211.256 3.04447C211.256 3.2639 211.092 3.42846 210.872 3.5656C210.626 3.7576 210.407 4.00444 210.105 4.38843C209.202 5.59525 208.27 6.71979 207.038 7.84432C207.257 8.06374 207.476 8.31059 207.722 8.53001C207.914 8.72201 207.914 8.80429 207.613 9.05114L207.448 9.18828H209.174C209.448 9.18828 209.53 9.16085 209.695 9.07857C209.804 9.02371 209.914 8.99628 210.051 8.99628C210.215 8.99628 210.489 9.13342 211.009 9.62712C211.667 10.2305 211.804 10.5048 211.804 10.7517C211.804 10.9437 211.749 11.0534 211.53 11.2454C211.448 11.3002 211.393 11.3551 211.338 11.4373C213.091 11.0259 214.653 10.45 215.94 9.65455C215.118 8.85915 214.379 7.95403 213.803 7.02149L212.653 8.33802C212.434 8.58487 212.297 8.69458 212.133 8.69458C211.996 8.69458 211.859 8.58487 211.667 8.33802C211.229 7.81689 210.599 7.35062 210.105 7.07635C212.023 5.43068 213.256 3.62046 214.132 1.7828C214.433 1.15196 214.625 0.60341 214.735 0C215.529 0.137138 216.57 0.383988 217.255 0.548553C217.501 0.60341 217.638 0.713121 217.638 0.905114C217.638 1.06968 217.529 1.20682 217.364 1.31653C217.2 1.42624 216.981 1.75537 216.817 2.08451C216.68 2.35878 216.57 2.63306 216.433 2.87991H221.09C223.226 2.87991 223.911 2.82505 224.076 2.82505C224.349 2.82505 224.377 2.85248 224.377 3.12676V4.90956C224.377 5.18383 224.349 5.21126 224.076 5.21126C223.939 5.21126 223.5 5.18383 222.377 5.15641C221.802 6.91178 220.925 8.39288 219.857 9.59969C221.336 10.5048 223.117 11.1356 225.144 11.4099C224.76 11.9585 224.432 12.6442 224.213 13.3299C223.884 14.1527 223.884 14.1527 223.062 13.9333C221.227 13.3573 219.474 12.4796 217.912 11.3276C217.145 11.8762 216.351 12.3425 215.502 12.7265C216.214 12.7813 216.926 12.8636 217.584 12.9459C217.912 13.0007 218.077 13.1104 218.077 13.275C218.077 13.4944 217.994 13.6316 217.858 13.8236C217.721 14.0156 217.666 14.3173 217.611 14.9481L217.529 15.4418H219.556C222.021 15.4418 222.87 15.3869 223.035 15.3869C223.309 15.3869 223.363 15.4692 223.363 15.7435L223.254 17.4166C223.089 20.1045 222.952 21.8324 222.35 23.0118C221.857 24.1364 221.062 24.8769 219.282 24.8769C218.816 24.8769 218.296 24.8769 217.721 24.8495C216.954 24.7946 216.954 24.7946 216.762 23.8895C216.625 23.2587 216.406 22.6827 216.159 22.1616C216.954 22.2987 217.748 22.4084 218.515 22.4084C219.2 22.4084 219.556 22.2987 219.83 21.8324C220.213 21.1742 220.378 19.6931 220.515 17.7457ZM219.611 5.15641H215.557C216.132 6.25351 216.899 7.24091 217.83 8.1186C218.597 7.29577 219.2 6.30837 219.611 5.15641Z" fill="#DE133F"/>
<path d="M179.755 18.5685H175.317C172.852 18.5685 172.03 18.6234 171.866 18.6234C171.564 18.6234 171.537 18.596 171.537 18.3217V16.7035C171.537 16.4017 171.564 16.3743 171.866 16.3743C172.03 16.3743 172.852 16.4292 175.317 16.4292H182.083V14.9481H178.221C175.564 14.9481 174.605 15.0029 174.441 15.0029C174.167 15.0029 174.167 14.9755 174.167 14.7012V13.1379C174.167 12.8361 174.167 12.8087 174.441 12.8087C174.605 12.8087 175.564 12.8636 178.221 12.8636H182.083V11.4099H176.933C174.304 11.4099 173.427 11.4648 173.263 11.4648C172.961 11.4648 172.934 11.4373 172.934 11.1905V9.57225C172.934 9.29797 172.961 9.27055 173.263 9.27055C173.427 9.27055 174.304 9.3254 176.933 9.3254H178.604C178.303 8.66714 178.029 8.11858 177.728 7.59746C177.591 7.35061 177.563 7.2409 177.919 7.13118L179.7 6.63749H175.317C172.852 6.63749 172.03 6.69234 171.866 6.69234C171.564 6.69234 171.537 6.66492 171.537 6.39064V4.69012C171.537 4.38842 171.564 4.36099 171.866 4.36099C172.03 4.36099 172.852 4.41584 175.317 4.41584H175.509C175.071 3.53816 174.578 2.85247 173.948 2.05706C173.783 1.86507 173.838 1.75536 174.167 1.59079L175.755 0.850243C176.029 0.713105 176.112 0.740532 176.276 0.959954C176.933 1.75536 177.618 2.6879 178.111 3.62044C178.248 3.86729 178.248 3.89472 177.892 4.08671L177.235 4.41584H179.782V2.60562C179.782 1.64565 179.782 0.987382 179.618 0.219406C180.467 0.246833 181.535 0.301688 182.275 0.383972C182.494 0.411399 182.604 0.493682 182.604 0.630821C182.604 0.795387 182.549 0.932525 182.494 1.09709C182.412 1.28909 182.33 1.7005 182.33 2.60562V4.41584H184.548V2.63304C184.548 1.64565 184.548 0.987382 184.384 0.219406C185.206 0.246833 186.274 0.301688 187.014 0.411399C187.26 0.438827 187.37 0.52111 187.37 0.658248C187.37 0.795387 187.315 0.959954 187.26 1.09709C187.178 1.28909 187.096 1.7005 187.096 2.60562V4.41584H188.794C189.287 3.64787 189.671 2.96217 190.054 2.16677C190.246 1.75536 190.41 1.34394 190.52 0.685676C191.479 0.87767 192.437 1.15195 193.177 1.3988C193.424 1.48108 193.533 1.61822 193.533 1.75536C193.533 1.97478 193.423 2.08449 193.259 2.22163C193.067 2.38619 192.93 2.55076 192.793 2.74275C192.437 3.31874 192.054 3.86729 191.67 4.41584H192.054C194.519 4.41584 195.341 4.36099 195.505 4.36099C195.779 4.36099 195.807 4.38842 195.807 4.69012V6.39064C195.807 6.66492 195.779 6.69234 195.505 6.69234C195.341 6.69234 194.519 6.63749 192.054 6.63749H187.26C187.972 6.77463 188.602 6.91176 189.424 7.13118C189.643 7.18604 189.78 7.29575 189.78 7.46032C189.78 7.65231 189.643 7.78945 189.479 7.87173C189.342 7.95402 189.205 8.25572 189.096 8.44772L188.602 9.3254H190.383C193.013 9.3254 193.889 9.27055 194.054 9.27055C194.327 9.27055 194.355 9.29797 194.355 9.57225V11.1905C194.355 11.4373 194.327 11.4648 194.054 11.4648C193.889 11.4648 193.013 11.4099 190.383 11.4099H184.85V12.8636H189.205C191.89 12.8636 192.821 12.8087 192.985 12.8087C193.259 12.8087 193.287 12.8361 193.287 13.1379V14.7012C193.287 14.9755 193.259 15.0029 192.985 15.0029C192.821 15.0029 191.89 14.9481 189.205 14.9481H184.85V16.4292H192.054C194.519 16.4292 195.341 16.3743 195.505 16.3743C195.779 16.3743 195.807 16.4017 195.807 16.7035V18.3217C195.807 18.596 195.779 18.6234 195.505 18.6234C195.341 18.6234 194.519 18.5685 192.054 18.5685H187.178C189.479 20.1868 192.355 21.2564 196.3 22.1341C195.944 22.573 195.56 23.149 195.231 23.8895C195.012 24.4106 194.903 24.6026 194.629 24.6026C194.492 24.6026 194.3 24.5478 193.999 24.4655C190.301 23.3958 187.041 21.5856 184.795 19.5559C184.795 22.8198 184.932 24.5203 184.932 24.9866C184.932 25.2609 184.905 25.2883 184.631 25.2883H182.302C182.056 25.2883 182.028 25.2609 182.028 24.9866C182.028 24.5203 182.11 22.9295 182.138 19.6656C179.837 21.8599 176.988 23.3958 173.345 24.5752C173.044 24.6849 172.852 24.7398 172.715 24.7398C172.468 24.7398 172.359 24.5478 172.112 24.0266C171.756 23.3135 171.373 22.7375 171.017 22.381C174.66 21.4759 177.454 20.3513 179.755 18.5685ZM181.398 9.3254H185.891C186.137 8.85913 186.356 8.39286 186.63 7.7346C186.767 7.43289 186.822 7.15861 186.932 6.63749H179.946C180.029 6.66492 180.083 6.7472 180.166 6.85691C180.577 7.5426 181.015 8.36543 181.398 9.3254Z" fill="#DE133F"/>
<path d="M159.293 14.6738H149.432C146.72 14.6738 145.679 15.0029 145.405 15.0029C145.076 15.0029 144.857 14.8384 144.775 14.427C144.638 13.7961 144.474 12.507 144.364 11.1082C146.145 11.3825 147.514 11.4373 150.281 11.4373H159.101C161.183 11.4373 163.292 11.3825 165.401 11.3551C165.812 11.3276 165.894 11.4099 165.894 11.7391C165.949 12.5619 165.949 13.4944 165.894 14.3173C165.894 14.6464 165.785 14.7561 165.401 14.7287C163.347 14.7012 161.32 14.6738 159.293 14.6738Z" fill="#DE133F"/>
<path d="M130.778 19.6108H132.065C133.161 19.6108 134.366 19.5834 135.407 19.5834C135.872 19.5559 135.982 19.6382 136.009 20.0771C136.037 20.5982 136.037 21.2839 136.009 21.805C135.982 22.3261 135.9 22.3536 135.489 22.3536C134.256 22.3536 132.941 22.3261 131.681 22.3261H121.601C120.478 22.3261 119.41 22.3261 118.067 22.381C117.766 22.381 117.657 22.2439 117.602 21.8324C117.492 21.2565 117.465 20.3788 117.465 19.5285C119.026 19.6382 120.04 19.6382 121.409 19.6382H127.764L128.696 12.9733H124.286C123.217 12.9733 121.985 13.0282 121.272 13.0556C120.944 13.083 120.834 13.0007 120.779 12.5345C120.697 11.9585 120.642 11.0808 120.588 10.1757C122.423 10.258 123.245 10.3128 124.395 10.3128H128.175C129.161 10.3128 129.408 10.2305 129.791 10.066C129.901 9.98368 130.011 9.95625 130.093 9.95625C130.23 9.95625 130.367 10.0385 130.504 10.1208C130.997 10.4774 131.736 11.0808 132.175 11.6293C132.339 11.7939 132.421 11.9585 132.421 12.123C132.421 12.2876 132.339 12.4522 132.175 12.6167C131.818 13.0007 131.736 13.3024 131.627 13.9881L130.778 19.6108Z" fill="#DE133F"/>
<path d="M95.3748 6.85692V10.6694C97.7854 9.87397 99.8672 9.07857 102.059 8.00889C103.538 7.29577 104.223 6.85692 104.99 6.03409C105.948 6.8295 106.852 7.95403 107.263 8.50259C107.4 8.66715 107.482 8.83172 107.482 8.99628C107.482 9.21571 107.345 9.4077 107.017 9.48998C106.25 9.68198 105.483 10.066 104.743 10.3951C102.031 11.6293 98.9632 12.7265 95.3475 13.7961V17.444C95.3475 18.7331 95.5392 19.172 96.2514 19.3914C96.9636 19.5834 98.0319 19.6931 99.7028 19.6931C102.278 19.6931 104.579 19.5011 107.427 19.0622C107.838 19.0074 107.893 19.1171 107.921 19.4462C108.003 20.2142 108.085 21.2565 108.085 21.8324C108.085 22.189 107.921 22.2987 107.51 22.3261C104.414 22.7101 102.826 22.8198 99.3741 22.8198C96.9362 22.8198 95.3201 22.573 94.1696 22.0793C92.8 21.5033 92.2247 20.2142 92.2247 17.9651V7.84432C92.2247 5.23869 92.1699 4.19644 91.9508 2.82505C93.2382 2.96219 94.5257 3.12676 95.4022 3.37361C95.7309 3.45589 95.8405 3.62046 95.8405 3.81245C95.8405 4.00444 95.7583 4.19644 95.6488 4.38843C95.4296 4.82727 95.3748 5.56782 95.3748 6.85692ZM105.373 3.75759L106.825 2.74277C106.962 2.63306 107.071 2.66049 107.236 2.79762C108.085 3.45589 109.071 4.553 109.838 5.73239C109.948 5.89696 109.948 6.03409 109.756 6.17123L108.605 7.02149C108.414 7.15863 108.277 7.1312 108.14 6.93921C107.318 5.67753 106.441 4.63528 105.373 3.75759ZM107.893 1.94737L109.263 0.95997C109.427 0.850259 109.509 0.877686 109.674 1.01482C110.687 1.7828 111.673 2.87991 112.276 3.83988C112.385 4.00444 112.413 4.16901 112.194 4.33358L111.098 5.18384C110.879 5.3484 110.742 5.26612 110.632 5.10155C109.893 3.92216 109.016 2.87991 107.893 1.94737Z" fill="#DE133F"/>
<path d="M67.0238 8.25573L66.9416 18.3491C69.0508 17.5263 71.1052 16.5663 73.9266 14.8932C77.0767 13.0281 78.9668 11.4922 81.1856 9.29798C81.213 10.5597 81.3773 11.6568 81.6239 12.4796C81.7882 13.0007 81.706 13.275 81.3499 13.5767C79.1038 15.4692 76.8302 16.9777 74.5019 18.2943C72.4201 19.5285 70.2835 20.5982 67.7908 21.6953C67.1059 21.997 66.6129 22.2713 66.2568 22.573C66.0924 22.7101 65.9281 22.7924 65.7637 22.7924C65.5994 22.7924 65.4624 22.7101 65.2981 22.573C64.668 22.0519 64.1202 21.4484 63.6271 20.7079C63.5176 20.5708 63.4628 20.4336 63.4628 20.2691C63.4628 20.1319 63.5176 19.9674 63.5997 19.8028C63.7093 19.5285 63.7093 19.0074 63.7093 18.2394L63.7641 7.92659C63.7641 5.67752 63.6819 4.33357 63.4628 3.15417C64.9967 3.34617 66.3937 3.56559 67.0238 3.75758C67.2977 3.83987 67.462 4.00443 67.462 4.27871C67.462 4.41585 67.4073 4.60784 67.3251 4.85469C67.1333 5.40325 67.0238 6.30836 67.0238 8.25573Z" fill="#DE133F"/>
<path d="M44.5348 6.7472V6.69235C41.1929 7.32318 38.2619 7.89916 35.3309 8.50257C34.29 8.74942 34.0161 8.80428 33.6052 8.94142C33.4135 9.0237 33.2217 9.16084 33.0026 9.16084C32.8108 9.16084 32.5917 8.99627 32.4821 8.74942C32.126 8.00888 31.8247 7.04891 31.4686 5.78723C32.8656 5.73238 33.6874 5.62267 35.824 5.32096C39.1933 4.82726 45.2196 3.92215 52.2868 2.98961C52.6977 2.93475 52.8346 3.09932 52.862 3.29131C52.999 3.92215 53.1359 4.93697 53.1633 5.70495C53.1633 6.03408 52.999 6.11636 52.6429 6.11636C51.3554 6.19865 50.4789 6.33579 49.301 6.71977C44.6443 8.31058 42.316 11.5196 42.316 14.8109C42.316 18.3491 44.8361 20.2691 49.6023 20.5708C50.0406 20.5708 50.205 20.6805 50.205 20.9822C50.205 21.6953 50.0954 22.6553 49.9036 23.341C49.8215 23.7524 49.7119 23.9169 49.3832 23.9169C44.5621 23.9169 39.2754 21.1467 39.2754 15.4418C39.2754 11.5471 41.2203 8.91399 44.5348 6.7472ZM48.5066 10.6694L49.9584 9.65454C50.0954 9.54483 50.205 9.57225 50.3693 9.70939C51.2185 10.3677 52.2046 11.4648 52.9716 12.6442C53.0812 12.8087 53.0812 12.9459 52.8894 13.083L51.7389 13.9333C51.5472 14.0704 51.4102 14.043 51.2733 13.851C50.4515 12.5893 49.5749 11.547 48.5066 10.6694ZM51.0267 8.85913L52.3963 7.87174C52.5607 7.76203 52.6429 7.78945 52.8072 7.92659C53.8207 8.69457 54.8069 9.79168 55.4095 10.7516C55.5191 10.9162 55.5465 11.0808 55.3273 11.2453L54.2316 12.0956C54.0125 12.2602 53.8755 12.1779 53.766 12.0133C53.0264 10.8339 52.1498 9.79168 51.0267 8.85913Z" fill="#1F1F1F"/>
<path d="M25.5171 1.91994V23.2038H21.7917V1.91994H25.5171Z" fill="#1F1F1F"/>
<path d="M10.9843 1.91994L17.5311 23.2038H13.6688L11.8609 16.9503H5.3415L3.50621 23.2038H0L6.51937 1.91994H10.9843ZM11.2035 14.2075L9.9708 9.9014C9.50513 8.22831 9.17642 6.66493 8.71075 4.66271H8.46422C7.99855 6.69236 7.61506 8.22831 7.14939 9.87397L5.99891 14.2075H11.2035Z" fill="#1F1F1F"/>
</svg>
