<svg width="234" height="120" viewBox="0 0 234 120" fill="none" xmlns="http://www.w3.org/2000/svg">
<path d="M107.233 41.9145C106.125 41.6734 100.443 42.6835 100.483 42.1624C100.502 41.9116 98.9674 36.0628 98.9674 36.0628C100.494 35.1333 102.948 35.8285 103.895 34.3011C104.054 34.0435 104.653 33.1529 104.692 32.8515C104.73 32.5501 104.118 32.1185 103.863 31.9561C103.517 31.7345 99.6711 33.2054 100.028 32.3849C100.171 32.0553 101.426 30.351 101.581 30.0263C101.951 29.2456 102.556 28.6088 103.04 27.8942C103.757 26.8345 104.207 25.59 104.335 24.3126C104.379 23.8692 104.321 23.3131 103.913 23.1449C103.487 22.969 103.055 23.3627 102.761 23.7205L102.635 23.6359C102.877 23.1537 103.126 22.6481 103.133 22.1066C103.14 21.5651 102.824 20.9779 102.3 20.867C101.587 20.7173 101.027 21.4484 100.65 22.0784L100.063 22.722C100.18 22.4449 99.8227 22.1601 99.5319 22.2242C99.241 22.2894 99.0422 22.5519 98.8685 22.7969C97.7933 24.3164 96.7181 25.836 95.6438 27.3556C94.3699 29.1571 93.0844 30.9781 92.2406 33.0226C91.487 34.8475 91.1049 36.8026 90.7267 38.7422C90.3676 40.5836 90.0086 42.4259 89.6505 44.2673C89.4489 45.3037 89.2463 46.342 88.9305 47.3482C88.054 50.1404 86.302 52.7314 86.2761 55.6607L86.2377 55.1823C85.9669 57.2172 85.7836 59.2637 85.6885 61.3151L86.8665 60.9816C88.9305 61.2334 91.007 61.3812 93.0864 61.424C93.2755 61.4279 93.4867 61.422 93.6201 61.2859C93.7526 61.1508 93.7584 60.9379 93.7564 60.7473C93.7372 58.2701 93.9974 55.791 94.5321 53.3731C94.5753 53.1786 94.6214 52.9803 94.7203 52.8082C94.8278 52.6206 94.992 52.4738 95.1533 52.3299C96.1027 51.486 97.0512 50.6421 98.0006 49.7972C98.5181 49.3374 99.0355 48.8766 99.553 48.4167C100.155 47.882 100.769 47.3385 101.502 47.0118C101.941 46.8164 102.876 46.5938 102.876 46.5938C102.876 46.5938 107.808 45.2171 109.058 44.9187L107.231 41.9116L107.233 41.9145Z" fill="#FFD8BD"/>
<path d="M100.243 32.6484C100.17 32.6484 100.096 32.628 100.029 32.5862C99.84 32.4666 99.7834 32.2148 99.9014 32.0232L100 31.8628C101.424 29.5606 102.208 28.2929 103.527 25.8934C103.747 25.4929 103.921 25.1584 103.977 24.8045C104.03 24.4604 103.941 24.1298 103.747 23.9607C103.657 23.8819 103.515 23.842 103.384 23.8595C103.332 23.8664 103.236 23.8897 103.185 23.9665C103.066 24.1444 102.831 24.1979 102.648 24.09C102.465 23.982 102.396 23.7487 102.49 23.5562C102.706 23.1139 102.95 22.6112 102.935 22.13C102.923 21.7625 102.675 21.3376 102.337 21.3172C102.183 21.3075 102 21.3736 101.775 21.5204C101.331 21.8082 100.973 22.2146 100.74 22.6929C100.641 22.8951 100.399 22.9778 100.2 22.8786C100 22.7784 99.9187 22.5334 100.017 22.3312C100.315 21.7187 100.773 21.2005 101.34 20.8321C101.715 20.589 102.057 20.4811 102.387 20.5015C103.192 20.5521 103.717 21.3717 103.741 22.1028C103.752 22.4333 103.687 22.7503 103.589 23.0458C103.842 23.074 104.085 23.1761 104.274 23.3414C104.681 23.6962 104.872 24.3058 104.773 24.9329C104.691 25.4579 104.437 25.9197 104.233 26.2911C102.903 28.709 102.115 29.9835 100.685 32.2974L100.586 32.4578C100.509 32.5813 100.378 32.6493 100.244 32.6493L100.243 32.6484Z" fill="#FFBB8A"/>
<path d="M97.0368 28.6613C96.9158 28.6613 96.7939 28.6244 96.6883 28.5486C96.4157 28.3531 96.3514 27.9711 96.5443 27.695C97.8912 25.768 98.135 25.3529 99.0423 23.808C99.2899 23.3861 99.5866 22.8825 99.9658 22.2428C100.138 21.9531 100.51 21.8597 100.796 22.0337C101.082 22.2078 101.174 22.585 101.003 22.8747C100.623 23.5125 100.329 24.0141 100.082 24.4341C99.1786 25.9712 98.9059 26.4359 97.5322 28.4027C97.4141 28.5719 97.2278 28.6613 97.0378 28.6613H97.0368Z" fill="#FFBB8A"/>
<path d="M97.3834 30.9353C97.2557 30.9353 97.1261 30.8945 97.0167 30.8099C96.7507 30.6048 96.6999 30.2207 96.9034 29.9514C98.0669 28.4085 98.8071 27.4295 99.5472 26.4515C100.288 25.4715 101.029 24.4925 102.195 22.9466C102.398 22.6773 102.777 22.6258 103.043 22.8319C103.309 23.037 103.359 23.4211 103.156 23.6904C101.99 25.2372 101.249 26.2162 100.507 27.1972C99.768 28.1752 99.0279 29.1533 97.8653 30.6952C97.7463 30.8527 97.5658 30.9363 97.3843 30.9363L97.3834 30.9353Z" fill="#FFBB8A"/>
<path d="M92.8252 37.1808C92.7427 37.1808 92.6582 37.1633 92.5775 37.1274C92.2732 36.9893 92.1369 36.6267 92.2732 36.3175C92.4355 35.9519 92.5535 35.6603 92.6486 35.425C93.0451 34.4479 93.1814 34.1835 94.296 33.289C95.4096 32.3965 96.1488 32.3752 97.6205 32.3343C98.1379 32.3197 98.7821 32.3022 99.5923 32.241C99.9245 32.2167 100.215 32.4695 100.24 32.8068C100.265 33.1442 100.015 33.4378 99.6816 33.4631C98.8445 33.5263 98.184 33.5447 97.6541 33.5593C96.264 33.5982 95.8454 33.6099 95.0467 34.2496C94.1376 34.9788 94.1088 35.0478 93.767 35.8907C93.6681 36.1328 93.5462 36.4351 93.3763 36.8182C93.2755 37.0457 93.0547 37.1798 92.8243 37.1798L92.8252 37.1808Z" fill="#FFBB8A"/>
<path d="M92.8253 47.3959C92.6784 47.3959 92.5324 47.3425 92.4163 47.2336C92.1705 47.0041 92.1552 46.6172 92.3808 46.3683C93.7613 44.8497 95.1331 43.1892 95.423 41.0551C95.4845 40.604 95.4365 40.2278 95.3866 39.8292C95.3126 39.241 95.2291 38.5731 95.5498 37.7486C96.0854 36.3739 97.5063 35.0857 99.0835 35.4075C99.4109 35.4746 99.6231 35.7974 99.5568 36.1289C99.4906 36.4605 99.1719 36.6753 98.8445 36.6082C97.9469 36.4245 97.0358 37.2723 96.6749 38.1978C96.4675 38.7296 96.5203 39.1467 96.5866 39.6736C96.6422 40.1121 96.7046 40.6099 96.6211 41.2214C96.2842 43.7064 94.7808 45.5361 93.2707 47.1976C93.1517 47.3289 92.9885 47.395 92.8253 47.395V47.3959Z" fill="#FFBB8A"/>
<path d="M132.607 27.1087C133.973 30.7545 137.78 32.8457 141.49 33.8948C145.199 34.9428 149.137 35.287 152.612 36.9689C158.012 39.5813 161.676 45.5108 161.638 51.5706C161.621 54.1013 160.814 56.8935 158.645 58.1506C156.06 59.6488 152.802 58.3528 150.238 56.8177C143.334 52.6838 137.488 46.8622 132.852 40.2346C131.725 38.6236 130.641 36.9009 130.319 34.9535C129.998 33.0062 130.616 30.7749 132.607 27.1097V27.1087Z" fill="#0D2E61"/>
<path d="M101.031 21.3745C104.263 13.8807 109.879 12.1054 114.776 11.3461C119.914 10.5499 122.219 10.9378 126.839 13.3479C131.809 15.9398 134.379 20.4431 134.588 26.1005C135.19 42.4317 119.678 68.1585 102.175 27.7746C101.242 25.6221 101.535 23.5212 101.031 21.3745Z" fill="#0D2E61"/>
<path d="M142.321 47.7964C139.303 43.8677 135.149 38.1083 132.523 33.4747C131.97 40.0693 129.446 46.5238 125.28 51.9954C124.942 52.0586 124.604 52.1218 124.266 52.186C125.77 53.1815 121.004 67.2651 120.857 68.666C124.216 72.3672 143.999 70.6581 146.715 68.561C149.432 66.4649 142.633 48.2038 142.32 47.7964H142.321Z" fill="#FFD8BD"/>
<path d="M127.05 56.3801C127.127 56.418 129.186 55.9835 130.24 54.705C131.414 53.2807 131.872 51.8895 133.028 50.4856C133.593 49.8011 134.147 49.1099 134.659 48.3934C135.19 47.6477 135.657 46.8787 136.069 46.0756C136.637 44.9653 137.154 42.528 137.609 41.3769C135.403 38.3659 134.172 36.3817 132.524 33.4747C131.971 40.0693 129.448 46.5238 125.282 51.9954C124.944 52.0586 124.606 52.1218 124.268 52.186C124.817 54.3657 125.07 55.4079 127.05 56.3811L127.05 56.3801Z" fill="#FFBB8A"/>
<path d="M99.6778 25.7962C100.698 37.9518 111.295 49.0798 116.277 51.3392C121.017 53.4888 126.876 53.9662 130.115 49.8547C133.169 45.9784 134.951 36.6986 128.955 26.6382C125.8 21.3435 124.721 17.3778 118.699 16.3463C112.678 15.3157 106.131 17.4021 102.064 22.0162L99.6778 25.7952V25.7962Z" fill="#FFD8BD"/>
<path d="M111.692 22.3507C110.484 29.0395 109.535 32.5862 104.331 39.0738C101.681 35.0196 97.1635 31.8201 100.15 22.7493C102.126 16.7488 110.168 11.5698 116.538 12.8492C122.909 14.1287 129.848 23.2062 130.239 27.2993C126.354 28.2336 119.586 28.7284 111.692 22.3507Z" fill="#0D2E61"/>
<path d="M115.326 46.832C114.948 46.832 114.454 46.796 113.77 46.7085C113.455 46.6687 113.224 46.3887 113.242 46.0678C113.259 45.747 113.517 45.4942 113.835 45.4884L116.33 45.4427C116.623 45.4349 116.884 45.6508 116.936 45.9473C116.989 46.2428 116.821 46.5345 116.54 46.6337C116.224 46.7464 115.912 46.832 115.325 46.832H115.326Z" fill="#FFBB8A"/>
<path d="M144.988 58.4218L151.386 45.4777L147.988 103.515C147.988 103.515 136.58 103.259 120.084 104.686C120.084 85.4883 117.025 79.6735 120.857 65.7018C126.36 68.1148 143.478 71.221 144.988 58.4228V58.4218Z" fill="white"/>
<path d="M129.106 28.1023C128.738 27.238 129.516 26.1802 130.481 26.0062C131.446 25.8312 132.425 26.3669 132.989 27.1252C133.554 27.8835 133.755 28.6885 133.897 29.6151C134.293 32.1856 134.057 34.1553 131.832 36.6189C130.388 33.7353 130.55 31.5041 129.105 28.1033L129.106 28.1023Z" fill="#FFD8BD"/>
<path d="M117.598 50.4613C117.414 50.4613 117.232 50.3758 117.113 50.2153C116.914 49.9441 116.968 49.5601 117.236 49.3578C118.505 48.3983 120.077 47.8986 121.659 47.9491C121.993 47.9598 122.255 48.2427 122.245 48.5811C122.234 48.9126 121.965 49.1741 121.641 49.1741C121.634 49.1741 121.627 49.1741 121.622 49.1741C120.312 49.1323 119.011 49.5455 117.96 50.3398C117.852 50.4215 117.725 50.4613 117.599 50.4613H117.598Z" fill="#FF9B8A"/>
<path d="M124.433 54.705C121.774 54.1159 119.456 53.2001 116.737 53.3138C114.018 53.4276 111.226 54.3307 109.354 56.3316C107.459 58.3567 107.331 67.445 106.776 70.1779C104.332 82.2187 105.3 106.45 105.3 106.45L127.05 108.076C127.05 108.076 123.069 64.9085 124.433 54.7041V54.705Z" fill="#0D2E61"/>
<path d="M165.637 53.3002L173.751 108.857L155.433 108.849L165.637 53.3002Z" fill="#0D2E61"/>
<path d="M20 120L38.2786 96.625H213L194.721 120H20Z" fill="#EDEDED"/>
<path d="M108.88 56.9761L84.1209 85.254C84.1209 85.254 77.5227 97.5681 84.8745 100.241C92.2272 102.913 110.325 90.1219 110.325 90.1219C110.325 90.1219 112.722 61.9743 108.88 56.9761Z" fill="#0D2E61"/>
<path d="M85.7682 55.0813C90.5222 54.4727 91.4323 54.7634 96.1065 54.8606C97.7002 65.1739 100.362 90.679 98.567 96.1982C97.3008 100.092 83.4066 109.756 81.1621 94.8167C79.7106 85.1578 83.6898 61.5689 85.7682 55.0813Z" fill="#0D2E61"/>
<path d="M121.647 95.1881C116.905 96.3703 112.345 91.9098 107.492 92.1839C104.927 92.3288 102.582 93.7881 100.421 95.3349C97.9229 97.1218 95.5229 99.0779 93.2371 101.189C92.592 101.784 91.8893 102.657 92.1955 103.525C92.6265 104.748 94.2691 104.271 95.2771 103.59C94.4342 103.376 93.6873 104.561 93.9811 105.468C94.2739 106.375 95.2618 106.823 96.1152 106.67C96.9687 106.516 97.6963 105.898 98.3059 105.214C98.1658 106.006 100.169 106.118 100.029 106.909C101.51 107.422 105.984 106.863 106.992 105.519C109.283 104.352 109.849 104.044 112.14 102.877C114.845 103.773 114.435 104.499 117.257 104.529C122.274 104.583 127.389 101.892 132.159 103.63C130.698 99.8139 127.901 96.6561 121.648 95.1871L121.647 95.1881Z" fill="#FFD8BD"/>
<path d="M141.086 45.2833C147.554 44.1331 146.297 44.1273 153.014 43.4351C156.336 43.0929 166.576 43.8269 167.608 58.4208C169.216 81.1493 169.63 88.996 164.592 104.42C164.198 105.625 156.349 107.623 124.697 105.008C123.622 98.9272 124.695 96.1982 119.65 94.4278C131.469 93.1746 136.95 91.3303 144.622 90.0713C144.972 80.3433 143.341 76.6178 143.341 65.1505L141.085 45.2843L141.086 45.2833Z" fill="#0D2E61"/>
<path d="M109.146 110.904L120.084 106.412V104.686L102.095 103.848L100.984 110.904H109.146Z" fill="#DE133F"/>
<path d="M51.7762 108.525L44.46 72.83C44.0798 70.977 45.4776 69.2377 47.3467 69.2377H98.2819C99.6777 69.2377 100.883 70.2293 101.168 71.6128L108.531 107.308C108.913 109.162 107.516 110.904 105.645 110.904H54.663C53.2662 110.904 52.0604 109.91 51.7762 108.525Z" fill="#DE133F"/>
<path d="M73.9342 92.9296C75.493 92.9296 76.7566 91.6499 76.7566 90.0713C76.7566 88.4927 75.493 87.213 73.9342 87.213C72.3754 87.213 71.1118 88.4927 71.1118 90.0713C71.1118 91.6499 72.3754 92.9296 73.9342 92.9296Z" fill="white"/>
<path d="M91.4044 18.5596C91.15 18.5596 90.9129 18.3953 90.8294 18.1367L90.0499 15.7188C89.3692 16.2759 88.5062 16.8174 87.4953 16.8291C86.2262 16.8437 84.9705 15.9677 84.3023 14.6008C83.9106 13.8006 83.7388 12.9315 83.638 12.0944L78.8533 15.6148C78.6287 15.7801 78.1016 16.168 77.5016 15.959C76.9976 15.783 76.7115 15.2998 76.653 14.521L76.365 10.7343C76.315 10.078 76.171 9.98761 76.1422 9.97691C76.0866 9.95455 75.9272 9.96524 75.4961 10.2919L71.2865 13.4895C71.0196 13.6927 70.6404 13.6373 70.4398 13.367C70.2391 13.0968 70.2939 12.7127 70.5607 12.5095L74.7704 9.31192C75.0805 9.07664 75.8072 8.52442 76.5886 8.83747C77.4613 9.18747 77.541 10.2423 77.5717 10.64L77.8597 14.4267C77.8731 14.6085 77.8981 14.7126 77.9173 14.7699C77.9624 14.7476 78.0334 14.7048 78.1438 14.6241L83.7829 10.4757C83.9596 10.3454 84.1909 10.322 84.3897 10.4144C84.5884 10.5058 84.7218 10.6993 84.741 10.919C84.8322 11.9991 84.9273 13.1162 85.3881 14.0583C85.7654 14.8302 86.5535 15.6051 87.4665 15.6051C87.4722 15.6051 87.478 15.6051 87.4838 15.6051C88.3487 15.5953 89.1369 14.9333 89.9347 14.1973C90.0863 14.0573 90.2985 14.0048 90.4963 14.0583C90.695 14.1117 90.8534 14.2624 90.9168 14.4608L91.9804 17.7595C92.0841 18.0813 91.9104 18.4264 91.5936 18.5314C91.5312 18.5519 91.4678 18.5616 91.4054 18.5616L91.4044 18.5596Z" fill="#0D2E61"/>
<path d="M101.581 8.97842C101.299 8.97842 101.048 8.77911 100.989 8.48939C100.922 8.15787 101.132 7.83412 101.46 7.76606C101.512 7.75537 101.559 7.71259 101.6 7.6387C101.685 7.48315 101.702 7.25662 101.641 7.08648C101.5 6.69371 101.125 6.36899 100.726 6.02677L100.651 5.9626C100.09 5.47649 99.5511 4.92039 99.4138 4.14067C99.2295 3.09457 99.8304 2.27304 100.477 1.70235L98.4365 1.20944C98.112 1.13069 97.9114 0.80111 97.9882 0.471529C98.0659 0.14292 98.3914 -0.0612448 98.7168 0.0175046L102.074 0.82736C102.315 0.885693 102.496 1.08597 102.532 1.33388C102.568 1.5818 102.452 1.8268 102.238 1.95221C101.047 2.65513 100.498 3.31915 100.604 3.92387C100.675 4.32442 101.046 4.69192 101.437 5.03025L101.509 5.09344C101.986 5.50469 102.526 5.97038 102.777 6.66746C102.957 7.17009 102.911 7.77092 102.655 8.23564C102.442 8.62258 102.103 8.88217 101.702 8.96578C101.661 8.97453 101.62 8.97842 101.58 8.97842H101.581Z" fill="#0D2E61"/>
</svg>
