<svg width="234" height="120" viewBox="0 0 234 120" fill="none" xmlns="http://www.w3.org/2000/svg">
<g clip-path="url(#clip0_1_255)">
<path d="M166.454 101.22C166.028 98.9779 165.319 96.7519 164.928 94.9808C162.694 84.8887 160.564 72.5225 153.65 64.4648C152.065 62.6179 149.602 61.3719 147.225 61.8391C146.013 65.9934 145.229 70.2262 144.83 74.4866C143.849 74.9979 142.858 75.4941 141.533 75.9958C144.402 87.0513 146.242 98.8649 149.91 109.676C150.347 110.962 152.272 111.457 153.337 112.29C155.209 113.755 157.898 112.986 160.119 112.157C162.369 111.317 164.801 110.326 165.975 108.214C167.053 106.273 166.932 103.737 166.454 101.222V101.22Z" fill="#FF9B2F"/>
<path d="M128.318 46.883C126.703 52.0875 127.963 57.8875 130.288 62.8109C122.351 66.4262 115.388 65.7467 107.145 62.9115C109.698 56.7532 109.923 51.958 109.069 45.076C116.172 45.4496 121.062 44.7632 128.318 46.883Z" fill="#FFD3B6"/>
<path d="M114.879 13.5746C110.938 12.3424 106.58 14.3217 103.75 17.3526C99.5779 21.8183 98.0352 28.619 99.866 34.474C101.679 40.2699 106.308 44.6433 110.756 48.7382C117.033 47.4564 123.311 46.1732 129.588 44.8914C130.434 44.7177 131.327 44.522 131.962 43.9321C132.797 43.1547 132.972 41.9073 133.072 40.7647C133.535 35.4306 134.882 32.6147 134.243 27.2999C133.263 19.1444 130.059 14.7228 124.841 12.5409C121.2 11.0178 118 11.7415 114.879 13.5774V13.5746Z" fill="#0D2E61"/>
<path d="M103.411 29.0807C103.768 34.0647 104.139 39.1204 105.801 43.8273C107.463 48.5343 110.609 52.9311 115.134 54.9545C119.66 56.9779 125.627 56.0461 128.564 52.0228C130.126 49.8823 130.699 47.1766 131.027 44.5385C131.572 40.139 131.539 35.6663 130.929 31.275C130.451 27.8347 129.533 24.2773 127.176 21.7453C124.492 18.8633 120.343 17.7964 116.425 17.8778C113.156 17.9453 109.803 18.7723 107.249 20.8301C104.693 22.8879 103.215 26.3158 103.411 29.0807Z" fill="#FFD3B6"/>
<path d="M105.2 37.8413C103.979 37.3575 102.491 37.9143 101.733 38.9949C100.976 40.0755 100.909 41.56 101.4 42.7867C101.892 44.0134 102.882 44.9934 104.022 45.6467C105.162 46.3 106.448 46.6529 107.739 46.8817C106.538 43.8287 105.663 40.6448 105.201 37.8399L105.2 37.8413Z" fill="#FFD3B6"/>
<path d="M130.301 34.073C130.332 32.7939 131.824 31.8911 133.049 32.2191C134.273 32.5472 135.101 33.7987 135.249 35.0695C135.398 36.3403 134.982 37.6138 134.415 38.7578C133.525 40.5538 132.243 42.1499 130.69 43.4028C130.488 40.2712 130.224 37.1369 130.301 34.0743V34.073Z" fill="#FFD3B6"/>
<path d="M117.328 22.1395C114.097 19.0907 111.408 21.0162 109.436 23.3386C107.465 25.6611 107.655 26.8203 107.145 29.8346C106.609 33.002 106.09 36.2686 102.841 37.6662C103.795 36.0329 103.141 36.0633 102.917 34.1805C102.693 32.2977 102.221 30.4356 102.228 28.539C102.24 25.0739 103.96 21.6571 106.726 19.6061C109.492 17.5552 113.481 15.6297 116.759 16.6538C119.046 14.5946 122.589 16.3671 124.933 18.3588C127.278 20.3504 129.503 22.4634 131.413 24.8837C133.23 27.1855 129.813 30.3391 133.05 32.2205C130.814 33.1426 128.557 34.2108 126.822 32.5141C125.088 30.8174 122.628 19.7564 117.328 22.1409V22.1395Z" fill="#0D2E61"/>
<path d="M128.482 54.4803C125.028 56.5134 121.894 60.8027 118.441 62.8357C120.097 65.8032 121.502 68.9141 122.635 72.1228C126.371 69.38 130.001 66.4896 133.514 63.4587C131.969 60.9915 130.104 56.268 128.483 54.4817L128.482 54.4803Z" fill="#F5F5F5"/>
<path d="M118.44 62.8357C115.096 64.9928 112.333 67.6695 110.273 71.0932C107.992 67.3855 105.709 63.6778 103.428 59.9688C105.454 58.1191 107.205 55.9634 108.607 53.5955C110.693 57.707 114.497 61.1059 118.438 62.8343L118.44 62.8357Z" fill="#F5F5F5"/>
<path d="M104.984 59.6559C102.375 60.5808 99.7676 61.5056 97.1587 62.4305C100.381 71.7162 102.797 81.2886 104.368 90.9989C115.806 90.9975 127.244 91.7101 138.594 93.1339C136.913 87.7584 137.881 81.9309 139.146 76.4397C140.41 70.9485 141.967 65.3801 141.421 59.769C136.597 60.9419 130.288 58.5298 130.288 58.5298C130.288 58.5298 122.613 63.6021 118.788 63.3291C114.287 62.2734 109.754 61.3582 104.985 59.6559H104.984Z" fill="#F5F5F5"/>
<path d="M104.412 59.0246L120.034 95.5046L131.786 58.6539L149.019 61.7937L148.022 120H94.9157L87.7716 66.9817L104.412 59.0246Z" fill="#FF9B2F"/>
<path d="M104.912 71.8981C106.602 67.1209 107.828 62.1769 108.567 57.1584C112.46 53.8959 118.027 52.7974 122.849 54.3397C123.52 54.5534 124.318 55.2232 123.913 55.8021C123.701 56.104 123.278 56.1371 122.911 56.1412C120.972 56.1619 119.034 56.1826 117.095 56.2032C119.105 56.4582 121.04 57.2797 122.628 58.5477C123.193 58.9998 123.729 59.5264 124.007 60.1976C124.286 60.8688 124.251 61.7124 123.767 62.2513C123.282 62.7902 122.309 62.8522 121.873 62.272C122.684 62.6317 123.072 63.7344 122.668 64.531C122.264 65.3277 121.151 65.6543 120.388 65.1995C121.045 65.1389 121.698 65.6723 121.78 66.3325C121.862 66.9927 121.356 67.6708 120.705 67.7742C119.361 67.9878 118.176 66.8686 116.911 67.3703C116.55 69.3882 116.201 70.6756 115.155 72.4329C114.109 74.1916 112.238 75.5989 110.21 75.4845C108.134 75.366 106.478 73.7644 104.912 71.8967V71.8981Z" fill="#FFD3B6"/>
<path d="M110.446 56.6319C111.772 55.6354 113.506 55.1199 115.029 54.5231C115.877 54.1909 116.803 53.6534 117.73 53.6809C118.725 53.7099 119.675 54.1785 120.608 54.4831C121.094 54.6416 121.573 54.7257 122.07 54.8291C122.303 54.8787 122.905 55.0041 122.993 55.2839C123.125 55.7029 122.309 55.758 122.016 55.7608C120.436 55.7691 118.904 54.8139 117.365 55.5541C116.665 55.8904 116.025 56.3493 115.367 56.7587C114.807 57.106 114.106 57.6326 113.429 57.6808C112.558 57.7428 112.551 59.1211 113.429 59.0591C115.07 58.942 116.436 57.6009 117.833 56.8579C118.549 56.4775 119.244 56.6622 120.081 56.8442C121.107 57.0674 122.22 57.3335 123.234 56.9213C123.902 56.6498 124.437 56.0627 124.396 55.3004C124.351 54.4624 123.623 53.9056 122.902 53.6382C122.381 53.4452 121.82 53.4108 121.286 53.2536C120.68 53.0758 120.094 52.8346 119.492 52.6431C118.355 52.2806 117.24 52.1703 116.112 52.621C114.924 53.0951 113.727 53.55 112.546 54.042C111.599 54.4362 110.584 54.8208 109.757 55.4438C109.061 55.9675 109.741 57.1639 110.446 56.6333V56.6319Z" fill="#FFBD91"/>
<path d="M113.296 59.1239C114.732 58.5078 116.268 57.7663 117.861 57.7759C119.13 57.7828 120.178 58.3451 121.2 59.0508C122.055 59.6394 122.989 60.3327 123.621 61.1721C123.653 61.2162 123.763 61.3444 123.771 61.4023C123.794 61.5608 123.726 61.3664 123.589 61.3926C123.159 61.4753 122.879 61.6366 122.406 61.5608C121.607 61.4326 120.862 61.0411 120.082 60.8344C119.231 60.6083 118.868 61.937 119.719 62.1631C120.762 62.4401 121.767 62.9997 122.871 62.9749C123.726 62.9556 124.673 62.5821 124.994 61.7179C125.468 60.4429 123.649 59.2052 122.814 58.5478C121.548 57.5512 120.168 56.6388 118.542 56.4444C116.452 56.1936 114.479 57.1309 112.605 57.9344C111.799 58.2804 112.494 59.4685 113.294 59.1239H113.296Z" fill="#FFBD91"/>
<path d="M114.412 62.1838C115.5 61.5235 116.385 60.5422 117.737 61.1486C118.937 61.6862 120.146 62.3492 121.2 63.1417C121.573 63.4229 121.984 63.9218 122.208 64.1506C122.111 64.0528 122.418 64.0335 122.232 64.0596C122.318 64.0472 122.141 64.0693 122.206 64.0638C122.016 64.0817 121.827 64.163 121.631 64.1809C121.182 64.2223 120.711 64.1947 120.265 64.1327C120.048 64.1024 119.836 64.0541 119.623 64.0018C119.41 63.9494 119.484 63.988 119.356 63.8942C118.643 63.3732 117.962 64.5682 118.666 65.0837C119.317 65.5606 120.482 65.5772 121.247 65.573C122.075 65.5689 123.316 65.4283 123.541 64.4345C123.827 63.1734 122.18 62.1245 121.323 61.5594C120.351 60.9198 119.311 60.3534 118.25 59.8778C117.485 59.536 116.67 59.4368 115.868 59.7111C115.065 59.9853 114.442 60.5573 113.723 60.9943C112.971 61.4505 113.656 62.6427 114.412 62.1838Z" fill="#FFBD91"/>
<path d="M116.004 64.6689C116.541 64.4511 117.129 64.141 117.672 64.4525C118.137 64.7185 118.582 65.0259 119.047 65.2932C119.556 65.5854 120.063 65.8997 120.526 66.2622C120.732 66.4235 120.941 66.5971 121.113 66.7942C121.159 66.8466 121.36 67.154 121.319 67.0547C121.231 66.8452 121.496 66.8728 121.073 66.9748C120.861 67.0258 120.647 67.0244 120.433 67.0478C120.218 67.0713 120.437 67.0699 120.419 67.0616C119.945 66.87 119.507 66.6068 119.018 66.4497C117.653 66.01 116.359 66.3862 115.644 67.6846C115.216 68.4606 116.395 69.1567 116.822 68.3807C117.649 66.8783 118.941 68.0967 120.067 68.3931C121.193 68.6894 123.204 67.9479 122.548 66.4869C122.045 65.3691 120.647 64.6151 119.634 64.0445C119.117 63.7537 118.628 63.3677 118.094 63.1169C117.285 62.7351 116.423 63.0232 115.641 63.3402C114.859 63.6572 115.188 65.001 116.004 64.6689Z" fill="#FFBD91"/>
<path d="M137.155 98.1385C134.204 96.4873 131.649 93.9898 129.862 91.003C129.536 90.4571 129.229 89.7652 129.511 89.2291C129.794 88.6929 130.542 88.6364 131.092 88.9065C131.642 89.1781 132.737 89.9058 133.186 90.3427C135.644 92.7272 139.152 93.1545 141.55 95.6065C142.185 96.2557 144.455 98.1537 143.929 98.8428C143.562 99.3225 140.63 98.3646 140.03 98.2984C138.301 98.1082 136.586 97.6092 137.157 98.1385H137.155Z" fill="#FFD3B6"/>
<path d="M100.232 71.752C104.333 74.5238 108.378 77.5589 112.004 80.9371C106.586 94.6886 106.091 97.1572 100.222 108.032C94.9691 117.764 82.6781 108.743 83.8877 99.9372C85.657 87.061 92.6373 81.392 100.232 71.752Z" fill="#FF9B2F"/>
<path d="M88.4706 66.8232C87.3771 66.9582 86.4433 67.7342 85.8453 68.6673C85.246 69.6005 84.9306 70.6852 84.6235 71.752C83.7934 74.6313 83.1108 76.3129 82.2808 79.1908C85.8071 79.0943 91.1928 83.9046 94.7192 83.8068C94.0092 81.4857 93.5628 75.8759 92.9731 73.5204C92.3833 71.1649 89.5505 68.2456 88.472 66.8218L88.4706 66.8232Z" fill="#FF9B2F"/>
<path d="M94.1266 82.8075C90.5252 82.5318 86.2303 78.1171 82.6289 77.8414C79.5381 89.3283 78.0022 104.005 77.6363 112.243C77.5039 115.224 80.0364 118.148 82.8801 118.961C87.3716 120.247 93.0126 119.683 95.2707 115.312C100.106 105.954 100.872 94.4874 103.903 84.3857C100.475 83.8192 97.0714 83.0322 94.1253 82.8061L94.1266 82.8075Z" fill="#FF9B2F"/>
<path d="M102.547 116.157C102.547 116.157 99.5083 89.5489 94.2413 72.7251C103.007 70.7045 117.705 70.8561 128.466 68.7611C134.164 85.0886 138.224 112.408 138.224 112.408L102.547 116.156V116.157Z" fill="#F5F5F5"/>
<path d="M102.247 116.535L102.209 116.196C102.179 115.93 99.1124 89.4275 93.9164 72.8285L93.8044 72.4715L94.1649 72.3888C98.6414 71.3564 104.58 70.8947 110.868 70.404C116.894 69.9354 123.125 69.4488 128.402 68.422L128.691 68.3655L128.789 68.6453C134.433 84.8171 138.523 112.083 138.563 112.356L138.616 112.713L102.248 116.532L102.247 116.535ZM94.6795 72.9801C99.5096 88.6309 102.474 112.649 102.848 115.78L137.834 112.105C137.335 108.858 133.465 84.2864 128.242 69.1566C122.99 70.1532 116.856 70.6314 110.921 71.0932C104.828 71.5673 99.0646 72.0166 94.6795 72.9815V72.9801Z" fill="#CCCCCC"/>
<path d="M106.505 117.96C106.505 117.96 99.2448 92.198 91.3525 76.4562C99.6789 73.0311 114.207 70.7817 124.492 66.9583C132.729 82.1404 141.112 108.439 141.112 108.439L106.504 117.961L106.505 117.96Z" fill="#F5F5F5"/>
<path d="M106.27 118.383L106.177 118.055C106.105 117.797 98.8353 92.1442 91.0495 76.6119L90.8816 76.2784L91.2243 76.1378C95.4769 74.3887 101.263 72.9622 107.39 71.4529C113.26 70.0057 119.331 68.5102 124.374 66.6357L124.65 66.5337L124.792 66.7942C132.952 81.8316 141.355 108.071 141.438 108.334L141.547 108.677L106.269 118.383H106.27ZM91.8263 76.6368C99.0988 91.2924 105.872 114.512 106.741 117.54L140.679 108.202C139.667 105.078 131.912 81.4622 124.335 67.3841C119.312 69.2242 113.335 70.6976 107.552 72.1228C101.615 73.5852 95.9984 74.9704 91.8263 76.6368Z" fill="#CCCCCC"/>
<path d="M137.701 96.7712C133.718 95.029 129.673 93.4688 125.58 92.0959C124.066 91.5887 122.259 91.1615 121.083 92.2448C121.218 93.0553 121.836 93.7623 122.575 93.9512C121.948 93.4453 121.15 93.1324 120.403 93.3006C119.656 93.4674 119.018 94.2103 119.079 95.0428C119.139 95.8767 120.052 96.581 120.962 96.4983C120.396 96.0186 119.492 96.4721 119.312 97.2068C119.132 97.9414 119.522 98.7505 120.081 99.2398C120.64 99.7291 121.341 99.9675 122.022 100.196L121.106 100.334C120.35 100.447 120.036 101.397 120.591 101.927C120.938 102.258 121.386 102.527 121.795 102.724C125.78 104.637 127.424 106.308 131.412 108.215C135.703 109.729 135.674 108.018 140.096 108.86C142.168 110.175 149.417 116.647 151.49 117.963C152.549 113.975 155.499 106.804 155.856 102.646C152.527 101.389 149.654 101.464 146.963 99.5237C144.272 97.583 140.796 95.9993 137.701 96.7726V96.7712Z" fill="#FFD3B6"/>
<path d="M121.891 93.8381C125.692 95.6355 129.789 96.949 133.384 99.1598C134.137 99.6229 134.823 98.4307 134.074 97.9703C130.478 95.7595 126.381 94.446 122.58 92.6487C121.79 92.2751 121.095 93.4619 121.891 93.8381Z" fill="#FFBD91"/>
<path d="M120.885 97.1323C122.765 98.2474 124.788 99.1419 126.763 100.063C128.68 100.956 130.602 101.841 132.55 102.664C133.36 103.005 133.714 101.673 132.914 101.335C131.072 100.556 129.144 99.6629 127.294 98.7987C125.445 97.9345 123.404 97.0276 121.574 95.9429C120.815 95.4921 120.127 96.683 120.885 97.1323Z" fill="#FFBD91"/>
<path d="M122.376 100.916C125.623 102.584 129.008 103.938 132.322 105.459C133.117 105.823 133.81 104.636 133.012 104.269C129.697 102.749 126.313 101.394 123.065 99.7263C122.284 99.3252 121.592 100.513 122.376 100.916Z" fill="#FFBD91"/>
<path d="M146.428 98.5658C150.278 99.696 148.918 104.75 148.227 108.013C147.536 111.275 144.327 112.524 141.533 114.308C148.101 119.706 164.603 118.733 166.806 107.569C167.638 103.357 165.833 100.085 160.661 98.5658C157.515 97.6423 148.422 96.552 146.428 98.5658Z" fill="#FF9B2F"/>
<path d="M115.383 44.3511C115.446 44.93 115.5 45.564 116.035 45.9099C116.646 46.3041 117.552 46.1401 118.238 46.1374C119.115 46.1346 119.118 44.7563 118.238 44.759C117.982 44.759 117.727 44.7632 117.473 44.7646C117.332 44.7646 116.919 44.6887 116.79 44.7508C116.805 44.7439 116.643 44.7232 116.799 44.7866C116.902 44.8293 116.816 44.8045 116.816 44.7783C116.819 44.6502 116.76 44.4779 116.747 44.3497C116.707 43.9803 116.461 43.6605 116.064 43.6605C115.726 43.6605 115.341 43.9775 115.382 44.3497L115.383 44.3511Z" fill="#FFBD91"/>
<path d="M129.578 33.1178C129.963 34.0316 130.261 34.9827 130.467 35.9544C130.567 36.4244 131.23 36.4423 131.348 35.9751C131.715 34.5127 131.764 32.969 131.477 31.4886C130.968 31.9311 130.355 32.2536 129.577 33.1178H129.578Z" fill="#0D2E61"/>
<path d="M104.076 36.3651C104.132 37.6069 104.329 38.8419 104.659 40.0383C104.763 40.4118 105.309 40.3264 105.294 39.9391C105.177 37.1052 105.537 36.0522 105.472 34.2314C105.093 34.5857 104.293 36.1377 104.078 36.3665L104.076 36.3651Z" fill="#0D2E61"/>
<path d="M85.8932 34.919C83.5956 34.919 81.2938 33.7998 79.9723 31.8757C79.9696 31.8715 79.9669 31.8674 79.9641 31.8646C79.9259 31.8715 79.8877 31.8798 79.8495 31.8867C77.5122 32.336 75.1272 32.5331 73.5217 30.9467C72.633 30.0701 72.207 28.7703 72.2685 27.2569C70.136 26.7125 68.1346 25.4224 67.3401 23.2722C66.4581 20.8808 67.3169 17.8651 69.6363 15.2063C72.7954 11.5868 77.3402 9.32639 82.1061 9.0011C82.4802 8.97492 82.8079 9.26298 82.8338 9.64202C82.8597 10.0224 82.5744 10.3505 82.199 10.3767C77.7894 10.6771 73.5845 12.7694 70.6616 16.1174C69.9189 16.9678 67.5763 19.9642 68.6193 22.7912C69.22 24.4203 70.7599 25.4237 72.4446 25.8855C72.5319 25.4747 72.6521 25.0544 72.8036 24.6271C73.7811 21.8691 75.5777 19.355 77.8604 17.5467C79.2447 16.4509 80.5293 15.8748 81.7908 15.7838C83.5246 15.6598 85.1437 16.5694 85.7267 17.9974C86.2946 19.3909 85.8591 21.1427 84.5321 22.8063C83.6352 23.931 82.5526 24.8834 81.3485 25.6346C81.5737 25.5767 81.8058 25.5423 82.0406 25.534C82.958 25.5023 83.7485 25.8869 84.2072 26.5829C85.0727 27.8965 84.4284 29.6731 83.3348 30.5662C82.7614 31.0349 82.0925 31.3243 81.4263 31.5256C82.9266 33.2705 85.5929 34.0134 87.7431 33.2195C88.0967 33.0886 88.4885 33.2719 88.6182 33.6302C88.7479 33.9872 88.5663 34.3828 88.2113 34.5138C87.4646 34.7894 86.6782 34.9217 85.8905 34.9217L85.8932 34.919ZM73.6268 27.5036C73.6146 28.3802 73.8071 29.2996 74.4774 29.9612C75.5791 31.0487 77.4289 30.9287 79.3034 30.5869C78.8447 29.3368 78.8829 28.0357 79.4549 27.0322C79.5942 26.7897 79.7716 26.5678 79.9805 26.3748C78.3218 27.148 76.5033 27.567 74.6535 27.5615C74.3163 27.5615 73.9722 27.5408 73.6255 27.5036H73.6268ZM82.1389 26.9082C82.1212 26.9082 82.1034 26.9082 82.0857 26.9082C81.485 26.9275 80.9034 27.2542 80.6385 27.7186C80.3232 28.2714 80.1894 29.2238 80.6577 30.3057C81.3225 30.139 81.9724 29.9047 82.4775 29.4912C83.0959 28.9867 83.4918 27.9792 83.0713 27.3424C82.827 26.9702 82.4024 26.9068 82.1389 26.9068V26.9082ZM73.7934 26.1363C74.0842 26.1667 74.3736 26.1832 74.6576 26.1832H74.6822C78.0146 26.1832 81.3785 24.5582 83.47 21.9394C83.9451 21.3439 84.9949 19.8181 84.4652 18.5211C84.0625 17.5329 82.8652 17.0877 81.8891 17.1566C80.9075 17.2269 79.8658 17.7079 78.704 18.6286C76.6207 20.2785 74.9825 22.572 74.0897 25.0888C74.0105 25.3107 73.8917 25.6829 73.7934 26.135V26.1363Z" fill="#0D2E61"/>
</g>
<defs>
<clipPath id="clip0_1_255">
<rect width="234" height="120" fill="white"/>
</clipPath>
</defs>
</svg>
