<svg width="234" height="120" viewBox="0 0 234 120" fill="none" xmlns="http://www.w3.org/2000/svg">
<g clip-path="url(#clip0_1_139)">
<g clip-path="url(#clip1_1_139)">
<path d="M47.3416 49.8264C48.4338 50.9912 49.2142 51.5712 50.3982 52.3588C50.7892 52.6197 51.0614 52.8366 51.4033 53.1825C51.4097 53.1903 51.4144 53.1966 51.4208 53.2029C51.5521 53.3035 51.6724 53.4151 51.7737 53.5487C52.3705 54.0015 53.01 54.3787 53.6922 54.69C55.617 55.5687 57.7587 56.2368 59.7563 56.9457C60.9292 57.3623 62.1987 57.7443 63.4682 57.8826C62.6229 54.4337 62.7084 50.4064 63.0392 47.2546L47.3416 49.8248V49.8264Z" fill="#FFD3B6"/>
<path d="M71.199 27.3286C70.9853 22.784 68.2232 18.5005 64.2913 16.1646C60.3594 13.8286 55.3954 13.4089 51.0266 14.7797C46.6594 16.152 42.9127 19.2314 40.4846 23.089C38.6294 26.038 37.4992 29.5576 37.9773 33.0017C38.5044 36.8059 40.874 40.0692 43.1707 43.1581C44.2677 44.6326 45.3631 46.1071 46.46 47.5832C46.8399 48.0925 47.2704 48.638 47.8925 48.7794C48.5953 48.9398 49.2902 48.5295 49.8901 48.1318C58.1813 42.6079 65.4246 35.5373 71.1974 27.327L71.199 27.3286Z" fill="#0D2E61"/>
<path d="M44.7172 42.7809C45.8426 44.246 45.3393 46.4703 44.0951 47.8363C42.851 49.2039 41.0591 49.9207 39.3322 50.5951C37.6053 51.2695 35.8134 51.9894 34.5725 53.3602C33.3315 54.7309 32.8392 56.9568 33.971 58.4171C34.3809 58.9453 34.9682 59.3383 35.28 59.9278C35.8546 61.0124 35.2848 62.391 34.3888 63.2352C33.4929 64.0793 32.3263 64.5698 31.3085 65.2646C28.7791 66.9921 27.2769 69.9741 26.9746 73.008C26.6722 76.0419 27.4763 79.1103 28.8376 81.8424C29.4866 83.1455 30.343 84.4597 31.6853 85.0413C32.9009 85.5695 34.2954 85.3997 35.6108 85.2221C40.2867 84.587 45.2855 83.8058 48.733 80.6037C51.3527 78.1703 52.6712 74.6837 53.7381 71.2836C55.4128 65.9484 56.6807 60.4874 57.5276 54.962C58.0958 51.2522 58.3206 47.0048 55.7705 44.235C54.4362 42.7872 52.5098 41.9839 50.5612 41.6523C48.6127 41.3206 46.6198 41.418 44.7172 42.7809Z" fill="#0D2E61"/>
<path d="M45.7651 40.8961C46.3808 43.3594 47.291 52.9593 45.7651 56.985C44.8723 59.3414 40.2202 62.6409 38.2638 64.0651C41.8348 66.6384 48.9879 68.8517 53.268 69.1708C57.5481 69.4899 64.6632 66.7453 68.5271 64.7253C62.6625 62.4036 62.4108 53.2454 63.0408 47.2547C57.8821 48.4761 51.788 44.3591 45.7667 40.8945L45.7651 40.8961Z" fill="#FFBD91"/>
<path d="M64.3387 60.4512C60.6348 60.5314 56.5541 58.4501 53.3376 57.2162C51.6439 56.5669 50.5153 55.5483 49.1256 54.5187C48.4845 54.044 47.807 53.7406 47.2055 53.214C47.1707 53.1684 47.1454 53.1322 47.1248 53.1039C47.0061 53.0253 46.8874 52.9467 46.7781 52.854C46.6911 52.7864 46.6088 52.7125 46.528 52.6402C46.4204 54.3348 46.1861 55.8721 45.7635 56.9835C44.8692 59.3399 40.2186 62.6394 38.2622 64.0636C41.8332 66.6369 48.9863 68.8502 53.2648 69.1693C57.545 69.4884 64.6601 66.7438 68.5239 64.7238C66.5548 63.9441 65.2204 62.391 64.3372 60.4481L64.3387 60.4512Z" fill="#FFD3B6"/>
<path d="M47.9036 22.1553C44.8423 29.7588 44.9594 38.5681 48.2217 46.0883C49.5466 49.1426 51.4967 52.1073 54.4536 53.6714C58.376 55.7464 62.1053 55.3864 65.9596 53.1904C69.184 51.3543 71.5995 44.9078 72.0443 41.734C72.7265 36.8704 72.9734 30.4584 71.0122 25.95C69.051 21.4416 66.9157 18.3575 62.1164 17.1706C57.317 15.9854 51.7769 17.6642 48.896 21.6554L47.9036 22.1537V22.1553Z" fill="#FFD3B6"/>
<path d="M46.3365 34.2923C44.9768 33.684 43.242 34.4102 42.5217 35.7071C41.8015 37.0039 42.0105 38.6844 42.8209 39.9278C43.6313 41.1712 44.9626 42.0122 46.3729 42.4932C46.604 42.5718 46.8969 42.6284 47.0646 42.4523C47.2008 42.3093 47.1834 42.0845 47.1564 41.8896C46.8256 39.4782 46.4932 37.0652 46.1624 34.6539L46.3365 34.2923Z" fill="#FFD3B6"/>
<path d="M84.9591 78.5727C84.9591 89.1614 86.0102 96.089 85.1142 106.134C84.8072 109.586 81.1966 119.472 77.8076 118.645C70.5991 116.886 65.947 113.783 66.6941 102.721C67.2434 94.5925 65.9502 87.6649 66.7733 75.4932C73.3581 75.586 78.7684 76.4946 84.9591 78.5727Z" fill="#FF9B2F"/>
<path d="M64.3561 44.2758C64.2058 44.2758 64.057 44.2098 63.9572 44.0809C63.7879 43.8624 63.8274 43.548 64.0475 43.3798L65.6509 42.149C65.871 41.9808 66.1875 42.0201 66.3569 42.2386C66.5263 42.4571 66.4867 42.7715 66.2667 42.9397L64.6632 44.1705C64.5714 44.2412 64.4638 44.2742 64.3561 44.2742V44.2758Z" fill="#FFBD91"/>
<path d="M78.6655 94.6318C77.8298 105.142 77.7253 112.492 76.899 119.833H32.5369C32.4593 119.099 32.3754 118.365 32.2852 117.629C32.2725 117.523 32.2583 117.419 32.2488 117.312C32.1475 116.506 32.0398 115.694 31.9322 114.877C31.0553 108.246 29.971 101.339 29.7193 92.9246C29.6687 91.2301 29.9045 89.4726 30.3446 87.668C31.0363 84.8134 32.2314 81.8345 33.5927 78.7928C33.7272 78.4863 33.8649 78.1797 34.0058 77.8716C36.2867 72.8492 38.9096 67.6586 40.3595 62.5231C40.3801 62.5231 40.6888 62.6928 41.2333 62.9774C44.8597 64.8417 59.1105 71.5697 68.5271 63.9143C68.7424 63.9205 76.7581 76.1047 78.4344 88.3251C78.7304 90.4504 78.8301 92.571 78.6655 94.6318Z" fill="#EDEDED"/>
<path d="M37.9741 79.3603C36.5337 91.4769 35.3718 101.924 33.9298 114.041C33.8665 114.57 33.3521 116.108 32.2836 117.629C32.2266 117.71 32.1696 117.79 32.1095 117.87C32.0383 117.967 31.9686 118.06 31.891 118.153C31.4114 118.757 30.84 119.34 30.172 119.833H18.8417C18.3383 119.554 17.8682 119.209 17.444 118.793C14.9652 116.351 15.1298 112.4 15.4654 108.948C15.9592 103.875 16.5069 98.9248 17.0546 93.9684C17.5912 89.1221 18.1325 84.2695 18.6137 79.3037C23.6204 78.5963 28.5923 78.3526 33.5927 78.7928C33.7066 78.8022 33.8174 78.8132 33.9314 78.8258C35.2784 78.9531 36.6255 79.1292 37.9757 79.3587L37.9741 79.3603Z" fill="#FF9B2F"/>
<path d="M60.7503 17.0826C59.8718 21.7135 57.4722 26.0474 54.004 29.2636C50.5375 32.4814 46.0215 34.5658 41.3092 35.1223C40.0841 29.7635 41.7825 23.8357 45.6638 19.9184C49.545 16.0026 55.4872 14.2216 60.7503 17.081V17.0826Z" fill="#0D2E61"/>
<path d="M53.3487 119.833H32.2377C32.1934 119.206 32.1506 118.549 32.1095 117.868C32.1032 117.806 32.1 117.746 32.0968 117.684C32.0398 116.784 31.986 115.844 31.9322 114.877C31.5935 108.457 31.4083 100.866 32.0066 95.7699C32.3121 93.162 32.6477 90.5463 32.9674 87.9321C33.3362 84.8967 33.6797 81.8612 33.9314 78.8274C33.9583 78.5067 33.9821 78.1907 34.0058 77.8732C34.3445 73.4041 34.4585 68.9382 34.1198 64.4817C36.3168 63.7775 38.5123 63.078 40.8138 62.1364C40.9547 62.4193 41.0956 62.7007 41.2333 62.9773C49.4311 79.4608 53.3741 90.257 53.3076 102.19C53.287 106.442 53.3171 114.119 53.3519 119.833H53.3487Z" fill="#FF9B2F"/>
<path d="M65.5766 17.9817C66.759 21.2734 65.6779 25.0964 63.3843 27.7467C61.0906 30.397 57.7507 31.9831 54.3254 32.7801C51.4429 33.4498 48.4418 33.6085 45.5039 33.2454C47.6408 30.9802 49.0211 28.135 50.5217 25.4108C52.0223 22.6882 53.746 19.964 56.323 18.2065C58.8999 16.4491 62.5311 15.8832 65.5766 17.9802V17.9817Z" fill="#0D2E61"/>
<path d="M65.6747 18.5697L69.9644 28.2529C70.7891 30.1141 71.7578 32.1262 73.6129 32.9861C72.6031 31.8024 72.6727 30.0858 72.649 28.5359C72.6126 26.0931 72.1868 23.5858 70.8856 21.5124C69.5845 19.439 67.2845 17.8717 65.6732 18.5697H65.6747Z" fill="#0D2E61"/>
<path d="M40.4434 62.2872C15.9117 68.4147 19.1773 78.8698 18.1943 83.4772C24.0684 83.2304 33.2998 82.4837 39.1723 82.2385C38.4126 75.248 40.6334 69.4113 40.4434 62.2872Z" fill="#FF9B2F"/>
<path d="M68.5255 63.9142C73.6636 64.4817 79.0961 64.5823 81.7997 67.4354C84.6837 70.4787 84.9037 75.0798 84.9591 79.2581C81.1032 79.5787 77.2488 79.8994 73.3929 80.2201C72.9529 74.6051 69.5829 70.2681 68.5255 63.9127V63.9142Z" fill="#FF9B2F"/>
<path d="M28.6271 81.462C30.677 80.9134 32.263 80.011 33.0022 76.8137C33.5198 74.5752 33.9504 72.2755 34.1007 69.938C34.2701 67.2861 34.7545 63.8011 34.9254 61.1508C34.9428 60.8835 34.9508 60.5864 34.7956 60.3774C34.5234 60.0127 33.4217 60.4434 33.0988 60.7373C31.8926 61.8298 32.1918 66.3838 30.8257 66.9088C27.5492 68.1664 29.4233 69.0687 28.3279 70.6359C27.2326 72.2032 26.4348 74.2514 26.1958 76.2305C25.9568 78.2096 26.772 80.5015 28.6271 81.462Z" fill="#FFD3B6"/>
<path d="M31.9528 67.2027C30.3398 66.5771 30.1973 66.4718 29.2698 64.5509C27.5682 61.0281 25.8776 57.6641 24.0747 53.9307C23.8246 53.4136 23.5302 52.8508 23.0395 52.6575C22.313 52.3698 21.5753 53.118 21.4645 53.9527C21.3537 54.7875 21.6719 55.6379 21.9837 56.4317C23.5888 60.5251 25.1938 64.62 26.8005 68.7134C27.2152 69.7729 27.6521 70.867 28.4118 71.6608C29.17 72.4562 30.3477 72.8681 31.2056 72.321C32.0636 71.774 32.2361 67.1666 31.9528 67.2012V67.2027Z" fill="#FFD3B6"/>
<path d="M25.2872 63.0544C24.4119 62.4916 23.7724 62.3344 22.7942 62.6913C21.8159 63.0481 21.083 63.6549 21.4424 64.5587C20.6398 64.2192 20.222 63.9677 19.0744 64.4518C18.2718 64.7914 17.9885 66.214 18.1943 67.0566C17.6846 66.6479 17.0182 66.4152 15.9608 67.2311C15.2659 67.7671 15.2232 69.4334 15.44 70.048C15.9513 71.5005 16.7617 73.1196 18.0265 74.0077C18.4776 74.3237 19.3846 74.4856 20.0637 74.22C20.5765 74.0188 20.9548 73.0206 20.7696 72.0947C21.6196 72.483 22.3209 73.489 23.4178 72.6983C24.5464 71.8856 24.4451 70.7963 24.2678 69.8845C25.2809 70.4756 25.5231 71.2128 26.9113 70.4441C27.937 69.8767 27.698 67.8991 27.2468 66.8224C26.7941 65.7456 26.2179 63.6549 25.2872 63.056V63.0544Z" fill="#FFD3B6"/>
<path d="M15.3783 69.8122C16.5956 73.4638 17.9806 75.4979 19.4195 77.7285C20.8583 79.9591 21.1765 81.0501 23.0269 82.9569C26.0834 82.1536 29.0213 82.8515 32.0778 82.0467C32.2045 79.2926 32.4467 74.9871 31.7359 72.3226C31.0268 69.6581 29.3426 67.1037 26.7862 66.0301C24.7823 65.1875 22.4317 65.3526 20.4436 66.2297C18.4555 67.1069 16.6985 69.0325 15.3783 69.8106V69.8122Z" fill="#FFD3B6"/>
<path d="M22.7435 82.4146C22.2053 86.816 21.1005 89.7556 20.5623 94.1586C24.9928 94.7198 29.4787 94.8393 33.933 94.5155C33.6481 89.7163 32.3643 86.5111 32.0794 81.7119C28.5907 81.7166 27.4178 81.9005 22.7451 82.4146H22.7435Z" fill="#FFD3B6"/>
<path d="M85.3817 80.7326C85.4118 78.1027 85.5115 75.2685 87.1261 73.184C88.0853 71.9485 89.4735 71.1264 90.8269 70.3341C94.0338 68.4587 97.2407 66.5834 100.449 64.7065C101.097 64.3277 101.89 63.941 102.561 64.2758C103.268 64.6279 103.398 65.6355 103.058 66.3445C102.718 67.0534 102.051 67.5423 101.435 68.0359C100.82 68.5295 100.198 69.1048 99.9348 69.6377C104.622 68.9571 109.412 68.2434 113.602 66.0521C114.162 65.7581 114.729 65.4343 115.359 65.362C115.989 65.2897 116.709 65.5475 116.952 66.1275C117.198 66.7076 116.528 67.8143 115.218 68.4745C116.922 68.8502 116.473 70.6956 114.32 71.6152C116.229 71.7473 115.313 74.0156 113.442 74.3866C113.879 76.2808 109.771 77.9125 107.883 78.4627C103.555 79.7202 99.2273 80.9778 94.8917 82.2652C93.8882 83.5542 93.3674 85.2048 93.4529 86.8317C90.5973 86.1982 87.7086 85.7141 84.8024 85.384C85.377 83.9724 85.3643 82.424 85.3833 80.7294L85.3817 80.7326Z" fill="#FFD3B6"/>
<path d="M32.6872 116.138C32.5495 116.531 32.4055 116.925 32.2472 117.312C32.1965 117.439 32.1459 117.562 32.0952 117.686C32.0288 117.843 31.9607 117.999 31.891 118.153C31.6283 118.73 31.3434 119.289 31.0252 119.833H16.6652C15.7076 117.782 15.3656 115.484 15.1805 113.226C14.6439 106.715 15.3182 100.112 17.0546 93.9684C17.6561 91.8368 18.3842 89.7619 19.2374 87.7686C22.9255 87.4087 26.6501 87.3756 30.3446 87.668C31.2215 87.7388 32.0937 87.8252 32.9674 87.9321C33.371 87.9793 33.7731 88.0327 34.1736 88.0893C35.0093 97.488 35.8055 107.223 32.6888 116.139L32.6872 116.138Z" fill="#FF9B2F"/>
<path d="M93.9705 86.2737C90.7335 99.7752 89.7094 113.53 85.548 119.717C85.521 119.756 85.4941 119.794 85.4641 119.833H74.5833C72.4511 118.073 70.979 115.507 71.2275 112.736C71.2307 112.7 71.2339 112.659 71.237 112.623C71.5932 108.82 72.6474 105.175 73.7823 101.633C75.3066 96.8844 76.6299 93.1054 78.4344 88.3251C78.5484 88.0248 78.6655 87.7183 78.7874 87.4039C79.2575 86.1605 79.7641 84.8463 80.3149 83.4253L93.9705 86.2737Z" fill="#FF9B2F"/>
<path d="M77.6746 119.833H67.123C69.6082 101.402 69.8029 82.3816 68.5271 63.9142C71.2671 64.5242 74.0055 67.132 75.3082 69.5277C76.6109 71.9218 77.1918 74.6334 77.6287 77.3183C78.1732 80.6634 78.5484 84.0258 78.7874 87.4039C79.5503 98.1702 78.8982 109.059 77.6762 119.833H77.6746Z" fill="#FF9B2F"/>
<path d="M44.7172 41.8377C44.7172 41.3174 45.1414 40.8961 45.6654 40.8961C46.1893 40.8961 46.6135 41.3174 46.6135 41.8377C46.6135 42.358 46.1893 42.7793 45.6654 42.7793C45.1414 42.7793 44.7172 42.358 44.7172 41.8377Z" fill="#EDEDED"/>
<path d="M29.2777 72.0066C29.0054 72.0066 28.7807 71.7897 28.7743 71.5177C28.7427 70.114 29.0624 68.7087 29.7003 67.4558C29.8254 67.209 30.1293 67.11 30.3778 67.2342C30.6263 67.3584 30.726 67.6602 30.601 67.907C30.0375 69.0136 29.7557 70.2555 29.7826 71.4957C29.789 71.7724 29.5689 72.0003 29.2904 72.0066C29.2872 72.0066 29.2824 72.0066 29.2793 72.0066H29.2777Z" fill="#FFBD91"/>
<path d="M24.9532 70.5699C24.5907 70.5699 24.2583 70.5133 24.0019 70.4614C23.7296 70.4048 23.5539 70.1407 23.6109 69.8704C23.6679 69.6 23.9354 69.4271 24.2061 69.4821C24.7284 69.589 25.1257 69.5984 25.455 69.5088C25.8127 69.4113 26.0992 69.1724 26.1847 68.8989C26.2686 68.6301 26.1895 68.278 26.1087 67.9699C25.732 66.5425 25.1558 65.1765 24.3929 63.9095C24.2504 63.6721 24.328 63.3656 24.567 63.2241C24.806 63.0827 25.1147 63.1597 25.2571 63.397C26.0676 64.7458 26.6817 66.1983 27.0822 67.7168C27.1993 68.1601 27.3101 68.6757 27.1455 69.1976C26.9572 69.798 26.4111 70.2869 25.7193 70.4756C25.4597 70.5463 25.1986 70.5714 24.9516 70.5714L24.9532 70.5699Z" fill="#FFBD91"/>
<path d="M22.1167 72.8272C21.3632 72.8272 20.6066 72.5427 20.2109 71.8762C20.07 71.6388 20.1491 71.3307 20.3897 71.1908C20.6303 71.0509 20.939 71.1311 21.0799 71.3685C21.3648 71.8479 22.1262 71.9186 22.6992 71.741C23.0728 71.6247 23.535 71.3496 23.6062 70.9566C23.6568 70.6799 23.5223 70.3483 23.3545 69.9741L21.1891 65.1451C21.0751 64.892 21.1891 64.5965 21.444 64.4849C21.6988 64.3733 21.9964 64.4849 22.1088 64.738L24.2742 69.567C24.4562 69.9741 24.7079 70.5322 24.5955 71.1358C24.4657 71.8416 23.8689 72.4248 22.9984 72.6952C22.7213 72.7816 22.4174 72.8272 22.1151 72.8272H22.1167Z" fill="#FFBD91"/>
<path d="M18.9303 74.4353C18.6533 74.4353 18.3906 74.3882 18.15 74.2954C17.6244 74.0911 17.2224 73.6509 17.1021 73.1479C17.0372 72.8791 17.205 72.6103 17.4756 72.5458C17.7463 72.4814 18.0186 72.648 18.0819 72.9168C18.1262 73.1023 18.2972 73.2784 18.5156 73.3633C18.8021 73.4749 19.1155 73.4356 19.3292 73.3837C19.7344 73.2862 20.1982 72.9907 20.2584 72.5741C20.3011 72.2786 20.146 71.9359 19.9529 71.5508L18.1341 67.9023C18.0107 67.6539 18.1136 67.3537 18.3621 67.2326C18.6106 67.11 18.9129 67.2122 19.0364 67.459L20.8551 71.1075C21.0609 71.5209 21.3442 72.0884 21.254 72.7156C21.1274 73.5975 20.3154 74.1744 19.5666 74.3567C19.3482 74.4086 19.1345 74.4353 18.9272 74.4353H18.9303Z" fill="#FFBD91"/>
<path d="M104.641 76.8671C103.443 76.8671 102.297 76.5009 101.185 76.144C100.842 76.034 100.486 75.9208 100.139 75.8218C98.8331 75.4492 97.0334 75.2056 95.8716 76.1629C95.6579 76.339 95.3397 76.3091 95.1624 76.0969C94.9851 75.8847 95.0152 75.5687 95.2289 75.3926C96.4177 74.4165 98.2111 74.2325 100.418 74.8613C100.779 74.9651 101.143 75.0814 101.494 75.193C102.714 75.5828 103.867 75.9507 105.041 75.8501C106.349 75.7353 107.648 75.1899 109.022 74.6114C109.905 74.2404 110.819 73.8553 111.807 73.5519C112.072 73.4701 112.354 73.6179 112.437 73.882C112.519 74.1461 112.37 74.4259 112.104 74.5076C111.165 74.7969 110.276 75.171 109.415 75.5325C107.965 76.1425 106.594 76.7178 105.128 76.8467C104.964 76.8608 104.802 76.8671 104.639 76.8671H104.641Z" fill="#FFBD91"/>
<path d="M106.391 74.0486C106.184 74.0486 105.991 73.9213 105.917 73.7169C105.823 73.456 105.959 73.1699 106.222 73.0771C108.345 72.3242 111.397 71.3778 113.427 70.9644C113.7 70.9094 113.966 71.0839 114.023 71.3543C114.078 71.6246 113.902 71.8887 113.63 71.9453C111.647 72.3477 108.65 73.2768 106.561 74.0187C106.505 74.0392 106.447 74.0486 106.391 74.0486Z" fill="#FFBD91"/>
<path d="M106.018 75.5215C105.777 75.5215 105.564 75.3486 105.522 75.105C105.372 74.2341 105.329 73.5723 105.288 72.9341C105.247 72.2927 105.207 71.6875 105.067 70.8685C105.019 70.5966 105.204 70.3372 105.478 70.2916C107.781 69.8986 112.444 68.6112 114.04 68.0406C114.301 67.9463 114.591 68.0815 114.684 68.3424C114.778 68.6018 114.643 68.8895 114.38 68.9822C112.858 69.5245 108.603 70.7082 106.135 71.1876C106.225 71.829 106.26 72.3556 106.292 72.8712C106.333 73.5126 106.372 74.1178 106.513 74.9368C106.561 75.2087 106.376 75.4681 106.102 75.5137C106.073 75.5184 106.045 75.5215 106.016 75.5215H106.018Z" fill="#FFBD91"/>
</g>
<g clip-path="url(#clip2_1_139)">
<path d="M140.582 40C140.258 40 139.931 39.9688 139.604 39.9042C138.169 39.6225 136.949 38.7484 136.341 37.5647C136.114 37.1227 135.971 36.635 135.913 36.1295C135.283 36.2297 134.653 36.1684 134.087 35.9313C133.454 35.6651 132.934 35.1908 132.578 34.565C132.22 34.6585 131.856 34.7354 131.486 34.7921C129.706 35.0638 127.773 34.7198 126.181 33.8479C125.451 33.4482 124.828 32.9571 124.326 32.3959C122.973 32.7522 121.413 32.9994 119.861 32.7656C117.603 32.4249 115.714 31.0129 115.048 29.1679C114.127 26.6124 115.493 24.0102 117.106 21.5783C118.665 19.2288 120.432 16.5654 122.971 14.8027C125.885 12.7773 129.412 12.4276 131.957 13.9108C132.291 14.1057 132.405 14.5355 132.21 14.8695C132.016 15.2047 131.588 15.3183 131.253 15.1234C128.892 13.7471 125.792 14.5499 123.769 15.9552C121.45 17.5664 119.834 20.0005 118.272 22.3555C116.862 24.4812 115.654 26.7204 116.365 28.6913C116.858 30.0587 118.312 31.1132 120.069 31.3782C121.22 31.5519 122.385 31.4149 123.48 31.1622C123.242 30.6923 123.073 30.1923 122.981 29.669C122.633 27.7036 123.416 25.4722 125.027 23.8443C126.27 22.586 127.986 21.6229 130.273 20.898C131.337 20.5606 132.598 20.2443 133.884 20.4604C135.37 20.7087 136.56 21.6819 136.917 22.9401C137.417 24.7017 136.352 26.53 133.919 28.0889C131.402 29.7013 128.691 30.994 125.857 31.936C127.273 33.1442 129.419 33.6887 131.276 33.4058C131.56 33.3624 131.841 33.3056 132.119 33.2366C131.956 32.2467 132.12 31.1733 132.59 30.2981C133.563 28.4875 135.416 27.4197 136.906 26.5623C137.605 26.1603 138.474 25.6593 139.48 25.6559C139.484 25.6559 139.486 25.6559 139.489 25.6559C140.616 25.6559 141.836 26.4799 141.863 27.7114C141.886 28.8416 140.905 29.6155 140.433 29.9874C140.036 30.2992 139.625 30.6243 139.197 30.9517C139.253 30.935 139.307 30.9205 139.364 30.9072C139.622 30.8437 139.894 30.9317 140.066 31.1343C140.238 31.337 140.281 31.6209 140.175 31.8659C139.679 33.0172 139.086 34.202 138.099 35.0739C137.843 35.2999 137.569 35.4925 137.284 35.6518C137.29 36.1061 137.391 36.5426 137.588 36.9245C138.001 37.7295 138.857 38.3297 139.875 38.529C140.893 38.7283 141.911 38.4956 142.597 37.9066C142.89 37.6538 143.332 37.6883 143.583 37.9823C143.835 38.2763 143.801 38.7194 143.508 38.9711C142.729 39.6403 141.682 40.0011 140.584 40.0011L140.582 40ZM133.954 34.1129C134.116 34.3223 134.334 34.5138 134.628 34.6374C135.057 34.8178 135.529 34.8066 135.973 34.6808C136.048 34.2955 136.169 33.9136 136.337 33.545C136.497 33.1921 136.694 32.8625 136.922 32.564C135.99 33.1609 135.001 33.702 133.955 34.1129H133.954ZM139.488 27.0578H139.485C138.849 27.06 138.187 27.442 137.602 27.7782C136.198 28.5866 134.605 29.503 133.823 30.9617C133.533 31.5018 133.412 32.171 133.473 32.799C135.726 31.9093 137.739 30.3237 139.567 28.8839C140.037 28.5143 140.471 28.119 140.463 27.7404C140.455 27.3618 139.925 27.0578 139.489 27.0578H139.488ZM133.016 21.7932C132.219 21.7932 131.41 22.0092 130.697 22.2353C128.632 22.89 127.103 23.7396 126.022 24.8319C124.728 26.1414 124.091 27.9007 124.361 29.424C124.449 29.9162 124.623 30.3693 124.869 30.7791C124.982 30.7435 125.094 30.7079 125.205 30.6722C128.007 29.7625 130.685 28.4942 133.167 26.9053C134.037 26.3474 136.014 24.8821 135.572 23.3232C135.333 22.4825 134.437 21.9747 133.655 21.8433C133.445 21.8077 133.231 21.7921 133.017 21.7921L133.016 21.7932Z" fill="#0D2E61"/>
</g>
<g clip-path="url(#clip3_1_139)">
<path d="M183.733 48.8636C182.618 50.0472 181.821 50.6366 180.612 51.4368C180.213 51.702 179.935 51.9224 179.586 52.2738C179.579 52.2818 179.574 52.2882 179.568 52.2946C179.434 52.3968 179.311 52.5102 179.207 52.646C178.598 53.106 177.945 53.4893 177.248 53.8056C175.283 54.6985 173.096 55.3773 171.056 56.0977C169.858 56.521 168.562 56.9091 167.265 57.0497C168.128 53.5453 168.041 49.453 167.703 46.2505L183.733 48.862V48.8636Z" fill="#FFD3B6"/>
<path d="M159.649 25.3039C158.27 22.9047 159.489 19.8699 161.285 17.7359C163.082 15.6004 171.596 12.8339 174.085 13.008C176.576 13.1821 179.106 13.262 181.49 13.9664C183.874 14.6708 186.15 16.1099 187.162 18.2774C188.461 18.8349 189.325 20.0456 189.861 21.3011C191.588 25.3262 190.91 31.0045 189.414 35.1143C187.918 39.2225 186.261 41.9123 184.264 47.4006C174.544 41.7558 165.198 34.9626 159.647 25.3054L159.649 25.3039Z" fill="#0D2E61"/>
<path d="M187.823 40.1298C187.194 42.6327 186.265 52.3873 187.823 56.4779C188.735 58.8722 193.443 61.7329 195.441 63.1801C191.795 65.7948 182.054 68.1971 177.683 68.5214C173.312 68.8456 163.315 67.9767 159.371 65.9242C165.36 63.565 166.195 52.8489 165.552 46.7617C170.82 48.0027 181.676 43.6486 187.825 40.1298H187.823Z" fill="#FFBD91"/>
<path d="M187.823 56.4779C187.238 54.9413 187.003 52.6045 186.973 50.1526C185.287 50.8443 177.308 56.1329 174.462 57.334C171.043 58.7763 167.401 60.1947 163.818 61.1643C162.83 63.3717 161.396 65.1271 159.371 65.9242C163.315 67.9767 173.312 68.844 177.683 68.5213C182.054 68.1971 191.796 65.7948 195.441 63.18C193.443 61.7329 188.736 58.8722 187.823 56.4779Z" fill="#FFD3B6"/>
<path d="M183.683 20.865C186.876 28.7555 186.758 37.5102 184.868 45.8001C183.829 50.3635 178.541 53.5724 178.541 53.5724C174.45 55.7255 168.872 55.3518 164.852 53.0741C161.49 51.1685 159.852 45.9582 159.387 42.663C158.674 37.6156 158.086 30.4215 159.466 25.307C160.795 20.3826 163.856 16.9229 168.861 15.693C173.865 14.4631 179.645 16.2057 182.649 20.3475L183.683 20.865Z" fill="#FFD3B6"/>
<path d="M185.124 34.1335C186.512 33.5154 188.284 34.2533 189.019 35.5711C189.755 36.8888 189.541 38.5963 188.714 39.8598C187.886 41.1232 186.527 41.9778 185.086 42.4665C184.85 42.5464 184.551 42.6039 184.38 42.425C184.241 42.2797 184.259 42.0512 184.286 41.8532C184.624 39.403 184.963 36.9511 185.301 34.5009L185.124 34.1335Z" fill="#FFD3B6"/>
<path d="M166.358 43.2237C166.249 43.2237 166.139 43.1885 166.045 43.1183L164.407 41.8676C164.183 41.6951 164.141 41.3772 164.315 41.1552C164.49 40.9332 164.812 40.8917 165.036 41.0642L166.674 42.3148C166.898 42.4873 166.94 42.8052 166.766 43.0272C166.664 43.1566 166.512 43.2253 166.358 43.2253V43.2237Z" fill="#FFBD91"/>
<path d="M151.492 119.321L198.852 119.998C198.931 119.252 199.017 118.507 199.109 117.759C199.122 117.65 199.136 117.545 199.146 117.436C199.249 116.617 199.359 115.793 199.469 114.962C200.365 108.225 201.472 101.206 201.729 92.6562C201.781 90.9344 201.54 89.1486 201.091 87.315C200.384 84.4143 199.164 81.3875 197.774 78.2967C197.636 77.9853 197.496 77.6738 197.352 77.3607C195.023 72.2574 193.482 66.22 192 61.0001C191.5 59.5 189.658 60.1565 189.103 60.444C186.716 61.6643 180.964 63.3989 172.574 69.2673C172.182 69.5405 171.761 70.8135 171.281 70.7895C170.844 70.7672 170.474 67.8282 170.039 67.7803C166.994 67.4384 164.728 65.3029 162.099 63.1769C161.879 63.1833 152.321 75.8753 150.61 88.2925C150.307 90.452 150.647 111.86 151.491 119.32L151.492 119.321Z" fill="#EDEDED"/>
<path d="M193.299 78.8733C194.77 91.1851 195.957 101.801 197.429 114.112C197.494 114.651 198.019 116.213 199.11 117.759C199.169 117.84 199.227 117.922 199.288 118.003C199.361 118.102 199.432 118.197 199.511 118.291C200.001 118.904 200.585 119.497 201.267 119.998C201.267 119.998 213.833 119.364 214.264 118.941C214.264 118.941 219.379 115.732 218.685 108.597C215.929 80.247 216.801 86.9875 216.301 81.8458C211.096 81.1143 194.678 78.6385 193.299 78.8733Z" fill="#EDEDED"/>
<path d="M170.041 15.594C170.938 20.2996 176.359 19.4466 178.126 23.9046C180.368 29.5654 182.495 32.736 187.306 33.303C189.229 26.8596 189.41 22.4559 185.447 18.4771C181.483 14.4983 175.415 12.6886 170.041 15.594Z" fill="#0D2E61"/>
<path d="M191.465 59.4249C217.932 65.774 215.094 72.8069 216.479 82.8873C210.48 82.6365 198.074 82.0487 192.076 81.7979C192.852 74.6948 191.269 66.6637 191.465 59.4249Z" fill="#EDEDED"/>
<path d="M162.101 63.1801C159.547 63.7615 154.209 65.0345 150.893 65.8283C149.085 66.2612 147.613 67.547 146.961 69.2689C145.663 72.6934 143.803 78.934 143.611 81.3555C147.548 81.6813 153.193 79.4244 157.13 79.7502C157.58 74.0447 161.021 69.6378 162.101 63.1801Z" fill="#EDEDED"/>
<path d="M188.161 51.563C183.659 53.919 177.103 57.0673 172.994 60.043C174.567 62.9069 175.988 65.8523 177.252 68.8616C181.144 65.4689 187.721 62.1195 192.373 59.8465C190.705 57.3117 189.252 54.6394 188.161 51.563Z" fill="#EDEDED"/>
<path d="M165.075 56.1536C163.357 58.7284 162.035 61.5764 160.758 64.4243C162.61 65.699 164.395 67.071 166.087 68.5469C167.351 65.5376 168.772 62.5922 170.345 59.7283C168.626 58.4825 166.868 57.2925 165.075 56.1536Z" fill="#EDEDED"/>
<path d="M170.212 59.8482C170.414 63.4963 170.616 67.1445 170.818 70.7927C168.867 69.8535 166.536 69.7177 164.485 70.4205C165.549 66.4401 167.33 62.6466 170.21 59.8466L170.212 59.8482Z" fill="#EDEDED"/>
<path d="M144.05 79.5138C142.232 87.1408 141.312 91.0398 139.494 98.6652C139.046 100.544 139.135 104.144 140.051 105.848C141.084 107.768 143.43 108.52 145.55 109.102C147.905 109.747 150.619 110.341 152.638 108.979C154.287 107.865 154.914 105.794 155.419 103.883C157.837 94.7167 160.033 85.4956 162.23 76.2745C156.752 76.8623 149.816 79.2423 144.052 79.5138H144.05Z" fill="#EDEDED"/>
<path d="M172.95 60.0143C172.692 63.9548 172.433 67.8952 172.174 71.8357C174.159 70.5228 176.143 69.2082 178.128 67.8952C176.529 65.1639 174.932 62.431 172.952 60.0143H172.95Z" fill="#EDEDED"/>
<path d="M183.594 31.1068C183.955 33.1593 184.315 35.2341 184.186 37.3122C184.155 37.7961 184.105 38.3137 184.344 38.7369C184.584 39.1602 185.25 39.3759 185.568 39.0085C186.333 36.595 186.756 34.0761 186.826 31.5476C185.865 31.9102 184.76 31.8766 183.594 31.1068Z" fill="#0D2E61"/>
<path d="M176.034 20.0392C171.875 19.5137 167.621 19.7405 163.543 20.7037C163.064 20.8171 162.571 20.9417 162.085 20.865C161.598 20.7883 161.115 20.4513 161.042 19.9705C160.953 19.3955 161.445 18.9099 161.9 18.5425C163.494 17.2615 165.227 16.1067 167.168 15.439C169.11 14.773 171.285 14.626 173.209 15.34C175.132 16.054 176.747 17.7088 177.103 19.7086C175.955 19.7996 174.79 19.6686 176.036 20.0392H176.034Z" fill="#0D2E61"/>
<path d="M174.402 18.6688C171.968 22.2307 168.088 24.7975 163.829 25.6648C164.081 25.0994 164.333 24.5356 164.585 23.9701C162.377 25.2815 160.171 26.5928 157.963 27.9042C156.707 24.9636 158.171 21.4033 160.685 19.4003C163.198 17.3973 166.515 16.6738 169.734 16.3974C171.434 16.2505 173.472 16.3751 174.403 18.6688H174.402Z" fill="#0D2E61"/>
<path d="M162.476 71.0866C161.778 66.5312 161.43 61.923 161.437 57.3165C161.437 56.6233 161.451 55.9109 161.713 55.2672C162.191 54.0964 164.831 51.1877 165.558 50.5584C166.691 49.5809 167.881 48.8238 168.803 49.0921C169.724 49.3604 170.54 52.0806 170.532 53.0326C170.794 52.9208 171.605 52.4144 171.872 52.4192C173.055 52.4416 173.948 53.2834 174.13 54.4382C174.201 54.8902 173.802 56.3453 173.802 56.3453C173.802 56.3453 174.854 56.5737 175.17 57.1536C175.939 58.5655 176.243 59.476 175.43 60.5957C177.677 62.8159 175.74 65.2613 174.294 66.0919C175.795 68.8776 173.597 72.3213 171.439 75.2699C170.561 76.4694 169.559 81.191 169.669 82.6717L158.954 77.7329C160.318 75.6516 161.488 73.4474 162.474 71.0866H162.476Z" fill="#FFD3B6"/>
<path d="M161.545 59.4217C161.205 58.0369 160.528 56.7351 159.589 55.6537C159.303 55.3247 158.991 55.0132 158.787 54.6299C158.584 54.2465 158.501 53.7689 158.702 53.384C158.928 52.9479 159.45 52.7419 159.941 52.6748C161.483 52.464 163.082 53.3201 163.871 54.6474C164.661 55.9748 164.671 57.6839 164.037 59.0895C163.847 59.5111 163.591 59.9216 163.206 60.1836C162.822 60.4455 162.287 60.5318 161.884 60.297C161.482 60.0638 161.309 59.4664 161.545 59.4217Z" fill="#FFD3B6"/>
<path d="M157.898 75.3817C162.072 76.9885 166.47 78.7599 169.144 82.3122C164.21 93.8078 163.52 104.957 158.587 116.452C152.299 116.726 150.314 117.267 143.171 116.452C139.94 113.489 137.208 104.53 139.751 99.4287C144.335 90.2283 150.448 82.7403 157.898 75.3817Z" fill="#EDEDED"/>
<path d="M165.552 56.9667C165.267 56.9667 165.038 56.7398 165.038 56.4587C165.038 56.3836 165.054 56.3134 165.083 56.2495C165.133 56.0658 165.222 55.9572 165.314 55.8933C166.821 54.7608 171.324 51.8442 172.821 52.2467C174.082 52.5869 174.47 54.4653 174.51 54.6778C174.562 54.9541 174.378 55.2192 174.098 55.2703C173.82 55.3215 173.55 55.1394 173.498 54.863C173.408 54.387 173.055 53.3616 172.549 53.2258C171.866 53.0405 168.442 54.8375 166.037 56.6264C165.909 56.9299 165.66 56.9651 165.55 56.9651L165.552 56.9667ZM165.767 56.7957C165.715 56.8133 165.662 56.8213 165.607 56.8213C165.663 56.8213 165.718 56.8117 165.767 56.7957Z" fill="#FFBD91"/>
<path d="M161.75 57.933C161.529 57.933 161.325 57.7909 161.259 57.572C160.822 56.1505 161.684 53.63 162.938 52.6428C164.115 51.5184 166.881 48.9276 167.605 48.6832C168.327 48.4388 169.079 48.5091 169.616 48.8685C170.506 49.4643 170.585 51.143 170.568 52.3537C170.563 52.6317 170.333 52.8553 170.054 52.8553H170.046C169.761 52.8505 169.535 52.6205 169.538 52.3394C169.569 50.2885 169.199 49.8173 169.039 49.7102C168.767 49.5282 168.356 49.5042 167.938 49.6448C167.527 49.8093 165.426 51.6797 163.635 53.3904C163.622 53.4031 163.607 53.4143 163.593 53.4255C162.655 54.1459 161.923 56.2319 162.243 57.2749C162.326 57.5433 162.172 57.8276 161.9 57.9091C161.85 57.9234 161.8 57.9314 161.75 57.9314V57.933Z" fill="#FFBD91"/>
<path d="M168.987 60.0398C168.848 60.0398 168.707 59.9839 168.607 59.8737C168.416 59.6661 168.431 59.345 168.641 59.1549C169.459 58.4186 170.944 57.3213 173.057 55.8933C173.291 55.7352 173.611 55.7943 173.771 56.0259C173.931 56.2575 173.872 56.5737 173.637 56.7319C171.563 58.1343 170.117 59.2013 169.334 59.9057C169.236 59.9951 169.111 60.0382 168.988 60.0382L168.987 60.0398Z" fill="#FFBD91"/>
<path d="M171.216 63.4133C171.062 63.4133 170.91 63.3462 170.81 63.2168C170.636 62.9948 170.676 62.6753 170.901 62.5028C171.45 62.0811 172.081 61.7074 172.692 61.3464C173.427 60.9103 174.124 60.4998 174.555 60.0734C174.756 59.8753 175.082 59.8753 175.283 60.0734C175.483 60.2714 175.483 60.5941 175.283 60.7921C174.761 61.308 174.012 61.7505 173.22 62.2185C172.637 62.5635 172.032 62.9213 171.533 63.3046C171.439 63.3765 171.327 63.4117 171.217 63.4117L171.216 63.4133Z" fill="#FFBD91"/>
<path d="M173.078 66.4369C172.949 66.4369 172.818 66.389 172.717 66.2915C172.515 66.0951 172.512 65.7724 172.711 65.5728C173.199 65.0808 173.812 64.7182 174.481 64.5234C174.754 64.4451 175.04 64.5984 175.119 64.8684C175.2 65.1383 175.044 65.421 174.77 65.4993C174.269 65.6446 173.81 65.9162 173.445 66.2852C173.345 66.3874 173.21 66.4369 173.078 66.4369Z" fill="#FFBD91"/>
<path d="M174.51 66.9944C174.344 66.9944 174.179 66.9145 174.08 66.766L173.324 65.6335C173.167 65.3987 173.233 65.084 173.469 64.9291C173.707 64.7742 174.025 64.8396 174.182 65.0729L174.938 66.2053C175.095 66.4401 175.029 66.7548 174.793 66.9097C174.706 66.9672 174.607 66.9944 174.51 66.9944Z" fill="#FFBD91"/>
<path d="M168.032 55.2815C167.805 55.2815 167.597 55.1314 167.535 54.9046L167.309 54.074C167.235 53.8024 167.398 53.5245 167.673 53.451C167.947 53.3792 168.229 53.5389 168.303 53.8104L168.529 54.641C168.604 54.9126 168.44 55.1905 168.166 55.264C168.12 55.2751 168.075 55.2815 168.032 55.2815Z" fill="#FFBD91"/>
<path d="M201.291 113.585C201.008 113.585 200.779 113.36 200.777 113.081L200.607 86.0083C200.607 85.9141 200.633 85.8215 200.683 85.74C203.108 81.8107 204.946 78.6625 206.724 75.6165C206.866 75.3737 207.181 75.2906 207.427 75.4296C207.673 75.5701 207.757 75.88 207.616 76.1244C205.854 79.1433 204.032 82.2627 201.639 86.1457L201.808 113.073C201.81 113.354 201.58 113.582 201.297 113.584H201.294L201.291 113.585Z" fill="#C9C9C9"/>
<path d="M167.159 90.7411C167.026 90.7411 166.895 90.6915 166.793 90.5909C163.358 87.1791 159.112 84.5436 154.512 82.9687C154.243 82.8761 154.101 82.587 154.195 82.3218C154.287 82.0567 154.581 81.9161 154.85 82.0087C159.597 83.6348 163.979 86.3549 167.524 89.8737C167.724 90.0734 167.723 90.3944 167.522 90.5925C167.422 90.6915 167.291 90.7411 167.16 90.7411H167.159Z" fill="#C9C9C9"/>
<path d="M160.636 111.819C160.578 111.819 160.52 111.809 160.462 111.788C160.195 111.693 160.056 111.402 160.153 111.137L169.551 85.4461C169.648 85.1825 169.942 85.0452 170.21 85.141C170.479 85.2368 170.616 85.5276 170.519 85.7927L161.121 111.483C161.045 111.691 160.848 111.819 160.638 111.819H160.636Z" fill="#C9C9C9"/>
<path d="M144.323 98.8712C144.235 98.8712 144.144 98.8489 144.063 98.801C143.819 98.6588 143.737 98.3473 143.882 98.1046L155.705 78.3031C155.849 78.0619 156.165 77.9805 156.409 78.1242C156.654 78.2664 156.736 78.5778 156.59 78.8206L144.768 98.6221C144.673 98.7834 144.5 98.8728 144.325 98.8728L144.323 98.8712Z" fill="#C9C9C9"/>
<path d="M179.401 70.8885C179.38 70.8885 179.358 70.8885 179.335 70.8838C179.136 70.8582 178.97 70.7208 178.91 70.5324C178.349 68.7722 177.659 67.2084 176.993 65.6974C176.88 65.4402 176.998 65.1399 177.26 65.0281C177.52 64.9163 177.824 65.0345 177.937 65.2917C178.485 66.5344 179.049 67.8122 179.55 69.2146C182.065 65.4434 185.099 62.0492 188.581 59.115C188.798 58.9329 189.121 58.9585 189.307 59.1725C189.491 59.3866 189.465 59.7076 189.249 59.8897C185.571 62.9868 182.406 66.6078 179.838 70.6522C179.742 70.8023 179.578 70.8901 179.401 70.8901V70.8885Z" fill="#C9C9C9"/>
<path d="M172.519 110.367C172.249 110.367 172.022 110.159 172.006 109.889C171.352 99.3776 171.397 88.7221 172.142 78.2184C172.161 77.9389 172.404 77.7281 172.692 77.7472C172.975 77.7664 173.19 78.0092 173.169 78.2903C172.427 88.7509 172.381 99.3616 173.033 109.827C173.051 110.106 172.834 110.348 172.551 110.365C172.54 110.365 172.53 110.365 172.519 110.365V110.367Z" fill="#C9C9C9"/>
<path d="M153.81 77.4517C153.594 77.4517 153.393 77.3159 153.322 77.1019L151.271 70.8997C151.182 70.6329 151.331 70.3454 151.601 70.2592C151.871 70.1713 152.161 70.3183 152.249 70.585L154.3 76.7872C154.389 77.054 154.24 77.3415 153.97 77.4277C153.917 77.4453 153.864 77.4533 153.81 77.4533V77.4517Z" fill="#C9C9C9"/>
</g>
</g>
<defs>
<clipPath id="clip0_1_139">
<rect width="234" height="120" fill="white"/>
</clipPath>
<clipPath id="clip1_1_139">
<rect width="102" height="119" fill="white" transform="translate(15 14)"/>
</clipPath>
<clipPath id="clip2_1_139">
<rect width="29" height="27" fill="white" transform="translate(114.75 13)"/>
</clipPath>
<clipPath id="clip3_1_139">
<rect width="80" height="107" fill="white" transform="translate(138.75 13)"/>
</clipPath>
</defs>
</svg>
