<svg width="234" height="120" viewBox="0 0 234 120" fill="none" xmlns="http://www.w3.org/2000/svg">
<g clip-path="url(#clip0_1_87)">
<path d="M95.9007 83.782L99.6472 100.674C99.6472 100.674 142.43 102.917 142.871 99.9062C145.334 83.103 145.423 75.9073 145.423 75.9073C145.423 75.9073 144.178 49.4918 144.178 41.0833C139.606 39.3577 132.096 37.6762 130.267 37.2719L124.52 46.0727C120.127 47.1009 119.007 50.7442 114.408 48.2008C106.854 44.0255 106.629 37.7102 106.499 37.4602C106.355 37.4915 97.6787 39.3641 93.2794 40.8674C93.7674 49.2934 95.1872 71.4361 95.9017 83.782H95.9007Z" fill="white"/>
<path d="M94.8971 40.5568C94.8971 40.5568 90.4352 39.8879 87.0147 49.5838C84.35 57.1377 80.3614 89.049 83.3639 92.0454C89.4058 98.075 98.5985 96.229 101.863 91.8304C105.128 87.4318 99.2578 62.5508 99.2578 62.5508C99.2578 62.5508 100.378 49.4744 94.8971 40.5568Z" fill="white"/>
<path d="M198 120L182.706 85.267H48.059L36 120H198Z" fill="#EDEDED"/>
<path d="M142.104 40.5568C142.104 40.5568 146.566 39.8879 149.986 49.5838C152.651 57.1377 156.639 89.049 153.637 92.0454C147.595 98.075 138.402 96.229 135.137 91.8304C131.872 87.4318 137.743 62.5508 137.743 62.5508C137.743 62.5508 136.622 49.4744 142.104 40.5568Z" fill="white"/>
<path d="M92.6229 96.4651C88.9675 96.4651 85.5673 95.0629 82.9533 92.4543C82.7268 92.2282 82.7268 91.8616 82.9533 91.6356C83.1798 91.4095 83.5471 91.4095 83.7736 91.6356C86.3978 94.2543 89.8901 95.5463 93.6053 95.2706C96.8565 95.0299 99.8424 93.5799 101.398 91.4849C101.588 91.2276 101.952 91.1743 102.209 91.3645C102.467 91.5547 102.52 91.9177 102.329 92.174C100.579 94.5318 97.269 96.161 93.691 96.4247C93.3328 96.4513 92.9765 96.4642 92.6229 96.4642V96.4651Z" fill="#C1D1E0"/>
<path d="M132.757 19.8493C135.557 25.5205 133.879 32.525 136.279 38.3764C137.445 41.2175 137.334 46.2327 136.904 51.1274C135.172 56.0581 135.776 61.3232 128.247 62.1658C123.658 61.7789 123.411 54.8884 125.414 51.4518C129.604 39.9247 129.668 32.1272 132.886 20.2959L132.757 19.8493Z" fill="#0D2E61"/>
<path d="M104.326 17.5549C99.2753 29.3274 100.441 33.6158 99.7163 44.9279C99.1012 54.5227 97.8601 52.8752 98.2275 57.6367C98.3766 59.5682 101.351 61.3462 103.238 60.8922C105.307 60.3951 109.866 55.1723 109.513 53.0782C107.604 41.7541 105.991 32.7199 104.5 19.8493L104.326 17.5549H104.326Z" fill="#0D2E61"/>
<path d="M101.964 29.2704C101.451 22.9624 102.924 18.505 106.09 15.3717C109.254 12.2383 114.647 9.72249 119.095 10.0248C123.543 10.3271 126.943 11.5786 130.191 14.6265C135.542 19.6481 134.45 29.2208 134.45 29.2208C134.45 29.2208 133.356 51.7339 112.219 46.3971C109.587 45.7328 102.618 38.5436 101.964 29.2704Z" fill="#0D2E61"/>
<path d="M118.372 13.8362C107.45 12.9679 102.542 24.0494 104.271 35.1815C106.037 46.5451 112.623 53.3106 118.888 53.0727C127.239 52.7557 130.887 42.9192 131.719 36.7251C132.854 28.2762 134.025 15.0804 118.371 13.8353L118.372 13.8362Z" fill="#FFD8BD"/>
<path d="M122.417 50.1314C124.116 48.4361 127.694 46.6618 128.505 45.0391C129.317 43.4163 128.759 38.5813 128.647 37.1598C128.545 35.8734 129.028 35.2476 129.677 35.9395C129.677 35.9395 129.482 35.3643 129.532 34.5603C129.588 33.6488 129.987 33.1104 130.722 33.205C130.716 32.8806 130.733 31.914 131.151 31.4968C131.657 30.9924 132.22 31.0227 132.59 31.3553C132.961 31.688 133.811 34.6954 133.811 34.6954L135.36 38.9828L135.611 44.9564L134.482 48.2422C134.169 49.1537 133.698 50.0037 133.091 50.7535L129.16 55.6124L134.542 68.7843L129.523 71.178L125.439 72.5388C125.439 72.5388 122.768 58.9626 121.836 56.0912C120.905 53.2197 120.718 51.8267 122.416 50.1314H122.417Z" fill="#FFD8BD"/>
<path d="M121.837 56.671C121.592 56.671 121.365 56.5148 121.286 56.2703C120.397 53.5312 120.002 51.7229 122.007 49.7225C122.739 48.9929 123.784 48.2606 124.796 47.5522C126.162 46.5965 127.573 45.6078 127.987 44.7809C128.633 43.488 128.275 39.5121 128.122 37.814C128.1 37.5742 128.082 37.3675 128.069 37.2057C127.981 36.0976 128.271 35.3405 128.866 35.1282C129.159 35.0234 129.743 34.9812 130.362 35.8706C131.158 37.0128 131.981 40.917 132.072 41.3581L132.602 43.8004C132.67 44.1128 132.471 44.4207 132.158 44.4887C131.845 44.5567 131.536 44.3582 131.468 44.0458L130.937 41.5979C130.609 40.0147 129.906 37.2443 129.409 36.5313C129.352 36.4495 129.303 36.3889 129.262 36.3448C129.225 36.4945 129.195 36.7445 129.224 37.1148C129.237 37.2737 129.255 37.475 129.276 37.7102C129.557 40.827 129.721 43.9033 129.023 45.2982C128.478 46.388 127.012 47.4134 125.46 48.5004C124.489 49.1804 123.485 49.8833 122.826 50.5412C121.395 51.9691 121.451 53.0249 122.388 55.9138C122.486 56.218 122.32 56.5442 122.015 56.6425C121.956 56.6618 121.895 56.671 121.836 56.671H121.837Z" fill="#FFBB8A"/>
<path d="M134.286 45.4369C133.998 45.4369 133.749 45.2246 133.711 44.9324L133.159 40.6974C132.253 36.9034 131.273 34.2065 130.865 33.8307C130.725 33.7848 130.509 33.7342 130.383 33.8169C130.238 33.9125 130.136 34.2047 130.112 34.598C130.07 35.266 130.227 35.7539 130.229 35.7585C130.328 36.0617 130.163 36.3888 129.86 36.489C129.558 36.5892 129.231 36.4283 129.128 36.127C129.105 36.0571 128.898 35.4185 128.954 34.5272C129.015 33.5303 129.419 33.0653 129.747 32.8503C130.041 32.6582 130.547 32.4855 131.298 32.7566C131.727 32.9109 132.273 33.3731 133.338 36.9135C133.872 38.6888 134.291 40.4429 134.295 40.4603C134.299 40.4796 134.303 40.4998 134.306 40.5191L134.862 44.7845C134.903 45.1015 134.68 45.3919 134.362 45.4332C134.336 45.4369 134.311 45.4378 134.286 45.4378L134.286 45.4369Z" fill="#FFBB8A"/>
<path d="M135.36 39.5626C135.123 39.5626 134.9 39.4156 134.814 39.1795L133.266 34.892C133.262 34.8792 133.257 34.8663 133.253 34.8534C132.895 33.5872 132.389 32.0656 132.183 31.7697C131.963 31.5906 131.725 31.744 131.561 31.9066C131.308 32.1593 131.289 32.7437 131.301 32.9284C131.324 33.2463 131.085 33.5238 130.766 33.5487C130.448 33.5735 130.17 33.3364 130.144 33.0194C130.134 32.8926 130.064 31.7633 130.74 31.0889C131.415 30.4153 132.335 30.3482 132.977 30.9271C133.304 31.2212 133.77 32.4304 134.363 34.5199L135.904 38.788C136.013 39.0885 135.856 39.4202 135.555 39.5286C135.49 39.5516 135.424 39.5635 135.358 39.5635L135.36 39.5626Z" fill="#FFBB8A"/>
<path d="M130.713 64.4638C130.027 64.7974 127.831 65.6584 127.199 66.014C125.049 67.2195 123.778 67.973 124.221 70.3942C124.799 73.5606 125.417 75.5463 127.043 81.3617C128.548 86.7445 135.87 95.8724 142.887 95.481C145.259 95.3487 147.555 94.065 148.442 92.0537C149.151 90.4447 149.128 88.5482 148.601 86.8529C145.316 76.2832 144.758 75.3606 140.686 69.683C138.179 66.1895 134.584 62.5811 130.713 64.4629V64.4638Z" fill="white"/>
<path d="M148.6 87.4327C148.353 87.4327 148.123 87.2737 148.046 87.0247C144.53 75.7126 144.426 75.5775 138.97 68.46L138.598 67.9739C137.626 66.7049 135.629 64.7836 134.114 64.6917C133.795 64.6724 133.551 64.3977 133.57 64.0788C133.589 63.76 133.865 63.5174 134.184 63.5358C136.749 63.6911 139.409 67.1239 139.52 67.27L139.892 67.7561C142.676 71.3884 144.074 73.2123 145.263 75.6289C146.449 78.0428 147.363 80.9188 149.155 86.681C149.249 86.9861 149.078 87.3105 148.772 87.4051C148.715 87.4226 148.657 87.4308 148.6 87.4308V87.4327Z" fill="#C1D1E0"/>
<path d="M148.973 92.287L147.912 91.8212C148.517 90.4456 148.567 88.6979 148.047 87.0256L149.155 86.6829C149.765 88.6465 149.701 90.6367 148.972 92.2879L148.973 92.287Z" fill="#9EACBA"/>
<path d="M142.919 96.059L142.855 94.903C145.122 94.7762 147.154 93.5376 147.911 91.8203L148.972 92.2861C148.044 94.3922 145.611 95.9083 142.919 96.0581V96.059Z" fill="#9EACBA"/>
<path d="M142.458 96.0718C139.285 96.0718 135.764 94.2837 132.486 90.9951C129.655 88.154 127.299 84.4344 126.483 81.517L127.601 81.2055C128.367 83.9456 130.608 87.4676 133.31 90.1782C136.51 93.3896 139.9 95.0684 142.855 94.903L142.919 96.0589C142.766 96.0672 142.613 96.0718 142.458 96.0718Z" fill="#9EACBA"/>
<path d="M127.042 81.9406C126.788 81.9406 126.555 81.7734 126.484 81.517C125.68 78.6428 125.271 77.6018 124.999 76.9126C124.558 75.7925 124.425 75.4553 123.647 70.4833C123.598 70.1672 123.815 69.8714 124.131 69.8217C124.447 69.773 124.744 69.989 124.794 70.3041C125.551 75.1502 125.674 75.4608 126.079 76.489C126.359 77.2002 126.782 78.2744 127.602 81.2055C127.688 81.5134 127.508 81.8331 127.2 81.9186C127.147 81.9333 127.095 81.9397 127.043 81.9397L127.042 81.9406Z" fill="#C1D1E0"/>
<path d="M126.242 21.1752C125.138 26.1876 119.542 31.144 115.96 32.9119C112.378 34.6807 107.788 35.2541 104.099 33.8684C103.013 33.4604 103.916 32.4175 103.28 31.2643C102.838 30.4631 102.92 29.4165 103.07 28.4747C104.059 22.2631 107.461 16.5699 112.229 13.7701C116.998 10.9703 123.049 11.2956 127.404 14.9242C131.76 18.5528 134.09 25.459 132.743 31.574C128.44 30.6974 126.404 26.6278 126.241 21.1743L126.242 21.1752Z" fill="#0D2E61"/>
<path d="M114.292 50.5596C112.593 48.8643 109.015 47.0899 108.204 45.4672C107.392 43.8445 107.95 39.0094 108.062 37.588C108.164 36.3015 107.681 35.6758 107.032 36.3677C107.032 36.3677 107.227 35.7925 107.177 34.9885C107.121 34.077 106.722 33.5385 105.987 33.6332C105.993 33.3088 105.975 32.3422 105.557 31.925C105.052 31.4205 104.488 31.4509 104.118 31.7835C103.748 32.1161 102.897 35.1236 102.897 35.1236L101.349 39.411L101.098 45.3845L102.227 48.6704C102.54 49.5819 103.011 50.4318 103.617 51.1816L107.549 56.0406L101.863 66.6645L109.103 70.0625L111.96 70.3942C111.96 70.3942 113.941 59.3908 114.872 56.5193C115.803 53.6479 115.99 52.2549 114.292 50.5596Z" fill="#FFD8BD"/>
<path d="M114.872 57.0991C114.813 57.0991 114.752 57.0899 114.693 57.0706C114.388 56.9723 114.221 56.6461 114.32 56.342C115.257 53.4531 115.313 52.3973 113.882 50.9694C113.223 50.3115 112.218 49.6085 111.248 48.9286C109.696 47.8425 108.23 46.8161 107.685 45.7263C106.987 44.3324 107.151 41.2561 107.432 38.1384C107.453 37.9031 107.472 37.701 107.484 37.5429C107.513 37.1726 107.484 36.9227 107.446 36.7729C107.404 36.818 107.356 36.8786 107.299 36.9595C106.801 37.6725 106.099 40.4429 105.772 42.0206L105.24 44.4739C105.172 44.7863 104.863 44.9848 104.55 44.9168C104.237 44.8488 104.038 44.541 104.106 44.2286L104.638 41.7807C104.728 41.3443 105.552 37.44 106.347 36.2979C106.966 35.4084 107.55 35.4507 107.843 35.5554C108.438 35.7677 108.729 36.5248 108.64 37.633C108.627 37.7947 108.609 38.0015 108.587 38.2413C108.434 39.9393 108.076 43.9153 108.722 45.2081C109.136 46.0351 110.548 47.0238 111.912 47.9794C112.924 48.6878 113.97 49.4202 114.701 50.1498C116.706 52.1501 116.311 53.9585 115.423 56.6976C115.344 56.9429 115.117 57.0982 114.872 57.0982V57.0991Z" fill="#FFBB8A"/>
<path d="M102.423 45.8642C102.398 45.8642 102.374 45.8624 102.348 45.8596C102.03 45.8183 101.806 45.5279 101.848 45.2109L102.404 40.9455C102.407 40.9253 102.41 40.906 102.415 40.8867C102.419 40.8693 102.838 39.1151 103.372 37.3399C104.437 33.7995 104.983 33.3373 105.412 33.183C106.162 32.9119 106.67 33.0846 106.963 33.2767C107.29 33.4917 107.694 33.9566 107.756 34.9536C107.811 35.8449 107.605 36.4835 107.581 36.5543C107.478 36.8575 107.149 37.0192 106.846 36.9172C106.542 36.8143 106.38 36.4863 106.482 36.1831C106.482 36.1812 106.639 35.6933 106.598 35.0253C106.573 34.632 106.472 34.3398 106.326 34.2442C106.201 34.1625 105.985 34.2121 105.845 34.258C105.436 34.6338 104.455 37.3307 103.551 41.1247L102.999 45.3598C102.961 45.651 102.711 45.8642 102.424 45.8642H102.423Z" fill="#FFBB8A"/>
<path d="M101.349 39.9908C101.283 39.9908 101.217 39.9798 101.152 39.9559C100.851 39.8474 100.694 39.5157 100.803 39.2153L102.344 34.9471C102.936 32.8567 103.402 31.6484 103.73 31.3544C104.372 30.7764 105.292 30.8426 105.967 31.5161C106.643 32.1905 106.573 33.3198 106.563 33.4466C106.537 33.7655 106.258 34.0025 105.939 33.9777C105.619 33.952 105.382 33.6736 105.406 33.3547C105.419 33.1728 105.4 32.5884 105.147 32.3357C104.984 32.1731 104.745 32.0205 104.524 32.1988C104.319 32.4947 103.813 34.0154 103.454 35.2825C103.451 35.2954 103.446 35.3082 103.442 35.3211L101.894 39.6076C101.808 39.8438 101.585 39.9908 101.348 39.9908H101.349Z" fill="#FFBB8A"/>
<path d="M106.337 64.8204C107.082 65.2825 110.654 66.7757 110.933 67.033C112.76 68.7246 112.779 70.2747 112.486 72.0445C111.472 78.1733 111.763 74.9095 109.959 81.3608C108.453 86.7435 101.131 95.8715 94.1145 95.4801C91.7427 95.3478 89.4463 94.0641 88.5597 92.0527C87.8507 90.4438 87.8737 88.5473 88.4004 86.852C92.0686 75.051 92.2583 74.9159 98.6252 65.9772C100.288 63.6424 103.899 63.307 106.338 64.8194L106.337 64.8204Z" fill="white"/>
<path d="M88.4004 87.4327C88.3433 87.4327 88.2853 87.4244 88.2282 87.407C87.9225 87.3123 87.7513 86.988 87.8461 86.6829C89.6461 80.8913 91.8283 74.3628 94.3622 69.8512C97.013 65.131 99.8415 62.9973 103.011 63.3272C103.329 63.3603 103.56 63.6452 103.527 63.9631C103.494 64.281 103.21 64.5116 102.89 64.4786C100.232 64.202 97.7735 66.1435 95.3741 70.4172C92.8927 74.8351 90.7363 81.2919 88.9537 87.0257C88.8764 87.2737 88.6471 87.4336 88.3995 87.4336L88.4004 87.4327Z" fill="#C1D1E0"/>
<path d="M88.5587 92.4396C88.4096 92.4396 88.2687 92.3532 88.2043 92.2089C87.4953 90.6009 87.4336 88.6585 88.0302 86.7389C88.0938 86.535 88.3101 86.4219 88.5145 86.4844C88.719 86.5478 88.8322 86.7638 88.7696 86.9677C88.2365 88.6842 88.288 90.4815 88.9132 91.8984C88.9989 92.0932 88.9105 92.321 88.7153 92.4074C88.6646 92.4295 88.6122 92.4405 88.5597 92.4405L88.5587 92.4396Z" fill="#9EACBA"/>
<path d="M94.1145 95.867C94.1071 95.867 94.0998 95.867 94.0924 95.867C91.471 95.7209 89.1057 94.2507 88.2052 92.2099C88.1195 92.0151 88.2079 91.7872 88.4031 91.7008C88.5983 91.6154 88.8267 91.7036 88.9132 91.8984C89.6986 93.681 91.7979 94.9655 94.1357 95.096C94.3493 95.108 94.5123 95.2899 94.5003 95.5031C94.4892 95.7089 94.318 95.8679 94.1145 95.8679V95.867Z" fill="#9EACBA"/>
<path d="M94.5436 95.8789C94.3926 95.8789 94.2425 95.8752 94.0924 95.866C93.8788 95.8541 93.7158 95.6721 93.7278 95.459C93.7398 95.2458 93.9221 95.0831 94.1357 95.0951C97.1474 95.2632 100.589 93.5652 103.829 90.3142C106.552 87.5825 108.812 84.0274 109.587 81.2579C109.644 81.053 109.857 80.9326 110.063 80.9896C110.268 81.0466 110.389 81.2597 110.332 81.4647C109.524 84.3517 107.187 88.0391 104.378 90.8582C101.138 94.1101 97.6649 95.878 94.5445 95.878L94.5436 95.8789Z" fill="#9EACBA"/>
<path d="M109.959 81.9406C109.907 81.9406 109.855 81.9333 109.802 81.9195C109.494 81.8331 109.313 81.5143 109.4 81.2065C110.223 78.2624 110.614 77.2774 110.873 76.6259C111.233 75.7199 111.297 75.5564 112.053 70.725C112.103 70.4089 112.4 70.1929 112.716 70.2426C113.033 70.2922 113.249 70.5881 113.2 70.9042C112.424 75.8633 112.352 76.0452 111.952 77.0532C111.703 77.6826 111.325 78.6327 110.518 81.5189C110.446 81.7743 110.213 81.9425 109.96 81.9425L109.959 81.9406Z" fill="#C1D1E0"/>
<path d="M85.8914 110.693L79.1101 73.7609C78.9462 72.8687 79.6331 72.0463 80.5418 72.0463H153.68C154.584 72.0463 155.27 72.8604 155.115 73.7499L148.632 110.694H85.8904L85.8914 110.693Z" fill="#DE133F"/>
<path d="M116.535 93.9796C117.979 93.9796 119.15 92.8108 119.15 91.3691C119.15 89.9274 117.979 88.7586 116.535 88.7586C115.09 88.7586 113.919 89.9274 113.919 91.3691C113.919 92.8108 115.09 93.9796 116.535 93.9796Z" fill="white"/>
<path d="M148.119 108.701H86.1308C85.8409 108.701 85.6059 108.935 85.6059 109.224V111.229C85.6059 111.519 85.8409 111.753 86.1308 111.753H148.119C148.409 111.753 148.644 111.519 148.644 111.229V109.224C148.644 108.935 148.409 108.701 148.119 108.701Z" fill="#DE133F"/>
<path d="M118.805 46.9935C118.748 46.9935 118.691 46.9852 118.634 46.9678L116.418 46.285C116.112 46.1904 115.94 45.867 116.035 45.561C116.129 45.2559 116.454 45.0841 116.76 45.1787L118.976 45.8614C119.282 45.9561 119.454 46.2795 119.359 46.5855C119.282 46.8345 119.053 46.9935 118.805 46.9935Z" fill="#FFBB8A"/>
<path d="M119.532 50.6414C119.463 50.6414 119.393 50.6294 119.326 50.6037C118.252 50.1967 117.081 50.068 115.943 50.2297C115.627 50.2748 115.332 50.0551 115.287 49.7381C115.242 49.422 115.462 49.128 115.78 49.083C117.111 48.8937 118.479 49.0453 119.737 49.5204C120.036 49.6334 120.187 49.9679 120.074 50.2665C119.986 50.498 119.765 50.6405 119.532 50.6405V50.6414Z" fill="#FF9B8A"/>
<path d="M71.2515 54.1845C70.9772 54.1845 70.7332 53.9897 70.6816 53.7113C70.6236 53.3971 70.8317 53.0948 71.1466 53.0369C74.8544 52.3514 78.4352 50.4126 81.5012 47.429C81.7305 47.2058 82.0979 47.2104 82.3216 47.4392C82.5454 47.668 82.5408 48.0346 82.3115 48.2579C79.0806 51.4022 75.2927 53.4476 71.3583 54.1754C71.3224 54.1818 71.2875 54.1855 71.2525 54.1855L71.2515 54.1845Z" fill="#0D2E61"/>
<path d="M69.6098 63.9768C69.1706 63.9768 68.7416 63.8859 68.3512 63.7049C67.5593 63.3373 66.9507 62.605 66.681 61.6981C66.5723 61.3314 66.5254 60.9584 66.5382 60.5963C66.0714 60.7305 65.5641 60.7709 65.0549 60.7057C63.9841 60.5688 63.0449 59.9844 62.5413 59.1418C62.0377 58.3001 61.9686 57.1965 62.3562 56.1913C62.5128 55.7861 62.7337 55.4185 63.0044 55.1061C62.0284 54.79 61.1768 54.0908 60.7238 53.1535C60.0139 51.6843 60.373 49.8181 61.5782 48.7154C62.7835 47.6128 64.6774 47.418 66.0825 48.2514C66.3578 48.415 66.448 48.7696 66.285 49.0444C66.1211 49.3191 65.7657 49.4101 65.4904 49.2465C64.5301 48.6768 63.1858 48.8156 62.3627 49.5691C61.5395 50.3225 61.2845 51.6466 61.7688 52.6509C62.254 53.6552 63.451 54.281 64.554 54.1073C64.8542 54.0595 65.1406 54.2525 65.2096 54.5484C65.2787 54.8443 65.1065 55.1429 64.8155 55.232C64.2143 55.4167 63.6996 55.9313 63.439 56.6076C63.1785 57.2838 63.2153 58.0097 63.5375 58.5491C63.8598 59.0885 64.4822 59.4652 65.2032 59.558C65.9232 59.6499 66.6211 59.4422 67.0695 59.0021C67.2794 58.7963 67.61 58.7797 67.8393 58.9635C68.0685 59.1473 68.1238 59.4726 67.9682 59.7216C67.6818 60.1792 67.6183 60.7801 67.7932 61.37C67.9682 61.9599 68.3503 62.4286 68.841 62.6564C69.3309 62.8843 69.9367 62.8742 70.502 62.6289C71.0674 62.3835 71.4872 61.948 71.6539 61.4343C71.7524 61.1302 72.0802 60.9639 72.385 61.0622C72.6897 61.1605 72.8564 61.4876 72.7579 61.7918C72.489 62.6206 71.8353 63.3125 70.9652 63.6911C70.5241 63.8831 70.061 63.9787 69.6089 63.9787L69.6098 63.9768Z" fill="#0D2E61"/>
<path d="M88.4409 53.0865C88.4409 53.0865 88.4363 53.0865 88.4335 53.0865C88.1131 53.0828 87.8562 52.82 87.8608 52.5002C87.8912 49.9899 89.2106 47.5669 91.3044 46.1766C91.5714 45.9993 91.9314 46.0719 92.1091 46.3374C92.2868 46.6039 92.2141 46.9632 91.948 47.1405C90.1682 48.3222 89.0467 50.3813 89.0209 52.5149C89.0173 52.832 88.7585 53.0865 88.4409 53.0865Z" fill="#C1D1E0"/>
<path d="M90.3063 59.2512C90.2999 59.2512 90.2943 59.2512 90.2879 59.2512C89.9675 59.2411 89.7161 58.9746 89.7262 58.6548C89.8137 55.8183 90.5116 52.9671 91.7436 50.4089C91.8826 50.1204 92.2288 49.9991 92.5179 50.1379C92.8071 50.2766 92.9286 50.6221 92.7896 50.9106C91.6267 53.3236 90.9683 56.014 90.8864 58.6897C90.8772 59.0031 90.6194 59.2512 90.3072 59.2512H90.3063Z" fill="#C1D1E0"/>
<path d="M146.537 53.7564C146.286 53.7564 146.054 53.5919 145.98 53.3392L143.752 45.6961C143.662 45.3892 143.839 45.0676 144.147 44.9784C144.454 44.8893 144.776 45.0657 144.866 45.3726L147.094 53.0157C147.183 53.3226 147.007 53.6443 146.699 53.7334C146.645 53.749 146.59 53.7564 146.537 53.7564Z" fill="#C1D1E0"/>
<path d="M96.7524 55.017C96.478 55.017 96.234 54.8213 96.1825 54.5419C95.5472 51.0723 94.446 47.7019 92.9102 44.5245C92.7711 44.2369 92.8918 43.8904 93.1809 43.7517C93.4691 43.6129 93.8162 43.7333 93.9552 44.0218C95.5361 47.2921 96.6696 50.7617 97.3233 54.3343C97.3813 54.6485 97.1723 54.9499 96.8574 55.0078C96.8224 55.0142 96.7874 55.017 96.7524 55.017Z" fill="#C1D1E0"/>
<path d="M140.763 53.8877C140.756 53.8877 140.747 53.8877 140.74 53.8877C140.42 53.8749 140.171 53.6065 140.183 53.2868C140.327 49.6021 141.256 45.9 142.867 42.5811C143.007 42.2935 143.354 42.1731 143.642 42.3128C143.93 42.4524 144.051 42.7989 143.911 43.0865C142.369 46.263 141.48 49.8052 141.342 53.3327C141.33 53.6442 141.073 53.8886 140.763 53.8886V53.8877Z" fill="#C1D1E0"/>
<path d="M83.1972 71.8589C83.1761 71.8589 83.1549 71.8579 83.1337 71.8552C82.8151 71.8203 82.585 71.5354 82.6199 71.2175C83.6318 61.9223 85.2146 52.9468 86.4686 49.3917C87.765 45.7181 90.1093 42.4736 92.3025 41.3186C92.319 41.3094 92.3365 41.302 92.354 41.2947L98.6584 38.7237C98.9548 38.6024 99.2937 38.7448 99.4143 39.0407C99.5358 39.3366 99.3931 39.6747 99.0966 39.796L92.8199 42.356C91.1967 43.2252 88.9491 45.8486 87.5634 49.7767C86.3351 53.2574 84.7772 62.1263 83.7736 71.3434C83.7414 71.6402 83.49 71.8598 83.1972 71.8598V71.8589Z" fill="#C1D1E0"/>
<path d="M153.637 92.6234C153.489 92.6234 153.34 92.5673 153.227 92.4534C153.001 92.2274 153.001 91.8607 153.227 91.6347C153.505 91.3572 154.386 89.8273 154.054 81.7863C154.041 81.4665 154.29 81.1973 154.609 81.1845C154.93 81.1698 155.199 81.4197 155.212 81.7385C155.592 90.9125 154.429 92.0721 154.047 92.4534C153.933 92.5664 153.785 92.6234 153.637 92.6234Z" fill="#C1D1E0"/>
<path d="M153.753 71.393C153.461 71.393 153.21 71.1743 153.177 70.8775C152.175 61.8497 150.637 53.1719 149.439 49.7758C148.076 45.9138 145.602 43.0157 142.085 41.1633C139.444 39.7712 137.169 39.524 137.147 39.5213C136.829 39.4882 136.597 39.2043 136.63 38.8863C136.663 38.5684 136.946 38.3369 137.265 38.369C137.365 38.3791 139.749 38.6327 142.583 40.1158C145.2 41.4849 148.704 44.2056 150.534 49.3908C151.758 52.8613 153.32 61.6448 154.331 70.7498C154.366 71.0677 154.137 71.3535 153.818 71.3893C153.796 71.3921 153.775 71.393 153.754 71.393H153.753Z" fill="#C1D1E0"/>
</g>
<defs>
<clipPath id="clip0_1_87">
<rect width="234" height="120" fill="white"/>
</clipPath>
</defs>
</svg>
